Rokkitt-Semi-Bold.ufo
<glyph name="exclam" format="1">
  <advance width="410"/>
  <unicode hex="0021"/>
  <outline>
    <contour>
      <point x="168" y="386" type="line"/>
      <point x="252" y="386" type="line"/>
      <point x="290" y="860" type="line"/>
      <point x="290" y="1205" type="line"/>
      <point x="127" y="1205" type="line"/>
      <point x="127" y="860" type="line"/>
    </contour>
    <contour>
      <point x="208" y="-13" type="curve" smooth="yes"/>
      <point x="273" y="-13"/>
      <point x="323" y="34"/>
      <point x="323" y="95" type="curve" smooth="yes"/>
      <point x="323" y="155"/>
      <point x="273" y="202"/>
      <point x="208" y="202" type="curve"/>
      <point x="145" y="202"/>
      <point x="95" y="155"/>
      <point x="95" y="95" type="curve" smooth="yes"/>
      <point x="95" y="34"/>
      <point x="145" y="-13"/>
    </contour>
  </outline>
</glyph>
<glyph name="quotedbl" format="1">
  <advance width="732"/>
  <unicode hex="0022"/>
  <outline>
    <contour>
      <point x="182" y="797" type="line"/>
      <point x="277" y="797" type="line"/>
      <point x="313" y="1232" type="line"/>
      <point x="140" y="1232" type="line"/>
    </contour>
    <contour>
      <point x="460" y="797" type="line"/>
      <point x="554" y="797" type="line"/>
      <point x="593" y="1232" type="line"/>
      <point x="420" y="1232" type="line"/>
    </contour>
  </outline>
</glyph>
<glyph name="numbersign" format="1">
  <advance width="1146"/>
  <unicode hex="0023"/>
  <outline>
    <contour>
      <point x="190" y="-8" type="line"/>
      <point x="314" y="-8" type="line"/>
      <point x="365" y="350" type="line"/>
      <point x="695" y="350" type="line"/>
      <point x="645" y="-8" type="line"/>
      <point x="770" y="-8" type="line"/>
      <point x="820" y="350" type="line"/>
      <point x="1057" y="350" type="line"/>
      <point x="1058" y="457" type="line"/>
      <point x="840" y="457" type="line"/>
      <point x="882" y="764" type="line"/>
      <point x="1076" y="764" type="line"/>
      <point x="1077" y="873" type="line"/>
      <point x="901" y="873" type="line"/>
      <point x="951" y="1215" type="line"/>
      <point x="826" y="1215" type="line"/>
      <point x="776" y="873" type="line"/>
      <point x="447" y="873" type="line"/>
      <point x="496" y="1215" type="line"/>
      <point x="371" y="1215" type="line"/>
      <point x="322" y="873" type="line"/>
      <point x="93" y="873" type="line"/>
      <point x="92" y="764" type="line"/>
      <point x="301" y="764" type="line"/>
      <point x="261" y="457" type="line"/>
      <point x="73" y="457" type="line"/>
      <point x="72" y="350" type="line"/>
      <point x="240" y="350" type="line"/>
    </contour>
    <contour>
      <point x="384" y="457" type="line"/>
      <point x="426" y="764" type="line"/>
      <point x="756" y="764" type="line"/>
      <point x="715" y="457" type="line"/>
    </contour>
  </outline>
</glyph>
<glyph name="dollar" format="1">
  <advance width="1062"/>
  <unicode hex="0024"/>
  <outline>
    <contour>
      <point x="483" y="-183" type="line"/>
      <point x="562" y="-183" type="line"/>
      <point x="562" y="1356" type="line"/>
      <point x="483" y="1356" type="line"/>
    </contour>
    <component base="S" xOffset="-44"/>
  </outline>
</glyph>
<glyph name="percent" format="1">
  <advance width="1699"/>
  <unicode hex="0025"/>
  <outline>
    <contour>
      <point x="414" y="688" type="curve" smooth="yes"/>
      <point x="304" y="689"/>
      <point x="222" y="773"/>
      <point x="222" y="887" type="curve" smooth="yes"/>
      <point x="222" y="1000"/>
      <point x="304" y="1083"/>
      <point x="414" y="1084" type="curve" smooth="yes"/>
      <point x="526" y="1083"/>
      <point x="608" y="1000"/>
      <point x="608" y="887" type="curve" smooth="yes"/>
      <point x="608" y="773"/>
      <point x="526" y="689"/>
    </contour>
    <contour>
      <point x="414" y="594" type="curve" smooth="yes"/>
      <point x="589" y="594"/>
      <point x="718" y="718"/>
      <point x="718" y="887" type="curve" smooth="yes"/>
      <point x="718" y="1053"/>
      <point x="589" y="1176"/>
      <point x="414" y="1176" type="curve" smooth="yes"/>
      <point x="240" y="1176"/>
      <point x="111" y="1053"/>
      <point x="111" y="887" type="curve" smooth="yes"/>
      <point x="111" y="718"/>
      <point x="240" y="594"/>
    </contour>
    <contour>
      <point x="379" y="-58" type="line"/>
      <point x="1406" y="1175" type="line"/>
      <point x="1333" y="1237" type="line"/>
      <point x="302" y="10" type="line"/>
    </contour>
    <contour>
      <point x="1298" y="72" type="curve" smooth="yes"/>
      <point x="1188" y="73"/>
      <point x="1106" y="157"/>
      <point x="1106" y="271" type="curve" smooth="yes"/>
      <point x="1106" y="385"/>
      <point x="1188" y="467"/>
      <point x="1298" y="468" type="curve" smooth="yes"/>
      <point x="1410" y="467"/>
      <point x="1492" y="385"/>
      <point x="1492" y="271" type="curve" smooth="yes"/>
      <point x="1492" y="157"/>
      <point x="1410" y="73"/>
    </contour>
    <contour>
      <point x="1298" y="-22" type="curve" smooth="yes"/>
      <point x="1473" y="-22"/>
      <point x="1602" y="103"/>
      <point x="1602" y="271" type="curve" smooth="yes"/>
      <point x="1602" y="438"/>
      <point x="1473" y="560"/>
      <point x="1298" y="560" type="curve" smooth="yes"/>
      <point x="1124" y="560"/>
      <point x="995" y="438"/>
      <point x="995" y="271" type="curve" smooth="yes"/>
      <point x="995" y="103"/>
      <point x="1124" y="-22"/>
    </contour>
  </outline>
</glyph>
<glyph name="ampersand" format="1">
  <advance width="1292"/>
  <unicode hex="0026"/>
  <outline>
    <contour>
      <point x="511" y="-20" type="curve" smooth="yes"/>
      <point x="649" y="-20"/>
      <point x="769" y="28"/>
      <point x="869" y="120" type="curve"/>
      <point x="960" y="0" type="line"/>
      <point x="1228" y="0" type="line"/>
      <point x="1228" y="119" type="line"/>
      <point x="1049" y="119" type="line"/>
      <point x="964" y="226" type="line"/>
      <point x="1018" y="292"/>
      <point x="1064" y="392"/>
      <point x="1091" y="484" type="curve"/>
      <point x="1228" y="484" type="line"/>
      <point x="1228" y="602" type="line"/>
      <point x="990" y="602" type="line"/>
      <point x="973" y="512"/>
      <point x="937" y="401"/>
      <point x="883" y="328" type="curve"/>
      <point x="610" y="653" type="line"/>
      <point x="789" y="730"/>
      <point x="875" y="838"/>
      <point x="875" y="974" type="curve" smooth="yes"/>
      <point x="875" y="1116"/>
      <point x="755" y="1217"/>
      <point x="583" y="1217" type="curve" smooth="yes"/>
      <point x="403" y="1217"/>
      <point x="277" y="1114"/>
      <point x="277" y="965" type="curve" smooth="yes"/>
      <point x="277" y="876"/>
      <point x="325" y="790"/>
      <point x="404" y="691" type="curve"/>
      <point x="209" y="619"/>
      <point x="101" y="505"/>
      <point x="101" y="339" type="curve" smooth="yes"/>
      <point x="101" y="128"/>
      <point x="268" y="-20"/>
    </contour>
    <contour>
      <point x="535" y="111" type="curve" smooth="yes"/>
      <point x="371" y="111"/>
      <point x="260" y="213"/>
      <point x="260" y="347" type="curve" smooth="yes"/>
      <point x="260" y="463"/>
      <point x="333" y="547"/>
      <point x="478" y="599" type="curve"/>
      <point x="790" y="219" type="line"/>
      <point x="719" y="146"/>
      <point x="632" y="111"/>
    </contour>
    <contour>
      <point x="539" y="747" type="curve"/>
      <point x="466" y="840"/>
      <point x="420" y="907"/>
      <point x="420" y="970" type="curve" smooth="yes"/>
      <point x="420" y="1055"/>
      <point x="487" y="1105"/>
      <point x="582" y="1105" type="curve" smooth="yes"/>
      <point x="677" y="1105"/>
      <point x="741" y="1053"/>
      <point x="741" y="967" type="curve" smooth="yes"/>
      <point x="741" y="875"/>
      <point x="670" y="804"/>
    </contour>
  </outline>
</glyph>
<glyph name="parenleft" format="1">
  <advance width="570"/>
  <unicode hex="0028"/>
  <outline>
    <contour>
      <point x="504" y="-121" type="curve"/>
      <point x="504" y="-18" type="line"/>
      <point x="359" y="58"/>
      <point x="285" y="292"/>
      <point x="285" y="527" type="curve" smooth="yes"/>
      <point x="285" y="761"/>
      <point x="359" y="996"/>
      <point x="504" y="1072" type="curve"/>
      <point x="504" y="1173" type="line"/>
      <point x="231" y="1065"/>
      <point x="94" y="794"/>
      <point x="94" y="525" type="curve" smooth="yes"/>
      <point x="94" y="255"/>
      <point x="230" y="-14"/>
    </contour>
  </outline>
</glyph>
<glyph name="parenright" format="1">
  <advance width="571"/>
  <unicode hex="0029"/>
  <outline>
    <contour>
      <point x="115" y="-121" type="line"/>
      <point x="389" y="-14"/>
      <point x="525" y="255"/>
      <point x="525" y="525" type="curve" smooth="yes"/>
      <point x="525" y="794"/>
      <point x="388" y="1065"/>
      <point x="115" y="1173" type="curve"/>
      <point x="115" y="1072" type="line"/>
      <point x="260" y="996"/>
      <point x="334" y="761"/>
      <point x="334" y="527" type="curve" smooth="yes"/>
      <point x="334" y="292"/>
      <point x="260" y="58"/>
      <point x="115" y="-18" type="curve"/>
    </contour>
  </outline>
</glyph>
<glyph name="asterisk" format="1">
  <advance width="934"/>
  <unicode hex="002A"/>
  <outline>
    <contour>
      <point x="279" y="410" type="line"/>
      <point x="467" y="747" type="line"/>
      <point x="654" y="410" type="line"/>
      <point x="769" y="493" type="line"/>
      <point x="509" y="775" type="line"/>
      <point x="882" y="857" type="line"/>
      <point x="840" y="992" type="line"/>
      <point x="489" y="821" type="line"/>
      <point x="538" y="1205" type="line"/>
      <point x="396" y="1205" type="line"/>
      <point x="444" y="821" type="line"/>
      <point x="94" y="992" type="line"/>
      <point x="51" y="857" type="line"/>
      <point x="424" y="775" type="line"/>
      <point x="163" y="493" type="line"/>
    </contour>
  </outline>
</glyph>
<glyph name="comma" format="1">
  <advance width="484"/>
  <unicode hex="002C"/>
  <outline>
    <contour>
      <point x="157" y="-241" type="line"/>
      <point x="323" y="-241"/>
      <point x="371" y="-149"/>
      <point x="371" y="14" type="curve"/>
      <point x="371" y="47"/>
      <point x="369" y="177"/>
      <point x="366" y="204" type="curve"/>
      <point x="324" y="204"/>
      <point x="197" y="204"/>
      <point x="161" y="200" type="curve"/>
      <point x="161" y="167"/>
      <point x="162" y="33"/>
      <point x="163" y="1" type="curve"/>
      <point x="270" y="1" type="line"/>
      <point x="270" y="-110"/>
      <point x="241" y="-146"/>
      <point x="157" y="-161" type="curve"/>
    </contour>
  </outline>
</glyph>
<glyph name="hyphen" format="1">
  <advance width="711"/>
  <unicode hex="002D"/>
  <outline>
    <contour>
      <point x="337" y="432" type="move" name="_mid"/>
    </contour>
    <contour>
      <point x="110" y="381" type="line"/>
      <point x="600" y="381" type="line"/>
      <point x="600" y="496" type="line"/>
      <point x="110" y="496" type="line"/>
    </contour>
  </outline>
</glyph>
<glyph name="slash" format="1">
  <advance width="617"/>
  <unicode hex="002F"/>
  <outline>
    <contour>
      <point x="1" y="-7" type="line"/>
      <point x="108" y="-33" type="line"/>
      <point x="613" y="1205" type="line"/>
      <point x="507" y="1231" type="line"/>
    </contour>
  </outline>
</glyph>
<glyph name="zero" format="1">
  <advance width="1097"/>
  <unicode hex="0030"/>
  <outline>
    <contour>
      <point x="548" y="91" type="curve" smooth="yes"/>
      <point x="374" y="91"/>
      <point x="281" y="253"/>
      <point x="281" y="561" type="curve" smooth="yes"/>
      <point x="281" y="887"/>
      <point x="374" y="1061"/>
      <point x="548" y="1061" type="curve" smooth="yes"/>
      <point x="723" y="1061"/>
      <point x="817" y="888"/>
      <point x="817" y="561" type="curve" smooth="yes"/>
      <point x="817" y="255"/>
      <point x="723" y="91"/>
    </contour>
    <contour>
      <point x="548" y="-22" type="curve" smooth="yes"/>
      <point x="832" y="-22"/>
      <point x="976" y="181"/>
      <point x="976" y="561" type="curve" smooth="yes"/>
      <point x="976" y="941"/>
      <point x="832" y="1174"/>
      <point x="548" y="1174" type="curve" smooth="yes"/>
      <point x="264" y="1174"/>
      <point x="122" y="939"/>
      <point x="122" y="561" type="curve" smooth="yes"/>
      <point x="122" y="182"/>
      <point x="264" y="-22"/>
    </contour>
  </outline>
</glyph>
<glyph name="one" format="1">
  <advance width="680"/>
  <unicode hex="0031"/>
  <outline>
    <contour>
      <point x="123" y="0" type="line"/>
      <point x="612" y="0" type="line"/>
      <point x="612" y="113" type="line"/>
      <point x="450" y="113" type="line"/>
      <point x="450" y="1153" type="line"/>
      <point x="116" y="1099" type="line"/>
      <point x="120" y="987" type="line"/>
      <point x="294" y="1014" type="line"/>
      <point x="294" y="113" type="line"/>
      <point x="123" y="113" type="line"/>
    </contour>
  </outline>
</glyph>
<glyph name="two" format="1">
  <advance width="1015"/>
  <unicode hex="0032"/>
  <outline>
    <contour>
      <point x="131" y="0" type="line"/>
      <point x="894" y="0" type="line"/>
      <point x="893" y="338" type="line"/>
      <point x="762" y="338" type="line"/>
      <point x="762" y="125" type="line"/>
      <point x="320" y="125" type="line"/>
      <point x="590" y="395" type="line" smooth="yes"/>
      <point x="733" y="538"/>
      <point x="887" y="677"/>
      <point x="887" y="838" type="curve" smooth="yes"/>
      <point x="887" y="1041"/>
      <point x="751" y="1174"/>
      <point x="507" y="1174" type="curve" smooth="yes"/>
      <point x="275" y="1174"/>
      <point x="129" y="1039"/>
      <point x="129" y="836" type="curve" smooth="yes"/>
      <point x="129" y="792"/>
      <point x="138" y="744"/>
      <point x="153" y="696" type="curve"/>
      <point x="292" y="696" type="line"/>
      <point x="281" y="742"/>
      <point x="275" y="784"/>
      <point x="275" y="817" type="curve" smooth="yes"/>
      <point x="275" y="965"/>
      <point x="367" y="1043"/>
      <point x="509" y="1043" type="curve" smooth="yes"/>
      <point x="664" y="1043"/>
      <point x="724" y="949"/>
      <point x="728" y="836" type="curve" smooth="yes"/>
      <point x="731" y="735"/>
      <point x="616" y="621"/>
      <point x="491" y="494" type="curve" smooth="yes"/>
      <point x="131" y="127" type="line"/>
    </contour>
  </outline>
</glyph>
<glyph name="three" format="1">
  <advance width="1041"/>
  <unicode hex="0033"/>
  <outline>
    <contour>
      <point x="507" y="-21" type="curve" smooth="yes"/>
      <point x="771" y="-21"/>
      <point x="931" y="117"/>
      <point x="931" y="340" type="curve" smooth="yes"/>
      <point x="931" y="488"/>
      <point x="832" y="576"/>
      <point x="668" y="609" type="curve"/>
      <point x="809" y="641"/>
      <point x="893" y="736"/>
      <point x="893" y="870" type="curve" smooth="yes"/>
      <point x="893" y="1053"/>
      <point x="738" y="1174"/>
      <point x="494" y="1174" type="curve" smooth="yes"/>
      <point x="302" y="1174"/>
      <point x="151" y="1084"/>
      <point x="86" y="939" type="curve"/>
      <point x="212" y="879" type="line"/>
      <point x="252" y="986"/>
      <point x="353" y="1051"/>
      <point x="492" y="1051" type="curve" smooth="yes"/>
      <point x="641" y="1051"/>
      <point x="738" y="977"/>
      <point x="738" y="868" type="curve" smooth="yes"/>
      <point x="738" y="738"/>
      <point x="652" y="664"/>
      <point x="412" y="664" type="curve"/>
      <point x="412" y="541" type="line"/>
      <point x="656" y="541"/>
      <point x="764" y="479"/>
      <point x="769" y="337" type="curve" smooth="yes"/>
      <point x="774" y="191"/>
      <point x="671" y="103"/>
      <point x="508" y="103" type="curve" smooth="yes"/>
      <point x="368" y="103"/>
      <point x="268" y="169"/>
      <point x="216" y="289" type="curve"/>
      <point x="92" y="220" type="line"/>
      <point x="144" y="72"/>
      <point x="302" y="-21"/>
    </contour>
  </outline>
</glyph>
<glyph name="four" format="1">
  <advance width="971"/>
  <unicode hex="0034"/>
  <outline>
    <contour>
      <point x="392" y="0" type="line"/>
      <point x="826" y="0" type="line"/>
      <point x="826" y="113" type="line"/>
      <point x="689" y="113" type="line"/>
      <point x="689" y="343" type="line"/>
      <point x="876" y="343" type="line"/>
      <point x="876" y="455" type="line"/>
      <point x="689" y="455" type="line"/>
      <point x="689" y="1152" type="line"/>
      <point x="543" y="1152" type="line"/>
      <point x="55" y="475" type="line"/>
      <point x="72" y="343" type="line"/>
      <point x="543" y="343" type="line"/>
      <point x="543" y="113" type="line"/>
      <point x="392" y="113" type="line"/>
    </contour>
    <contour>
      <point x="200" y="455" type="line"/>
      <point x="543" y="963" type="line"/>
      <point x="543" y="455" type="line"/>
    </contour>
  </outline>
</glyph>
<glyph name="five" format="1">
  <advance width="1031"/>
  <unicode hex="0035"/>
  <outline>
    <contour>
      <point x="517" y="-22" type="curve" smooth="yes"/>
      <point x="790" y="-22"/>
      <point x="949" y="119"/>
      <point x="949" y="359" type="curve" smooth="yes"/>
      <point x="949" y="597"/>
      <point x="799" y="735"/>
      <point x="542" y="735" type="curve" smooth="yes"/>
      <point x="453" y="735"/>
      <point x="364" y="699"/>
      <point x="300" y="636" type="curve"/>
      <point x="311" y="1028" type="line"/>
      <point x="733" y="1028" type="line"/>
      <point x="733" y="855" type="line"/>
      <point x="881" y="855" type="line"/>
      <point x="881" y="1152" type="line"/>
      <point x="170" y="1152" type="line"/>
      <point x="155" y="541" type="line"/>
      <point x="280" y="489" type="line"/>
      <point x="350" y="563"/>
      <point x="459" y="597"/>
      <point x="531" y="597" type="curve" smooth="yes"/>
      <point x="691" y="597"/>
      <point x="783" y="508"/>
      <point x="783" y="353" type="curve" smooth="yes"/>
      <point x="783" y="199"/>
      <point x="686" y="109"/>
      <point x="519" y="109" type="curve" smooth="yes"/>
      <point x="382" y="109"/>
      <point x="277" y="172"/>
      <point x="203" y="272" type="curve"/>
      <point x="103" y="169" type="line"/>
      <point x="195" y="53"/>
      <point x="328" y="-22"/>
    </contour>
  </outline>
</glyph>
<glyph name="six" format="1">
  <advance width="948"/>
  <unicode hex="0036"/>
  <outline>
    <contour>
      <point x="481" y="-20" type="curve" smooth="yes"/>
      <point x="731" y="-20"/>
      <point x="879" y="140"/>
      <point x="879" y="377" type="curve" smooth="yes"/>
      <point x="879" y="592"/>
      <point x="718" y="736"/>
      <point x="528" y="736" type="curve" smooth="yes"/>
      <point x="405" y="736"/>
      <point x="324" y="667"/>
      <point x="307" y="650" type="curve"/>
      <point x="662" y="1167" type="line"/>
      <point x="535" y="1253" type="line"/>
      <point x="177" y="710" type="line" smooth="yes"/>
      <point x="90" y="584"/>
      <point x="70" y="475"/>
      <point x="70" y="354" type="curve" smooth="yes"/>
      <point x="70" y="131"/>
      <point x="244" y="-20"/>
    </contour>
    <contour>
      <point x="486" y="101" type="curve" smooth="yes"/>
      <point x="319" y="101"/>
      <point x="236" y="217"/>
      <point x="236" y="359" type="curve" smooth="yes"/>
      <point x="236" y="524"/>
      <point x="358" y="617"/>
      <point x="496" y="617" type="curve" smooth="yes"/>
      <point x="644" y="617"/>
      <point x="731" y="516"/>
      <point x="731" y="365" type="curve" smooth="yes"/>
      <point x="731" y="210"/>
      <point x="637" y="101"/>
    </contour>
  </outline>
</glyph>
<glyph name="seven" format="1">
  <advance width="988"/>
  <unicode hex="0037"/>
  <outline>
    <contour>
      <point x="337" y="0" type="curve"/>
      <point x="510" y="0" type="line"/>
      <point x="510" y="0"/>
      <point x="655" y="559"/>
      <point x="908" y="1044" type="curve"/>
      <point x="908" y="1152" type="line"/>
      <point x="121" y="1152" type="line"/>
      <point x="121" y="829" type="line"/>
      <point x="270" y="829" type="line"/>
      <point x="270" y="1033" type="line"/>
      <point x="725" y="1033" type="line"/>
      <point x="473" y="517"/>
      <point x="337" y="0"/>
    </contour>
  </outline>
</glyph>
<glyph name="eight" format="1">
  <advance width="1071"/>
  <unicode hex="0038"/>
  <outline>
    <contour>
      <point x="537" y="-22" type="curve" smooth="yes"/>
      <point x="802" y="-22"/>
      <point x="953" y="119"/>
      <point x="953" y="310" type="curve" smooth="yes"/>
      <point x="953" y="451"/>
      <point x="877" y="556"/>
      <point x="724" y="600" type="curve"/>
      <point x="862" y="654"/>
      <point x="916" y="750"/>
      <point x="916" y="872" type="curve" smooth="yes"/>
      <point x="916" y="1054"/>
      <point x="769" y="1174"/>
      <point x="536" y="1174" type="curve" smooth="yes"/>
      <point x="302" y="1174"/>
      <point x="155" y="1052"/>
      <point x="155" y="871" type="curve" smooth="yes"/>
      <point x="155" y="751"/>
      <point x="209" y="661"/>
      <point x="346" y="602" type="curve"/>
      <point x="190" y="559"/>
      <point x="119" y="450"/>
      <point x="119" y="310" type="curve" smooth="yes"/>
      <point x="119" y="122"/>
      <point x="262" y="-22"/>
    </contour>
    <contour>
      <point x="537" y="98" type="curve" smooth="yes"/>
      <point x="384" y="98"/>
      <point x="289" y="185"/>
      <point x="289" y="316" type="curve" smooth="yes"/>
      <point x="289" y="448"/>
      <point x="385" y="540"/>
      <point x="441" y="555" type="curve"/>
      <point x="659" y="519"/>
      <point x="782" y="467"/>
      <point x="782" y="315" type="curve" smooth="yes"/>
      <point x="782" y="184"/>
      <point x="687" y="98"/>
    </contour>
    <contour>
      <point x="620" y="641" type="curve"/>
      <point x="436" y="664"/>
      <point x="318" y="723"/>
      <point x="318" y="858" type="curve" smooth="yes"/>
      <point x="318" y="979"/>
      <point x="398" y="1054"/>
      <point x="536" y="1054" type="curve" smooth="yes"/>
      <point x="677" y="1054"/>
      <point x="755" y="975"/>
      <point x="755" y="858" type="curve" smooth="yes"/>
      <point x="755" y="738"/>
      <point x="664" y="658"/>
    </contour>
  </outline>
</glyph>
<glyph name="nine" format="1">
  <advance width="947"/>
  <unicode hex="0039"/>
  <outline>
    <contour>
      <point x="416" y="-99" type="line"/>
      <point x="774" y="444" type="line" smooth="yes"/>
      <point x="861" y="571"/>
      <point x="881" y="679"/>
      <point x="881" y="801" type="curve" smooth="yes"/>
      <point x="881" y="1023"/>
      <point x="707" y="1174"/>
      <point x="469" y="1174" type="curve" smooth="yes"/>
      <point x="220" y="1174"/>
      <point x="72" y="1014"/>
      <point x="72" y="777" type="curve" smooth="yes"/>
      <point x="72" y="562"/>
      <point x="240" y="422"/>
      <point x="430" y="422" type="curve" smooth="yes"/>
      <point x="553" y="422"/>
      <point x="627" y="488"/>
      <point x="644" y="504" type="curve"/>
      <point x="289" y="-12" type="line"/>
    </contour>
    <contour>
      <point x="455" y="537" type="curve" smooth="yes"/>
      <point x="306" y="537"/>
      <point x="220" y="638"/>
      <point x="220" y="789" type="curve" smooth="yes"/>
      <point x="220" y="944"/>
      <point x="314" y="1053"/>
      <point x="465" y="1053" type="curve" smooth="yes"/>
      <point x="632" y="1053"/>
      <point x="715" y="938"/>
      <point x="715" y="795" type="curve" smooth="yes"/>
      <point x="715" y="630"/>
      <point x="593" y="537"/>
    </contour>
  </outline>
</glyph>
<glyph name="colon" format="1">
  <advance width="532"/>
  <unicode hex="003A"/>
  <outline>
    <contour>
      <point x="164" y="130" type="line"/>
      <point x="371" y="130" type="line"/>
      <point x="371" y="331" type="line"/>
      <point x="164" y="331" type="line"/>
    </contour>
    <contour>
      <point x="164" y="649" type="line"/>
      <point x="371" y="649" type="line"/>
      <point x="371" y="852" type="line"/>
      <point x="164" y="852" type="line"/>
    </contour>
  </outline>
</glyph>
<glyph name="semicolon" format="1">
  <advance width="461"/>
  <unicode hex="003B"/>
  <outline>
    <contour>
      <point x="121" y="-111" type="line"/>
      <point x="291" y="-110"/>
      <point x="337" y="-20"/>
      <point x="337" y="131" type="curve"/>
      <point x="337" y="334" type="line"/>
      <point x="127" y="333" type="line"/>
      <point x="127" y="130" type="line"/>
      <point x="233" y="130" type="line"/>
      <point x="233" y="29"/>
      <point x="215" y="-15"/>
      <point x="121" y="-28" type="curve"/>
    </contour>
    <contour>
      <point x="127" y="649" type="line"/>
      <point x="334" y="649" type="line"/>
      <point x="334" y="852" type="line"/>
      <point x="127" y="852" type="line"/>
    </contour>
  </outline>
</glyph>
<glyph name="less" format="1">
  <advance width="1030"/>
  <unicode hex="003C"/>
  <outline>
    <contour>
      <point x="882" y="46" type="line"/>
      <point x="882" y="186" type="line"/>
      <point x="150" y="590" type="line"/>
      <point x="882" y="995" type="line"/>
      <point x="882" y="1135" type="line"/>
      <point x="-6" y="642" type="line"/>
      <point x="-6" y="538" type="line"/>
    </contour>
  </outline>
</glyph>
<glyph name="greater" format="1">
  <advance width="1031"/>
  <unicode hex="003E"/>
  <outline>
    <contour>
      <point x="151" y="46" type="line"/>
      <point x="1038" y="537" type="line"/>
      <point x="1038" y="642" type="line"/>
      <point x="151" y="1135" type="line"/>
      <point x="151" y="995" type="line"/>
      <point x="882" y="590" type="line"/>
      <point x="151" y="186" type="line"/>
    </contour>
  </outline>
</glyph>
<glyph name="question" format="1">
  <advance width="793"/>
  <unicode hex="003F"/>
  <outline>
    <contour>
      <point x="304" y="324" type="curve"/>
      <point x="412" y="324" type="line"/>
      <point x="445" y="711"/>
      <point x="745" y="606"/>
      <point x="745" y="912" type="curve" smooth="yes"/>
      <point x="745" y="1098"/>
      <point x="600" y="1218"/>
      <point x="401" y="1218" type="curve" smooth="yes"/>
      <point x="216" y="1218"/>
      <point x="51" y="1136"/>
      <point x="47" y="905" type="curve"/>
      <point x="183" y="905" type="line"/>
      <point x="191" y="1041"/>
      <point x="263" y="1108"/>
      <point x="402" y="1108" type="curve" smooth="yes"/>
      <point x="520" y="1108"/>
      <point x="604" y="1031"/>
      <point x="604" y="912" type="curve" smooth="yes"/>
      <point x="604" y="679"/>
      <point x="315" y="776"/>
    </contour>
    <contour>
      <point x="360" y="-15" type="curve" smooth="yes"/>
      <point x="426" y="-15"/>
      <point x="476" y="33"/>
      <point x="476" y="94" type="curve" smooth="yes"/>
      <point x="476" y="154"/>
      <point x="426" y="202"/>
      <point x="360" y="202" type="curve"/>
      <point x="297" y="202"/>
      <point x="246" y="154"/>
      <point x="246" y="94" type="curve" smooth="yes"/>
      <point x="246" y="33"/>
      <point x="297" y="-15"/>
    </contour>
  </outline>
</glyph>
<glyph name="at" format="1">
  <advance width="1454"/>
  <unicode hex="0040"/>
  <outline>
    <contour>
      <point x="786" y="-55" type="curve" smooth="yes"/>
      <point x="966" y="-55"/>
      <point x="1101" y="-9"/>
      <point x="1211" y="76" type="curve"/>
      <point x="1153" y="146" type="line"/>
      <point x="1056" y="72"/>
      <point x="933" y="37"/>
      <point x="786" y="37" type="curve" smooth="yes"/>
      <point x="425" y="37"/>
      <point x="223" y="243"/>
      <point x="223" y="553" type="curve" smooth="yes"/>
      <point x="223" y="881"/>
      <point x="454" y="1119"/>
      <point x="771" y="1119" type="curve" smooth="yes"/>
      <point x="1081" y="1119"/>
      <point x="1238" y="913"/>
      <point x="1238" y="694" type="curve" smooth="yes"/>
      <point x="1238" y="451"/>
      <point x="1068" y="319"/>
      <point x="994" y="320" type="curve" smooth="yes"/>
      <point x="963" y="321"/>
      <point x="958" y="365"/>
      <point x="982" y="473" type="curve" smooth="yes"/>
      <point x="1080" y="928" type="line"/>
      <point x="963" y="928" type="line"/>
      <point x="939" y="800" type="line"/>
      <point x="907" y="897"/>
      <point x="831" y="945"/>
      <point x="740" y="945" type="curve" smooth="yes"/>
      <point x="502" y="945"/>
      <point x="385" y="726"/>
      <point x="385" y="529" type="curve" smooth="yes"/>
      <point x="385" y="330"/>
      <point x="511" y="223"/>
      <point x="646" y="223" type="curve" smooth="yes"/>
      <point x="737" y="223"/>
      <point x="816" y="272"/>
      <point x="871" y="366" type="curve"/>
      <point x="863" y="258"/>
      <point x="909" y="224"/>
      <point x="960" y="223" type="curve" smooth="yes"/>
      <point x="1181" y="220"/>
      <point x="1345" y="443"/>
      <point x="1345" y="695" type="curve" smooth="yes"/>
      <point x="1345" y="951"/>
      <point x="1177" y="1213"/>
      <point x="776" y="1213" type="curve" smooth="yes"/>
      <point x="346" y="1213"/>
      <point x="108" y="880"/>
      <point x="108" y="555" type="curve" smooth="yes"/>
      <point x="108" y="245"/>
      <point x="322" y="-55"/>
    </contour>
    <contour>
      <point x="669" y="315" type="curve" smooth="yes"/>
      <point x="555" y="315"/>
      <point x="500" y="412"/>
      <point x="500" y="527" type="curve" smooth="yes"/>
      <point x="500" y="684"/>
      <point x="584" y="849"/>
      <point x="729" y="849" type="curve" smooth="yes"/>
      <point x="834" y="849"/>
      <point x="902" y="781"/>
      <point x="902" y="663" type="curve" smooth="yes"/>
      <point x="902" y="503"/>
      <point x="802" y="315"/>
    </contour>
  </outline>
</glyph>
<glyph name="A" format="1">
  <advance width="1382"/>
  <unicode hex="0041"/>
  <outline>
    <contour>
      <point x="692" y="1152" type="move" name="top"/>
    </contour>
    <contour>
      <point x="1112" y="0" type="move" name="ogonek"/>
    </contour>
    <contour>
      <point x="56" y="0" type="line"/>
      <point x="517" y="0" type="line"/>
      <point x="517" y="113" type="line"/>
      <point x="361" y="113" type="line"/>
      <point x="475" y="442" type="line"/>
      <point x="888" y="442" type="line"/>
      <point x="1003" y="113" type="line"/>
      <point x="849" y="113" type="line"/>
      <point x="849" y="0" type="line"/>
      <point x="1325" y="0" type="line"/>
      <point x="1325" y="113" type="line"/>
      <point x="1186" y="113" type="line"/>
      <point x="846" y="1040" type="line"/>
      <point x="977" y="1040" type="line"/>
      <point x="977" y="1152" type="line"/>
      <point x="404" y="1152" type="line"/>
      <point x="404" y="1040" type="line"/>
      <point x="533" y="1040" type="line"/>
      <point x="201" y="113" type="line"/>
      <point x="56" y="113" type="line"/>
    </contour>
    <contour>
      <point x="508" y="555" type="line"/>
      <point x="676" y="1038" type="line"/>
      <point x="689" y="1038" type="line"/>
      <point x="855" y="555" type="line"/>
    </contour>
  </outline>
</glyph>
<glyph name="B" format="1">
  <advance width="1180"/>
  <unicode hex="0042"/>
  <outline>
    <contour>
      <point x="519" y="1152" type="move" name="top"/>
    </contour>
    <contour>
      <point x="326" y="0" type="line"/>
      <point x="684" y="0" type="line" smooth="yes"/>
      <point x="996" y="0"/>
      <point x="1102" y="163"/>
      <point x="1102" y="327" type="curve" smooth="yes"/>
      <point x="1102" y="466"/>
      <point x="1022" y="575"/>
      <point x="868" y="614" type="curve"/>
      <point x="972" y="651"/>
      <point x="1042" y="739"/>
      <point x="1042" y="866" type="curve" smooth="yes"/>
      <point x="1042" y="1053"/>
      <point x="903" y="1152"/>
      <point x="644" y="1152" type="curve" smooth="yes"/>
      <point x="326" y="1152" type="line"/>
      <point x="326" y="1040" type="line"/>
      <point x="594" y="1040" type="line" smooth="yes"/>
      <point x="787" y="1040"/>
      <point x="869" y="992"/>
      <point x="869" y="859" type="curve" smooth="yes"/>
      <point x="869" y="738"/>
      <point x="799" y="664"/>
      <point x="629" y="664" type="curve" smooth="yes"/>
      <point x="332" y="664" type="line"/>
      <point x="332" y="547" type="line"/>
      <point x="649" y="547" type="line" smooth="yes"/>
      <point x="838" y="547"/>
      <point x="924" y="460"/>
      <point x="924" y="333" type="curve" smooth="yes"/>
      <point x="924" y="195"/>
      <point x="847" y="113"/>
      <point x="653" y="113" type="curve" smooth="yes"/>
      <point x="326" y="113" type="line"/>
    </contour>
    <component base="uc_main_stem" xOffset="-48"/>
  </outline>
</glyph>
<glyph name="C" format="1">
  <advance width="1359"/>
  <unicode hex="0043"/>
  <outline>
    <contour>
      <point x="714" y="1152" type="move" name="top"/>
    </contour>
    <contour>
      <point x="688" y="0" type="move" name="bot"/>
    </contour>
    <contour>
      <point x="703" y="-22" type="curve" smooth="yes"/>
      <point x="939" y="-21"/>
      <point x="1149" y="61"/>
      <point x="1245" y="315" type="curve"/>
      <point x="1118" y="378" type="line"/>
      <point x="1050" y="180"/>
      <point x="886" y="106"/>
      <point x="714" y="106" type="curve" smooth="yes"/>
      <point x="460" y="106"/>
      <point x="273" y="293"/>
      <point x="273" y="579" type="curve" smooth="yes"/>
      <point x="273" y="843"/>
      <point x="446" y="1046"/>
      <point x="715" y="1046" type="curve" smooth="yes"/>
      <point x="891" y="1046"/>
      <point x="1020" y="974"/>
      <point x="1103" y="799" type="curve"/>
      <point x="1220" y="803" type="line"/>
      <point x="1220" y="1154" type="line"/>
      <point x="1093" y="1154" type="line"/>
      <point x="1093" y="1001" type="line"/>
      <point x="1004" y="1106"/>
      <point x="882" y="1173"/>
      <point x="704" y="1173" type="curve" smooth="yes"/>
      <point x="336" y="1173"/>
      <point x="98" y="923"/>
      <point x="98" y="578" type="curve" smooth="yes"/>
      <point x="98" y="227"/>
      <point x="339" y="-21"/>
    </contour>
  </outline>
</glyph>
<glyph name="D" format="1">
  <advance width="1399"/>
  <unicode hex="0044"/>
  <outline>
    <contour>
      <point x="596" y="1152" type="move" name="top"/>
    </contour>
    <contour>
      <point x="322" y="604" type="move" name="mid"/>
    </contour>
    <contour>
      <point x="128" y="0" type="line"/>
      <point x="703" y="0" type="line" smooth="yes"/>
      <point x="1100" y="0"/>
      <point x="1299" y="243"/>
      <point x="1299" y="589" type="curve" smooth="yes"/>
      <point x="1299" y="872"/>
      <point x="1109" y="1152"/>
      <point x="702" y="1152" type="curve" smooth="yes"/>
      <point x="128" y="1152" type="line"/>
      <point x="128" y="1040" type="line"/>
      <point x="694" y="1040" type="line" smooth="yes"/>
      <point x="992" y="1040"/>
      <point x="1121" y="816"/>
      <point x="1121" y="584" type="curve" smooth="yes"/>
      <point x="1121" y="319"/>
      <point x="995" y="113"/>
      <point x="687" y="113" type="curve" smooth="yes"/>
      <point x="128" y="113" type="line"/>
    </contour>
    <component base="uc_main_stem" xOffset="-45"/>
  </outline>
</glyph>
<glyph name="E" format="1">
  <advance width="1189"/>
  <unicode hex="0045"/>
  <outline>
    <contour>
      <point x="632" y="1152" type="move" name="top"/>
    </contour>
    <contour>
      <point x="703" y="0" type="move" name="ogonek"/>
    </contour>
    <contour>
      <point x="631" y="0" type="move" name="bot"/>
    </contour>
    <contour>
      <point x="765" y="405" type="line"/>
      <point x="851" y="405" type="line"/>
      <point x="851" y="789" type="line"/>
      <point x="765" y="789" type="line"/>
      <point x="765" y="657" type="line"/>
      <point x="336" y="657" type="line"/>
      <point x="336" y="538" type="line"/>
      <point x="765" y="538" type="line"/>
    </contour>
    <contour>
      <point x="326" y="0" type="line"/>
      <point x="1094" y="0" type="line"/>
      <point x="1094" y="349" type="line"/>
      <point x="960" y="349" type="line"/>
      <point x="960" y="113" type="line"/>
      <point x="326" y="113" type="line"/>
    </contour>
    <contour>
      <point x="952" y="810" type="line"/>
      <point x="1085" y="810" type="line"/>
      <point x="1085" y="1152" type="line"/>
      <point x="326" y="1152" type="line"/>
      <point x="326" y="1040" type="line"/>
      <point x="952" y="1040" type="line"/>
    </contour>
    <component base="uc_main_stem" xOffset="-48"/>
  </outline>
</glyph>
<glyph name="G" format="1">
  <advance width="1401"/>
  <unicode hex="0047"/>
  <outline>
    <contour>
      <point x="720" y="1152" type="move" name="top"/>
    </contour>
    <contour>
      <point x="711" y="0" type="move" name="bot"/>
    </contour>
    <contour>
      <point x="731" y="-20" type="curve" smooth="yes"/>
      <point x="1056" y="-20"/>
      <point x="1309" y="138"/>
      <point x="1312" y="584" type="curve"/>
      <point x="899" y="584" type="line"/>
      <point x="899" y="464" type="line"/>
      <point x="1140" y="464" type="line"/>
      <point x="1134" y="220"/>
      <point x="962" y="112"/>
      <point x="738" y="108" type="curve" smooth="yes"/>
      <point x="459" y="108"/>
      <point x="285" y="294"/>
      <point x="285" y="590" type="curve" smooth="yes"/>
      <point x="285" y="871"/>
      <point x="458" y="1047"/>
      <point x="734" y="1047" type="curve" smooth="yes"/>
      <point x="915" y="1047"/>
      <point x="1058" y="959"/>
      <point x="1133" y="793" type="curve"/>
      <point x="1256" y="793" type="line"/>
      <point x="1256" y="1155" type="line"/>
      <point x="1118" y="1155" type="line"/>
      <point x="1118" y="1011" type="line"/>
      <point x="1028" y="1112"/>
      <point x="896" y="1174"/>
      <point x="728" y="1174" type="curve" smooth="yes"/>
      <point x="356" y="1174"/>
      <point x="98" y="949"/>
      <point x="98" y="590" type="curve" smooth="yes"/>
      <point x="98" y="215"/>
      <point x="349" y="-20"/>
    </contour>
  </outline>
</glyph>
<glyph name="H" format="1">
  <advance width="1424"/>
  <unicode hex="0048"/>
  <outline>
    <contour>
      <point x="718" y="1152" type="move" name="top"/>
    </contour>
    <contour>
      <point x="708" y="0" type="move" name="bot"/>
    </contour>
    <contour>
      <point x="333" y="532" type="line"/>
      <point x="1102" y="532" type="line"/>
      <point x="1102" y="654" type="line"/>
      <point x="334" y="654" type="line"/>
    </contour>
    <component base="uc_main_stem" xOffset="730"/>
    <component base="uc_main_stem" xOffset="-48"/>
  </outline>
</glyph>
<glyph name="J" format="1">
  <advance width="675"/>
  <unicode hex="004A"/>
  <outline>
    <contour>
      <point x="394" y="1152" type="move" name="top"/>
    </contour>
    <contour>
      <point x="65" y="-228" type="line"/>
      <point x="219" y="-228" type="line" smooth="yes"/>
      <point x="411" y="-228"/>
      <point x="480" y="-123"/>
      <point x="480" y="79" type="curve" smooth="yes"/>
      <point x="480" y="1040" type="line"/>
      <point x="631" y="1040" type="line"/>
      <point x="631" y="1152" type="line"/>
      <point x="148" y="1152" type="line"/>
      <point x="148" y="1040" type="line"/>
      <point x="306" y="1040" type="line"/>
      <point x="306" y="76" type="line" smooth="yes"/>
      <point x="306" y="-25"/>
      <point x="289" y="-91"/>
      <point x="189" y="-91" type="curve" smooth="yes"/>
      <point x="65" y="-91" type="line"/>
    </contour>
  </outline>
</glyph>
<glyph name="K" format="1">
  <advance width="1297"/>
  <unicode hex="004B"/>
  <outline>
    <contour>
      <point x="650" y="1152" type="move" name="top"/>
    </contour>
    <contour>
      <point x="647" y="0" type="move" name="bot"/>
    </contour>
    <contour>
      <point x="741" y="0" type="line"/>
      <point x="1241" y="0" type="line"/>
      <point x="1241" y="113" type="line"/>
      <point x="1087" y="113" type="line"/>
      <point x="586" y="581" type="line"/>
      <point x="1082" y="1040" type="line"/>
      <point x="1231" y="1040" type="line"/>
      <point x="1231" y="1152" type="line"/>
      <point x="748" y="1152" type="line"/>
      <point x="748" y="1040" type="line"/>
      <point x="879" y="1040" type="line"/>
      <point x="378" y="575" type="line"/>
      <point x="873" y="113" type="line"/>
      <point x="741" y="113" type="line"/>
    </contour>
    <component base="uc_main_stem" xOffset="-48"/>
  </outline>
</glyph>
<glyph name="L" format="1">
  <advance width="1075"/>
  <unicode hex="004C"/>
  <outline>
    <contour>
      <point x="742" y="1152" type="move" name="top"/>
    </contour>
    <contour>
      <point x="668" y="804" type="move" name="caron.alt"/>
    </contour>
    <contour>
      <point x="566" y="0" type="move" name="bot"/>
    </contour>
    <contour>
      <point x="324" y="0" type="line"/>
      <point x="1022" y="0" type="line"/>
      <point x="1022" y="462" type="line"/>
      <point x="886" y="462" type="line"/>
      <point x="886" y="109" type="line"/>
      <point x="324" y="109" type="line"/>
    </contour>
    <component base="uc_main_stem" xOffset="-44"/>
  </outline>
</glyph>
<glyph name="M" format="1">
  <advance width="1692"/>
  <unicode hex="004D"/>
  <outline>
    <contour>
      <point x="842" y="1152" type="move" name="top"/>
    </contour>
    <contour>
      <point x="81" y="0" type="line"/>
      <point x="515" y="0" type="line"/>
      <point x="515" y="113" type="line"/>
      <point x="365" y="113" type="line"/>
      <point x="365" y="1013" type="line"/>
      <point x="804" y="57" type="line"/>
      <point x="860" y="57" type="line"/>
      <point x="1294" y="1014" type="line"/>
      <point x="1294" y="113" type="line"/>
      <point x="1144" y="113" type="line"/>
      <point x="1144" y="0" type="line"/>
      <point x="1616" y="0" type="line"/>
      <point x="1616" y="113" type="line"/>
      <point x="1460" y="113" type="line"/>
      <point x="1460" y="1040" type="line"/>
      <point x="1615" y="1040" type="line"/>
      <point x="1615" y="1152" type="line"/>
      <point x="1207" y="1152" type="line"/>
      <point x="852" y="354" type="line"/>
      <point x="483" y="1152" type="line"/>
      <point x="81" y="1152" type="line"/>
      <point x="81" y="1040" type="line"/>
      <point x="237" y="1040" type="line"/>
      <point x="237" y="113" type="line"/>
      <point x="81" y="113" type="line"/>
    </contour>
  </outline>
</glyph>
<glyph name="N" format="1">
  <advance width="1442"/>
  <unicode hex="004E"/>
  <outline>
    <contour>
      <point x="719" y="1152" type="move" name="top"/>
    </contour>
    <contour>
      <point x="719" y="0" type="move" name="bot"/>
    </contour>
    <contour>
      <point x="79" y="0" type="line"/>
      <point x="541" y="0" type="line"/>
      <point x="541" y="113" type="line"/>
      <point x="377" y="113" type="line"/>
      <point x="377" y="977" type="line"/>
      <point x="1056" y="0" type="line"/>
      <point x="1227" y="0" type="line"/>
      <point x="1227" y="1040" type="line"/>
      <point x="1391" y="1040" type="line"/>
      <point x="1391" y="1152" type="line"/>
      <point x="930" y="1152" type="line"/>
      <point x="930" y="1040" type="line"/>
      <point x="1094" y="1040" type="line"/>
      <point x="1094" y="230" type="line"/>
      <point x="448" y="1152" type="line"/>
      <point x="79" y="1152" type="line"/>
      <point x="79" y="1040" type="line"/>
      <point x="245" y="1040" type="line"/>
      <point x="245" y="113" type="line"/>
      <point x="79" y="113" type="line"/>
    </contour>
  </outline>
</glyph>
<glyph name="O" format="1">
  <advance width="1452"/>
  <unicode hex="004F"/>
  <outline>
    <contour>
      <point x="723" y="1152" type="move" name="top"/>
    </contour>
    <contour>
      <point x="790" y="0" type="move" name="ogonek"/>
    </contour>
    <contour>
      <point x="724" y="106" type="curve" smooth="yes"/>
      <point x="455" y="106"/>
      <point x="286" y="318"/>
      <point x="286" y="572" type="curve" smooth="yes"/>
      <point x="286" y="828"/>
      <point x="456" y="1048"/>
      <point x="725" y="1048" type="curve" smooth="yes"/>
      <point x="992" y="1048"/>
      <point x="1164" y="828"/>
      <point x="1164" y="573" type="curve" smooth="yes"/>
      <point x="1164" y="320"/>
      <point x="992" y="106"/>
    </contour>
    <contour>
      <point x="725" y="-22" type="curve" smooth="yes"/>
      <point x="1103" y="-22"/>
      <point x="1352" y="248"/>
      <point x="1352" y="573" type="curve" smooth="yes"/>
      <point x="1352" y="899"/>
      <point x="1102" y="1174"/>
      <point x="724" y="1174" type="curve" smooth="yes"/>
      <point x="349" y="1174"/>
      <point x="100" y="900"/>
      <point x="100" y="573" type="curve" smooth="yes"/>
      <point x="100" y="248"/>
      <point x="348" y="-22"/>
    </contour>
  </outline>
</glyph>
<glyph name="P" format="1">
  <advance width="1148"/>
  <unicode hex="0050"/>
  <outline>
    <contour>
      <point x="590" y="1152" type="move" name="top"/>
    </contour>
    <contour>
      <point x="487" y="476" type="line"/>
      <point x="631" y="476" type="line" smooth="yes"/>
      <point x="924" y="476"/>
      <point x="1081" y="598"/>
      <point x="1081" y="824" type="curve" smooth="yes"/>
      <point x="1081" y="1037"/>
      <point x="929" y="1152"/>
      <point x="643" y="1152" type="curve" smooth="yes"/>
      <point x="329" y="1152" type="line"/>
      <point x="329" y="1040" type="line"/>
      <point x="663" y="1040" type="line" smooth="yes"/>
      <point x="817" y="1040"/>
      <point x="901" y="964"/>
      <point x="902" y="824" type="curve" smooth="yes"/>
      <point x="902" y="671"/>
      <point x="805" y="588"/>
      <point x="625" y="588" type="curve" smooth="yes"/>
      <point x="487" y="588" type="line"/>
    </contour>
    <component base="uc_main_stem" xOffset="-48"/>
  </outline>
</glyph>
<glyph name="Q" format="1">
  <advance width="1447"/>
  <unicode hex="0051"/>
  <outline>
    <contour>
      <point x="1197" y="-262" type="curve"/>
      <point x="1193" y="-147" type="line"/>
      <point x="963" y="-205"/>
      <point x="873" y="-92"/>
      <point x="784" y="38" type="curve"/>
      <point x="636" y="41" type="line"/>
      <point x="761" y="-193"/>
      <point x="944" y="-323"/>
    </contour>
    <component base="O"/>
  </outline>
</glyph>
<glyph name="S" format="1">
  <advance width="1065"/>
  <unicode hex="0053"/>
  <outline>
    <contour>
      <point x="557" y="1152" type="move" name="top"/>
    </contour>
    <contour>
      <point x="602" y="0" type="move" name="bot"/>
    </contour>
    <contour>
      <point x="601" y="-20" type="curve" smooth="yes"/>
      <point x="845" y="-20"/>
      <point x="992" y="130"/>
      <point x="992" y="311" type="curve" smooth="yes"/>
      <point x="992" y="572"/>
      <point x="814" y="625"/>
      <point x="581" y="662" type="curve" smooth="yes"/>
      <point x="400" y="690"/>
      <point x="292" y="728"/>
      <point x="292" y="865" type="curve" smooth="yes"/>
      <point x="292" y="975"/>
      <point x="369" y="1052"/>
      <point x="534" y="1052" type="curve" smooth="yes"/>
      <point x="657" y="1052"/>
      <point x="746" y="1007"/>
      <point x="790" y="931" type="curve" smooth="yes"/>
      <point x="790" y="827" type="line"/>
      <point x="926" y="827" type="line"/>
      <point x="926" y="1156" type="line"/>
      <point x="790" y="1156" type="line"/>
      <point x="790" y="1071" type="line"/>
      <point x="728" y="1139"/>
      <point x="617" y="1174"/>
      <point x="518" y="1174" type="curve" smooth="yes"/>
      <point x="299" y="1174"/>
      <point x="137" y="1070"/>
      <point x="137" y="860" type="curve" smooth="yes"/>
      <point x="137" y="612"/>
      <point x="327" y="555"/>
      <point x="551" y="522" type="curve" smooth="yes"/>
      <point x="735" y="497"/>
      <point x="824" y="451"/>
      <point x="824" y="306" type="curve" smooth="yes"/>
      <point x="824" y="196"/>
      <point x="751" y="104"/>
      <point x="590" y="104" type="curve" smooth="yes"/>
      <point x="438" y="104"/>
      <point x="321" y="172"/>
      <point x="281" y="257" type="curve"/>
      <point x="281" y="389" type="line"/>
      <point x="143" y="389" type="line"/>
      <point x="143" y="-1" type="line"/>
      <point x="281" y="-1" type="line"/>
      <point x="281" y="109" type="line"/>
      <point x="352" y="25"/>
      <point x="464" y="-20"/>
    </contour>
  </outline>
</glyph>
<glyph name="U" format="1">
  <advance width="1364"/>
  <unicode hex="0055"/>
  <outline>
    <contour>
      <point x="701" y="1152" type="move" name="top"/>
    </contour>
    <contour>
      <point x="768" y="0" type="move" name="ogonek"/>
    </contour>
    <contour>
      <point x="688" y="-20" type="curve" smooth="yes"/>
      <point x="970" y="-20"/>
      <point x="1169" y="118"/>
      <point x="1169" y="406" type="curve" smooth="yes"/>
      <point x="1169" y="1040" type="line"/>
      <point x="1324" y="1040" type="line"/>
      <point x="1324" y="1152" type="line"/>
      <point x="871" y="1152" type="line"/>
      <point x="871" y="1040" type="line"/>
      <point x="1022" y="1040" type="line"/>
      <point x="1022" y="400" type="line" smooth="yes"/>
      <point x="1022" y="216"/>
      <point x="902" y="108"/>
      <point x="692" y="108" type="curve" smooth="yes"/>
      <point x="494" y="108"/>
      <point x="380" y="217"/>
      <point x="380" y="397" type="curve" smooth="yes"/>
      <point x="380" y="1040" type="line"/>
      <point x="534" y="1040" type="line"/>
      <point x="534" y="1152" type="line"/>
      <point x="54" y="1152" type="line"/>
      <point x="54" y="1040" type="line"/>
      <point x="207" y="1040" type="line"/>
      <point x="207" y="421" type="line" smooth="yes"/>
      <point x="207" y="169"/>
      <point x="340" y="-20"/>
    </contour>
  </outline>
</glyph>
<glyph name="V" format="1">
  <advance width="1328"/>
  <unicode hex="0056"/>
  <outline>
    <contour>
      <point x="592" y="0" type="line"/>
      <point x="744" y="0" type="line"/>
      <point x="1151" y="1040" type="line"/>
      <point x="1294" y="1040" type="line"/>
      <point x="1294" y="1152" type="line"/>
      <point x="849" y="1152" type="line"/>
      <point x="849" y="1040" type="line"/>
      <point x="997" y="1040" type="line"/>
      <point x="679" y="190" type="line"/>
      <point x="359" y="1040" type="line"/>
      <point x="509" y="1040" type="line"/>
      <point x="509" y="1152" type="line"/>
      <point x="33" y="1152" type="line"/>
      <point x="33" y="1040" type="line"/>
      <point x="179" y="1040" type="line"/>
    </contour>
  </outline>
</glyph>
<glyph name="W" format="1">
  <advance width="1885"/>
  <unicode hex="0057"/>
  <outline>
    <contour>
      <point x="956" y="1152" type="move" name="top"/>
    </contour>
    <contour>
      <point x="515" y="0" type="line"/>
      <point x="663" y="0" type="line"/>
      <point x="944" y="860" type="line"/>
      <point x="1232" y="0" type="line"/>
      <point x="1382" y="0" type="line"/>
      <point x="1696" y="1040" type="line"/>
      <point x="1838" y="1040" type="line"/>
      <point x="1838" y="1152" type="line"/>
      <point x="1405" y="1152" type="line"/>
      <point x="1405" y="1040" type="line"/>
      <point x="1552" y="1040" type="line"/>
      <point x="1316" y="221" type="line"/>
      <point x="1016" y="1135" type="line"/>
      <point x="891" y="1135" type="line"/>
      <point x="600" y="221" type="line"/>
      <point x="356" y="1040" type="line"/>
      <point x="504" y="1040" type="line"/>
      <point x="504" y="1152" type="line"/>
      <point x="47" y="1152" type="line"/>
      <point x="47" y="1040" type="line"/>
      <point x="190" y="1040" type="line"/>
    </contour>
  </outline>
</glyph>
<glyph name="X" format="1">
  <advance width="1306"/>
  <unicode hex="0058"/>
  <outline>
    <contour>
      <point x="59" y="0" type="line"/>
      <point x="522" y="0" type="line"/>
      <point x="522" y="107" type="line"/>
      <point x="378" y="107" type="line"/>
      <point x="637" y="493" type="line"/>
      <point x="899" y="107" type="line"/>
      <point x="755" y="107" type="line"/>
      <point x="755" y="0" type="line"/>
      <point x="1248" y="0" type="line"/>
      <point x="1248" y="107" type="line"/>
      <point x="1085" y="107" type="line"/>
      <point x="740" y="593" type="line"/>
      <point x="1061" y="1045" type="line"/>
      <point x="1219" y="1045" type="line"/>
      <point x="1219" y="1152" type="line"/>
      <point x="765" y="1152" type="line"/>
      <point x="765" y="1045" type="line"/>
      <point x="905" y="1045" type="line"/>
      <point x="661" y="689" type="line"/>
      <point x="414" y="1045" type="line"/>
      <point x="553" y="1045" type="line"/>
      <point x="553" y="1152" type="line"/>
      <point x="72" y="1152" type="line"/>
      <point x="72" y="1045" type="line"/>
      <point x="230" y="1045" type="line"/>
      <point x="556" y="590" type="line"/>
      <point x="220" y="107" type="line"/>
      <point x="59" y="107" type="line"/>
    </contour>
  </outline>
</glyph>
<glyph name="Y" format="1">
  <advance width="1298"/>
  <unicode hex="0059"/>
  <outline>
    <contour>
      <point x="662" y="1152" type="move" name="top"/>
    </contour>
    <contour>
      <point x="398" y="0" type="line"/>
      <point x="909" y="0" type="line"/>
      <point x="909" y="113" type="line"/>
      <point x="738" y="113" type="line"/>
      <point x="738" y="497" type="line"/>
      <point x="1109" y="1040" type="line"/>
      <point x="1267" y="1040" type="line"/>
      <point x="1267" y="1152" type="line"/>
      <point x="806" y="1152" type="line"/>
      <point x="806" y="1040" type="line"/>
      <point x="954" y="1040" type="line"/>
      <point x="667" y="608" type="line"/>
      <point x="370" y="1040" type="line"/>
      <point x="516" y="1040" type="line"/>
      <point x="516" y="1152" type="line"/>
      <point x="30" y="1152" type="line"/>
      <point x="30" y="1040" type="line"/>
      <point x="183" y="1040" type="line"/>
      <point x="566" y="496" type="line"/>
      <point x="566" y="113" type="line"/>
      <point x="398" y="113" type="line"/>
    </contour>
  </outline>
</glyph>
<glyph name="Z" format="1">
  <advance width="1175"/>
  <unicode hex="005A"/>
  <outline>
    <contour>
      <point x="623" y="1152" type="move" name="top"/>
    </contour>
    <contour>
      <point x="126" y="0" type="line"/>
      <point x="1070" y="0" type="line"/>
      <point x="1070" y="401" type="line"/>
      <point x="943" y="401" type="line"/>
      <point x="943" y="113" type="line"/>
      <point x="331" y="113" type="line"/>
      <point x="1055" y="1044" type="line"/>
      <point x="1055" y="1152" type="line"/>
      <point x="157" y="1152" type="line"/>
      <point x="157" y="771" type="line"/>
      <point x="285" y="771" type="line"/>
      <point x="285" y="1040" type="line"/>
      <point x="844" y="1040" type="line"/>
      <point x="126" y="121" type="line"/>
    </contour>
  </outline>
</glyph>
<glyph name="bracketright" format="1">
  <advance width="591"/>
  <unicode hex="005D"/>
  <outline>
    <contour>
      <point x="75" y="-177" type="line"/>
      <point x="419" y="-177" type="line"/>
      <point x="419" y="1247" type="line"/>
      <point x="75" y="1247" type="line"/>
      <point x="75" y="1128" type="line"/>
      <point x="249" y="1128" type="line"/>
      <point x="249" y="-57" type="line"/>
      <point x="75" y="-57" type="line"/>
    </contour>
  </outline>
</glyph>
<glyph name="asciicircum" format="1">
  <advance width="927"/>
  <unicode hex="005E"/>
  <outline>
    <contour>
      <point x="75" y="651" type="line"/>
      <point x="220" y="651" type="line"/>
      <point x="466" y="1119" type="line"/>
      <point x="705" y="651" type="line"/>
      <point x="850" y="651" type="line"/>
      <point x="538" y="1248" type="line"/>
      <point x="394" y="1248" type="line"/>
    </contour>
  </outline>
</glyph>
<glyph name="grave" format="1">
  <advance width="337"/>
  <unicode hex="0060"/>
  <outline>
    <contour>
      <point x="223" y="804" type="move" name="_top"/>
    </contour>
    <contour>
      <point x="171" y="975" type="line"/>
      <point x="272" y="975" type="line"/>
      <point x="161" y="1276" type="line"/>
      <point x="-18" y="1276" type="line"/>
    </contour>
  </outline>
</glyph>
<glyph name="a" format="1">
  <advance width="933"/>
  <unicode hex="0061"/>
  <outline>
    <contour>
      <point x="443" y="804" type="move" name="top"/>
    </contour>
    <contour>
      <point x="750" y="0" type="move" name="ogonek"/>
    </contour>
    <contour>
      <point x="355" y="-22" type="curve" smooth="yes"/>
      <point x="465" y="-22"/>
      <point x="545" y="9"/>
      <point x="629" y="71" type="curve"/>
      <point x="629" y="71"/>
      <point x="639" y="-2"/>
      <point x="639" y="0" type="curve"/>
      <point x="904" y="0" type="line"/>
      <point x="904" y="112" type="line"/>
      <point x="778" y="112" type="line"/>
      <point x="778" y="540" type="line" smooth="yes"/>
      <point x="778" y="716"/>
      <point x="648" y="826"/>
      <point x="438" y="826" type="curve" smooth="yes"/>
      <point x="338" y="826"/>
      <point x="204" y="796"/>
      <point x="110" y="736" type="curve"/>
      <point x="158" y="634" type="line"/>
      <point x="245" y="682"/>
      <point x="359" y="708"/>
      <point x="433" y="708" type="curve" smooth="yes"/>
      <point x="548" y="708"/>
      <point x="621" y="650"/>
      <point x="621" y="527" type="curve" smooth="yes"/>
      <point x="621" y="445" type="line"/>
      <point x="546" y="459"/>
      <point x="473" y="470"/>
      <point x="402" y="470" type="curve" smooth="yes"/>
      <point x="224" y="470"/>
      <point x="76" y="402"/>
      <point x="76" y="217" type="curve" smooth="yes"/>
      <point x="76" y="83"/>
      <point x="185" y="-22"/>
    </contour>
    <contour>
      <point x="376" y="85" type="curve" smooth="yes"/>
      <point x="282" y="85"/>
      <point x="227" y="146"/>
      <point x="227" y="225" type="curve" smooth="yes"/>
      <point x="227" y="343"/>
      <point x="319" y="375"/>
      <point x="413" y="375" type="curve" smooth="yes"/>
      <point x="499" y="375"/>
      <point x="566" y="362"/>
      <point x="621" y="350" type="curve"/>
      <point x="621" y="174" type="line"/>
      <point x="538" y="114"/>
      <point x="458" y="85"/>
    </contour>
  </outline>
</glyph>
<glyph name="c" format="1">
  <advance width="960"/>
  <unicode hex="0063"/>
  <outline>
    <contour>
      <point x="500" y="804" type="move" name="top"/>
    </contour>
    <contour>
      <point x="491" y="0" type="move" name="bot"/>
    </contour>
    <contour>
      <point x="491" y="-20" type="curve" smooth="yes"/>
      <point x="662" y="-20"/>
      <point x="787" y="50"/>
      <point x="867" y="153" type="curve"/>
      <point x="803" y="245" type="line"/>
      <point x="728" y="159"/>
      <point x="645" y="96"/>
      <point x="494" y="100" type="curve" smooth="yes"/>
      <point x="329" y="103"/>
      <point x="211" y="233"/>
      <point x="211" y="411" type="curve" smooth="yes"/>
      <point x="211" y="581"/>
      <point x="330" y="703"/>
      <point x="497" y="707" type="curve" smooth="yes"/>
      <point x="632" y="712"/>
      <point x="729" y="640"/>
      <point x="754" y="520" type="curve"/>
      <point x="868" y="520" type="line"/>
      <point x="868" y="808" type="line"/>
      <point x="741" y="808" type="line"/>
      <point x="741" y="712" type="line"/>
      <point x="709" y="776"/>
      <point x="600" y="826"/>
      <point x="492" y="826" type="curve" smooth="yes"/>
      <point x="236" y="826"/>
      <point x="54" y="653"/>
      <point x="54" y="408" type="curve" smooth="yes"/>
      <point x="54" y="157"/>
      <point x="235" y="-20"/>
    </contour>
  </outline>
</glyph>
<glyph name="e" format="1">
  <advance width="942"/>
  <unicode hex="0065"/>
  <outline>
    <contour>
      <point x="544" y="0" type="move" name="ogonek"/>
    </contour>
    <contour>
      <point x="484" y="0" type="move" name="bot"/>
    </contour>
    <contour>
      <point x="494" y="-20" type="curve" smooth="yes"/>
      <point x="645" y="-20"/>
      <point x="785" y="45"/>
      <point x="860" y="129" type="curve"/>
      <point x="803" y="224" type="line"/>
      <point x="726" y="154"/>
      <point x="622" y="101"/>
      <point x="500" y="101" type="curve" smooth="yes"/>
      <point x="350" y="101"/>
      <point x="225" y="205"/>
      <point x="215" y="370" type="curve"/>
      <point x="873" y="370" type="line"/>
      <point x="871" y="656"/>
      <point x="695" y="826"/>
      <point x="478" y="826" type="curve" smooth="yes"/>
      <point x="238" y="826"/>
      <point x="50" y="660"/>
      <point x="50" y="401" type="curve" smooth="yes"/>
      <point x="50" y="149"/>
      <point x="242" y="-20"/>
    </contour>
    <contour>
      <point x="217" y="466" type="line"/>
      <point x="232" y="611"/>
      <point x="343" y="710"/>
      <point x="477" y="710" type="curve" smooth="yes"/>
      <point x="600" y="710"/>
      <point x="702" y="619"/>
      <point x="716" y="466" type="curve"/>
    </contour>
  </outline>
</glyph>
<glyph name="f" format="1">
  <advance width="702"/>
  <unicode hex="0066"/>
  <outline>
    <contour>
      <point x="389" y="1132" type="move" name="top"/>
    </contour>
    <contour>
      <point x="82" y="0" type="line"/>
      <point x="608" y="0" type="line"/>
      <point x="608" y="113" type="line"/>
      <point x="401" y="113" type="line"/>
      <point x="401" y="692" type="line"/>
      <point x="608" y="692" type="line"/>
      <point x="608" y="804" type="line"/>
      <point x="401" y="804" type="line"/>
      <point x="401" y="971" type="line" smooth="yes"/>
      <point x="401" y="1069"/>
      <point x="436" y="1111"/>
      <point x="496" y="1111" type="curve" smooth="yes"/>
      <point x="561" y="1111"/>
      <point x="583" y="1066"/>
      <point x="594" y="997" type="curve"/>
      <point x="716" y="1030" type="line"/>
      <point x="706" y="1175"/>
      <point x="601" y="1222"/>
      <point x="490" y="1222" type="curve" smooth="yes"/>
      <point x="320" y="1222"/>
      <point x="242" y="1123"/>
      <point x="242" y="973" type="curve" smooth="yes"/>
      <point x="242" y="804" type="line"/>
      <point x="85" y="804" type="line"/>
      <point x="85" y="692" type="line"/>
      <point x="242" y="692" type="line"/>
      <point x="242" y="113" type="line"/>
      <point x="82" y="113" type="line"/>
    </contour>
  </outline>
</glyph>
<glyph name="g" format="1">
  <advance width="1053"/>
  <unicode hex="0067"/>
  <outline>
    <contour>
      <point x="505" y="804" type="move" name="top"/>
    </contour>
    <contour>
      <point x="481" y="-386" type="curve" smooth="yes"/>
      <point x="717" y="-386"/>
      <point x="897" y="-282"/>
      <point x="897" y="-18" type="curve" smooth="yes"/>
      <point x="897" y="692" type="line"/>
      <point x="1032" y="692" type="line"/>
      <point x="1032" y="804" type="line"/>
      <point x="739" y="804" type="line"/>
      <point x="739" y="663" type="line"/>
      <point x="740" y="-28" type="line" smooth="yes"/>
      <point x="740" y="-189"/>
      <point x="640" y="-259"/>
      <point x="478" y="-259" type="curve" smooth="yes"/>
      <point x="396" y="-259"/>
      <point x="303" y="-242"/>
      <point x="209" y="-213" type="curve"/>
      <point x="177" y="-335" type="line"/>
      <point x="278" y="-367"/>
      <point x="384" y="-386"/>
    </contour>
    <component base="lc_bowl_left" yScale="0.98" xOffset="-88" yOffset="15"/>
  </outline>
</glyph>
<glyph name="h" format="1">
  <advance width="1071"/>
  <unicode hex="0068"/>
  <outline>
    <contour>
      <point x="623" y="1064" type="move" name="top"/>
    </contour>
    <contour>
      <point x="270" y="934" type="move" name="mid"/>
    </contour>
    <component base="lc_xheight_curved_stem" xOffset="-84"/>
    <component base="lc_ascender_stem" xOffset="-64"/>
  </outline>
</glyph>
<glyph name="k" format="1">
  <advance width="1023"/>
  <unicode hex="006B"/>
  <outline>
    <contour>
      <point x="706" y="960" type="move" name="top"/>
    </contour>
    <contour>
      <point x="548" y="0" type="move" name="bot"/>
    </contour>
    <contour>
      <point x="753" y="0" type="line"/>
      <point x="992" y="0" type="line"/>
      <point x="992" y="113" type="line"/>
      <point x="833" y="113" type="line"/>
      <point x="522" y="420" type="line"/>
      <point x="866" y="692" type="line"/>
      <point x="987" y="692" type="line"/>
      <point x="987" y="804" type="line"/>
      <point x="555" y="804" type="line"/>
      <point x="555" y="692" type="line"/>
      <point x="703" y="692" type="line"/>
      <point x="341" y="416" type="line"/>
    </contour>
    <component base="lc_ascender_stem" xOffset="-54"/>
  </outline>
</glyph>
<glyph name="o" format="1">
  <advance width="976"/>
  <unicode hex="006F"/>
  <outline>
    <contour>
      <point x="485" y="804" type="move" name="top"/>
    </contour>
    <contour>
      <point x="515" y="0" type="move" name="ogonek"/>
    </contour>
    <contour>
      <point x="487" y="102" type="curve" smooth="yes"/>
      <point x="326" y="102"/>
      <point x="213" y="227"/>
      <point x="213" y="404" type="curve" smooth="yes"/>
      <point x="213" y="578"/>
      <point x="326" y="702"/>
      <point x="486" y="702" type="curve" smooth="yes"/>
      <point x="647" y="702"/>
      <point x="761" y="579"/>
      <point x="761" y="405" type="curve" smooth="yes"/>
      <point x="761" y="228"/>
      <point x="647" y="102"/>
    </contour>
    <contour>
      <point x="486" y="-22" type="curve" smooth="yes"/>
      <point x="743" y="-22"/>
      <point x="925" y="155"/>
      <point x="925" y="405" type="curve" smooth="yes"/>
      <point x="925" y="652"/>
      <point x="744" y="826"/>
      <point x="487" y="826" type="curve" smooth="yes"/>
      <point x="231" y="826"/>
      <point x="50" y="651"/>
      <point x="50" y="405" type="curve" smooth="yes"/>
      <point x="50" y="154"/>
      <point x="230" y="-22"/>
    </contour>
  </outline>
</glyph>
<glyph name="q" format="1">
  <advance width="1088"/>
  <unicode hex="0071"/>
  <outline>
    <contour>
      <point x="586" y="-330" type="line"/>
      <point x="1047" y="-330" type="line"/>
      <point x="1047" y="-211" type="line"/>
      <point x="902" y="-211" type="line"/>
      <point x="902" y="692" type="line"/>
      <point x="1044" y="692" type="line"/>
      <point x="1044" y="804" type="line"/>
      <point x="747" y="804" type="line"/>
      <point x="744" y="697" type="line"/>
      <point x="744" y="-211" type="line"/>
      <point x="586" y="-211" type="line"/>
    </contour>
    <component base="lc_bowl_left" xOffset="-95"/>
  </outline>
</glyph>
<glyph name="r" format="1">
  <advance width="791"/>
  <unicode hex="0072"/>
  <outline>
    <contour>
      <point x="460" y="804" type="move" name="top"/>
    </contour>
    <contour>
      <point x="302" y="0" type="move" name="bot"/>
    </contour>
    <contour>
      <point x="380" y="431" type="line"/>
      <point x="380" y="588"/>
      <point x="466" y="677"/>
      <point x="570" y="677" type="curve" smooth="yes"/>
      <point x="619" y="677"/>
      <point x="665" y="662"/>
      <point x="712" y="631" type="curve"/>
      <point x="750" y="773" type="line"/>
      <point x="694" y="799"/>
      <point x="639" y="815"/>
      <point x="584" y="815" type="curve" smooth="yes"/>
      <point x="480" y="815"/>
      <point x="387" y="748"/>
      <point x="343" y="542" type="curve"/>
    </contour>
    <component base="lc_xheight_stem" xOffset="-55"/>
  </outline>
</glyph>
<glyph name="s" format="1">
  <advance width="884"/>
  <unicode hex="0073"/>
  <outline>
    <contour>
      <point x="435" y="804" type="move" name="top"/>
    </contour>
    <contour>
      <point x="474" y="0" type="move" name="bot"/>
    </contour>
    <contour>
      <point x="500" y="-21" type="curve" smooth="yes"/>
      <point x="651" y="-21"/>
      <point x="802" y="49"/>
      <point x="807" y="203" type="curve" smooth="yes"/>
      <point x="813" y="388"/>
      <point x="689" y="430"/>
      <point x="531" y="468" type="curve" smooth="yes"/>
      <point x="429" y="492" type="line" smooth="yes"/>
      <point x="320" y="519"/>
      <point x="277" y="544"/>
      <point x="277" y="605" type="curve" smooth="yes"/>
      <point x="277" y="677"/>
      <point x="356" y="711"/>
      <point x="441" y="711" type="curve" smooth="yes"/>
      <point x="517" y="711"/>
      <point x="608" y="682"/>
      <point x="650" y="632" type="curve"/>
      <point x="664" y="531" type="line"/>
      <point x="776" y="531" type="line"/>
      <point x="776" y="808" type="line"/>
      <point x="649" y="808" type="line"/>
      <point x="649" y="749" type="line"/>
      <point x="594" y="800"/>
      <point x="496" y="826"/>
      <point x="415" y="826" type="curve" smooth="yes"/>
      <point x="246" y="826"/>
      <point x="119" y="743"/>
      <point x="119" y="600" type="curve" smooth="yes"/>
      <point x="119" y="445"/>
      <point x="211" y="397"/>
      <point x="365" y="360" type="curve" smooth="yes"/>
      <point x="476" y="335" type="line" smooth="yes"/>
      <point x="602" y="306"/>
      <point x="656" y="287"/>
      <point x="656" y="203" type="curve"/>
      <point x="657" y="128"/>
      <point x="579" y="87"/>
      <point x="480" y="87" type="curve" smooth="yes"/>
      <point x="387" y="87"/>
      <point x="288" y="124"/>
      <point x="240" y="195" type="curve"/>
      <point x="231" y="281" type="line"/>
      <point x="121" y="281" type="line"/>
      <point x="121" y="0" type="line"/>
      <point x="244" y="0" type="line"/>
      <point x="244" y="68" type="line"/>
      <point x="299" y="13"/>
      <point x="398" y="-21"/>
    </contour>
  </outline>
</glyph>
<glyph name="t" format="1">
  <advance width="619"/>
  <unicode hex="0074"/>
  <outline>
    <contour>
      <point x="257" y="1072" type="move" name="top"/>
    </contour>
    <contour>
      <point x="391" y="3" type="move" name="bot"/>
    </contour>
    <contour>
      <point x="271" y="477" type="move" name="mid"/>
    </contour>
    <contour>
      <point x="405" y="0" type="curve" smooth="yes"/>
      <point x="560" y="0" type="line"/>
      <point x="560" y="112" type="line"/>
      <point x="434" y="112" type="line" smooth="yes"/>
      <point x="357" y="112"/>
      <point x="330" y="149"/>
      <point x="330" y="248" type="curve" smooth="yes"/>
      <point x="330" y="692" type="line"/>
      <point x="542" y="692" type="line"/>
      <point x="543" y="804" type="line"/>
      <point x="330" y="804" type="line"/>
      <point x="330" y="1140" type="line"/>
      <point x="174" y="1079" type="line"/>
      <point x="174" y="804" type="line"/>
      <point x="41" y="804" type="line"/>
      <point x="41" y="692" type="line"/>
      <point x="173" y="692" type="line"/>
      <point x="173" y="240" type="line" smooth="yes"/>
      <point x="173" y="78"/>
      <point x="251" y="0"/>
    </contour>
  </outline>
</glyph>
<glyph name="u" format="1">
  <advance width="1046"/>
  <unicode hex="0075"/>
  <outline>
    <contour>
      <point x="490" y="804" type="move" name="top"/>
    </contour>
    <contour>
      <point x="853" y="0" type="move" name="ogonek"/>
    </contour>
    <contour>
      <point x="425" y="-20" type="curve" smooth="yes"/>
      <point x="529" y="-20"/>
      <point x="627" y="23"/>
      <point x="719" y="97" type="curve"/>
      <point x="724" y="0" type="line"/>
      <point x="1025" y="0" type="line"/>
      <point x="1025" y="113" type="line"/>
      <point x="875" y="113" type="line"/>
      <point x="875" y="804" type="line"/>
      <point x="575" y="804" type="line"/>
      <point x="575" y="692" type="line"/>
      <point x="718" y="692" type="line"/>
      <point x="718" y="219" type="line"/>
      <point x="643" y="147"/>
      <point x="558" y="105"/>
      <point x="462" y="105" type="curve" smooth="yes"/>
      <point x="359" y="105"/>
      <point x="313" y="169"/>
      <point x="313" y="269" type="curve" smooth="yes"/>
      <point x="313" y="804" type="line"/>
      <point x="21" y="804" type="line"/>
      <point x="21" y="692" type="line"/>
      <point x="156" y="692" type="line"/>
      <point x="156" y="252" type="line" smooth="yes"/>
      <point x="156" y="100"/>
      <point x="234" y="-20"/>
    </contour>
  </outline>
</glyph>
<glyph name="v" format="1">
  <advance width="1053"/>
  <unicode hex="0076"/>
  <outline>
    <contour>
      <point x="456" y="0" type="line"/>
      <point x="597" y="0" type="line"/>
      <point x="910" y="692" type="line"/>
      <point x="1039" y="692" type="line"/>
      <point x="1039" y="804" type="line"/>
      <point x="630" y="804" type="line"/>
      <point x="630" y="692" type="line"/>
      <point x="757" y="692" type="line"/>
      <point x="539" y="162" type="line"/>
      <point x="319" y="692" type="line"/>
      <point x="448" y="692" type="line"/>
      <point x="448" y="804" type="line"/>
      <point x="14" y="804" type="line"/>
      <point x="14" y="692" type="line"/>
      <point x="150" y="692" type="line"/>
    </contour>
  </outline>
</glyph>
<glyph name="w" format="1">
  <advance width="1458"/>
  <unicode hex="0077"/>
  <outline>
    <contour>
      <point x="737" y="804" type="move" name="top"/>
    </contour>
    <contour>
      <point x="375" y="0" type="line"/>
      <point x="527" y="0" type="line"/>
      <point x="730" y="562" type="line"/>
      <point x="934" y="0" type="line"/>
      <point x="1086" y="0" type="line"/>
      <point x="1327" y="692" type="line"/>
      <point x="1436" y="692" type="line"/>
      <point x="1436" y="804" type="line"/>
      <point x="1074" y="804" type="line"/>
      <point x="1074" y="692" type="line"/>
      <point x="1184" y="692" type="line"/>
      <point x="1011" y="154" type="line"/>
      <point x="818" y="692" type="line"/>
      <point x="932" y="692" type="line"/>
      <point x="932" y="804" type="line"/>
      <point x="534" y="804" type="line"/>
      <point x="534" y="692" type="line"/>
      <point x="647" y="692" type="line"/>
      <point x="461" y="156" type="line"/>
      <point x="276" y="692" type="line"/>
      <point x="383" y="692" type="line"/>
      <point x="383" y="804" type="line"/>
      <point x="17" y="804" type="line"/>
      <point x="17" y="692" type="line"/>
      <point x="121" y="692" type="line"/>
    </contour>
  </outline>
</glyph>
<glyph name="x" format="1">
  <advance width="1030"/>
  <unicode hex="0078"/>
  <outline>
    <contour>
      <point x="49" y="0" type="line"/>
      <point x="441" y="0" type="line"/>
      <point x="441" y="113" type="line"/>
      <point x="317" y="113" type="line"/>
      <point x="510" y="335" type="line"/>
      <point x="711" y="113" type="line"/>
      <point x="578" y="113" type="line"/>
      <point x="578" y="0" type="line"/>
      <point x="991" y="0" type="line"/>
      <point x="991" y="113" type="line"/>
      <point x="871" y="113" type="line"/>
      <point x="601" y="418" type="line"/>
      <point x="844" y="692" type="line"/>
      <point x="988" y="692" type="line"/>
      <point x="988" y="804" type="line"/>
      <point x="583" y="804" type="line"/>
      <point x="583" y="692" type="line"/>
      <point x="699" y="692" type="line"/>
      <point x="522" y="486" type="line"/>
      <point x="342" y="692" type="line"/>
      <point x="460" y="692" type="line"/>
      <point x="460" y="804" type="line"/>
      <point x="51" y="804" type="line"/>
      <point x="51" y="692" type="line"/>
      <point x="181" y="692" type="line"/>
      <point x="433" y="411" type="line"/>
      <point x="169" y="113" type="line"/>
      <point x="49" y="113" type="line"/>
    </contour>
  </outline>
</glyph>
<glyph name="y" format="1">
  <advance width="1061"/>
  <unicode hex="0079"/>
  <outline>
    <contour>
      <point x="546" y="804" type="move" name="top"/>
    </contour>
    <contour>
      <point x="204" y="-330" type="line"/>
      <point x="312" y="-330" type="line" smooth="yes"/>
      <point x="524" y="-330"/>
      <point x="556" y="-236"/>
      <point x="632" y="-44" type="curve" smooth="yes"/>
      <point x="927" y="692" type="line"/>
      <point x="1058" y="692" type="line"/>
      <point x="1058" y="804" type="line"/>
      <point x="633" y="804" type="line"/>
      <point x="633" y="692" type="line"/>
      <point x="771" y="692" type="line"/>
      <point x="560" y="153" type="line"/>
      <point x="323" y="692" type="line"/>
      <point x="440" y="692" type="line"/>
      <point x="440" y="804" type="line"/>
      <point x="15" y="804" type="line"/>
      <point x="15" y="692" type="line"/>
      <point x="163" y="692" type="line"/>
      <point x="460" y="50" type="line"/>
      <point x="525" y="50" type="line"/>
      <point x="485" y="-66" type="line" smooth="yes"/>
      <point x="442" y="-191"/>
      <point x="400" y="-203"/>
      <point x="297" y="-203" type="curve" smooth="yes"/>
      <point x="204" y="-203" type="line"/>
    </contour>
  </outline>
</glyph>
<glyph name="z" format="1">
  <advance width="893"/>
  <unicode hex="007A"/>
  <outline>
    <contour>
      <point x="476" y="804" type="move" name="top"/>
    </contour>
    <contour>
      <point x="103" y="0" type="line"/>
      <point x="811" y="0" type="line"/>
      <point x="811" y="289" type="line"/>
      <point x="689" y="289" type="line"/>
      <point x="689" y="107" type="line"/>
      <point x="286" y="107" type="line"/>
      <point x="799" y="689" type="line"/>
      <point x="799" y="804" type="line"/>
      <point x="111" y="804" type="line"/>
      <point x="111" y="531" type="line"/>
      <point x="230" y="531" type="line"/>
      <point x="230" y="696" type="line"/>
      <point x="616" y="696" type="line"/>
      <point x="103" y="111" type="line"/>
    </contour>
  </outline>
</glyph>
<glyph name="braceleft" format="1">
  <advance width="590"/>
  <unicode hex="007B"/>
  <outline>
    <contour>
      <point x="462" y="-142" type="curve" smooth="yes"/>
      <point x="537" y="-142" type="line"/>
      <point x="537" y="-35" type="line"/>
      <point x="370" y="-35"/>
      <point x="360" y="-9"/>
      <point x="360" y="191" type="curve" smooth="yes"/>
      <point x="360" y="423"/>
      <point x="336" y="524"/>
      <point x="221" y="569" type="curve"/>
      <point x="348" y="618"/>
      <point x="362" y="721"/>
      <point x="362" y="996" type="curve" smooth="yes"/>
      <point x="362" y="1149"/>
      <point x="394" y="1172"/>
      <point x="537" y="1172" type="curve"/>
      <point x="537" y="1279" type="line"/>
      <point x="462" y="1279" type="line"/>
      <point x="223" y="1279"/>
      <point x="222" y="1121"/>
      <point x="222" y="891" type="curve" smooth="yes"/>
      <point x="222" y="718"/>
      <point x="204" y="630"/>
      <point x="66" y="630" type="curve"/>
      <point x="66" y="507" type="line"/>
      <point x="206" y="507"/>
      <point x="222" y="420"/>
      <point x="222" y="247" type="curve" smooth="yes"/>
      <point x="222" y="10"/>
      <point x="225" y="-142"/>
    </contour>
  </outline>
</glyph>
<glyph name="bar" format="1">
  <advance width="465"/>
  <unicode hex="007C"/>
  <outline>
    <contour>
      <point x="171" y="-184" type="line"/>
      <point x="300" y="-184" type="line"/>
      <point x="300" y="1215" type="line"/>
      <point x="171" y="1215" type="line"/>
    </contour>
  </outline>
</glyph>
<glyph name="braceright" format="1">
  <advance width="592"/>
  <unicode hex="007D"/>
  <outline>
    <contour>
      <point x="88" y="-142" type="line"/>
      <point x="164" y="-142" type="line" smooth="yes"/>
      <point x="401" y="-142"/>
      <point x="404" y="10"/>
      <point x="404" y="230" type="curve" smooth="yes"/>
      <point x="404" y="419"/>
      <point x="418" y="507"/>
      <point x="559" y="507" type="curve"/>
      <point x="559" y="630" type="line"/>
      <point x="423" y="630"/>
      <point x="404" y="718"/>
      <point x="404" y="904" type="curve" smooth="yes"/>
      <point x="404" y="1123"/>
      <point x="402" y="1279"/>
      <point x="164" y="1279" type="curve" smooth="yes"/>
      <point x="88" y="1279" type="line"/>
      <point x="88" y="1172" type="line"/>
      <point x="233" y="1172"/>
      <point x="265" y="1149"/>
      <point x="265" y="996" type="curve" smooth="yes"/>
      <point x="265" y="721"/>
      <point x="279" y="618"/>
      <point x="406" y="569" type="curve"/>
      <point x="289" y="524"/>
      <point x="266" y="421"/>
      <point x="266" y="186" type="curve" smooth="yes"/>
      <point x="266" y="-10"/>
      <point x="256" y="-35"/>
      <point x="88" y="-35" type="curve"/>
    </contour>
  </outline>
</glyph>
<glyph name="asciitilde" format="1">
  <advance width="1087"/>
  <unicode hex="007E"/>
  <outline>
    <contour>
      <point x="791" y="627" type="curve"/>
      <point x="681" y="620"/>
      <point x="557" y="709"/>
      <point x="417" y="709" type="curve" smooth="yes"/>
      <point x="315" y="709"/>
      <point x="231" y="698"/>
      <point x="155" y="636" type="curve" smooth="yes"/>
      <point x="142" y="637"/>
      <point x="149" y="533"/>
      <point x="131" y="522" type="curve"/>
      <point x="184" y="576"/>
      <point x="230" y="591"/>
      <point x="290" y="591" type="curve"/>
      <point x="416" y="599"/>
      <point x="541" y="503"/>
      <point x="678" y="502" type="curve" smooth="yes"/>
      <point x="771" y="500"/>
      <point x="851" y="515"/>
      <point x="933" y="573" type="curve" smooth="yes"/>
      <point x="949" y="573"/>
      <point x="937" y="683"/>
      <point x="948" y="691" type="curve"/>
      <point x="899" y="643"/>
      <point x="849" y="627"/>
    </contour>
  </outline>
</glyph>
<glyph name="sterling" format="1">
  <advance width="1048"/>
  <unicode hex="00A3"/>
  <outline>
    <contour>
      <point x="269" y="-20" type="curve" smooth="yes"/>
      <point x="360" y="-20"/>
      <point x="431" y="33"/>
      <point x="479" y="108" type="curve"/>
      <point x="563" y="34"/>
      <point x="648" y="-15"/>
      <point x="744" y="-15" type="curve" smooth="yes"/>
      <point x="931" y="-15"/>
      <point x="990" y="96"/>
      <point x="993" y="284" type="curve" smooth="yes"/>
      <point x="993" y="288"/>
      <point x="993" y="311"/>
      <point x="992" y="315" type="curve"/>
      <point x="890" y="315" type="line"/>
      <point x="885" y="195"/>
      <point x="860" y="124"/>
      <point x="744" y="124" type="curve" smooth="yes"/>
      <point x="675" y="124"/>
      <point x="603" y="169"/>
      <point x="539" y="219" type="curve"/>
      <point x="586" y="339"/>
      <point x="584" y="440"/>
      <point x="531" y="560" type="curve"/>
      <point x="870" y="560" type="line"/>
      <point x="870" y="667" type="line"/>
      <point x="481" y="667" type="line"/>
      <point x="436" y="752"/>
      <point x="390" y="834"/>
      <point x="390" y="918" type="curve" smooth="yes"/>
      <point x="390" y="1043"/>
      <point x="477" y="1116"/>
      <point x="614" y="1116" type="curve" smooth="yes"/>
      <point x="755" y="1116"/>
      <point x="806" y="1027"/>
      <point x="806" y="910" type="curve"/>
      <point x="943" y="910" type="line"/>
      <point x="943" y="1111"/>
      <point x="826" y="1239"/>
      <point x="609" y="1239" type="curve" smooth="yes"/>
      <point x="393" y="1239"/>
      <point x="248" y="1116"/>
      <point x="248" y="911" type="curve" smooth="yes"/>
      <point x="248" y="824"/>
      <point x="283" y="740"/>
      <point x="319" y="667" type="curve"/>
      <point x="142" y="667" type="line"/>
      <point x="142" y="560" type="line"/>
      <point x="377" y="560" type="line"/>
      <point x="455" y="453"/>
      <point x="456" y="337"/>
      <point x="450" y="275" type="curve"/>
      <point x="399" y="323"/>
      <point x="331" y="361"/>
      <point x="265" y="361" type="curve" smooth="yes"/>
      <point x="127" y="361"/>
      <point x="46" y="266"/>
      <point x="46" y="162" type="curve" smooth="yes"/>
      <point x="46" y="65"/>
      <point x="121" y="-20"/>
    </contour>
    <contour>
      <point x="263" y="71" type="curve" smooth="yes"/>
      <point x="202" y="71"/>
      <point x="156" y="106"/>
      <point x="156" y="164" type="curve" smooth="yes"/>
      <point x="156" y="223"/>
      <point x="196" y="259"/>
      <point x="258" y="259" type="curve" smooth="yes"/>
      <point x="303" y="259"/>
      <point x="363" y="231"/>
      <point x="411" y="178" type="curve"/>
      <point x="384" y="107"/>
      <point x="319" y="71"/>
    </contour>
  </outline>
</glyph>
<glyph name="currency" format="1">
  <advance width="1040"/>
  <unicode hex="00A4"/>
  <outline>
    <contour>
      <point x="822" y="491" type="line"/>
      <point x="885" y="553" type="line"/>
      <point x="793" y="643" type="line"/>
      <point x="845" y="710"/>
      <point x="874" y="786"/>
      <point x="874" y="871" type="curve" smooth="yes"/>
      <point x="874" y="953"/>
      <point x="847" y="1029"/>
      <point x="794" y="1094" type="curve"/>
      <point x="885" y="1184" type="line"/>
      <point x="822" y="1246" type="line"/>
      <point x="731" y="1152" type="line"/>
      <point x="665" y="1191"/>
      <point x="594" y="1213"/>
      <point x="517" y="1213" type="curve" smooth="yes"/>
      <point x="442" y="1213"/>
      <point x="373" y="1192"/>
      <point x="310" y="1154" type="curve"/>
      <point x="220" y="1246" type="line"/>
      <point x="155" y="1184" type="line"/>
      <point x="244" y="1096" type="line"/>
      <point x="189" y="1032"/>
      <point x="161" y="953"/>
      <point x="161" y="868" type="curve" smooth="yes"/>
      <point x="161" y="782"/>
      <point x="191" y="703"/>
      <point x="245" y="641" type="curve"/>
      <point x="155" y="553" type="line"/>
      <point x="220" y="491" type="line"/>
      <point x="311" y="584" type="line"/>
      <point x="375" y="546"/>
      <point x="443" y="526"/>
      <point x="519" y="526" type="curve" smooth="yes"/>
      <point x="595" y="526"/>
      <point x="664" y="546"/>
      <point x="730" y="586" type="curve"/>
    </contour>
    <contour>
      <point x="518" y="623" type="curve" smooth="yes"/>
      <point x="383" y="623"/>
      <point x="275" y="723"/>
      <point x="275" y="870" type="curve" smooth="yes"/>
      <point x="275" y="1014"/>
      <point x="382" y="1114"/>
      <point x="518" y="1114" type="curve" smooth="yes"/>
      <point x="653" y="1114"/>
      <point x="762" y="1016"/>
      <point x="762" y="869" type="curve" smooth="yes"/>
      <point x="762" y="722"/>
      <point x="654" y="623"/>
    </contour>
  </outline>
</glyph>
<glyph name="yen" format="1">
  <advance width="1356"/>
  <unicode hex="00A5"/>
  <outline>
    <contour>
      <point x="306" y="267" type="line"/>
      <point x="997" y="267" type="line"/>
      <point x="997" y="363" type="line"/>
      <point x="306" y="363" type="line"/>
    </contour>
    <contour>
      <point x="306" y="466" type="line"/>
      <point x="997" y="466" type="line"/>
      <point x="997" y="562" type="line"/>
      <point x="306" y="562" type="line"/>
    </contour>
    <component base="Y"/>
  </outline>
</glyph>
<glyph name="brokenbar" format="1">
  <advance width="454"/>
  <unicode hex="00A6"/>
  <outline>
    <contour>
      <point x="177" y="-170" type="line"/>
      <point x="280" y="-170" type="line"/>
      <point x="280" y="381" type="line"/>
      <point x="177" y="381" type="line"/>
    </contour>
    <contour>
      <point x="177" y="684" type="line"/>
      <point x="280" y="684" type="line"/>
      <point x="280" y="1236" type="line"/>
      <point x="177" y="1236" type="line"/>
    </contour>
  </outline>
</glyph>
<glyph name="section" format="1">
  <advance width="907"/>
  <unicode hex="00A7"/>
  <outline>
    <contour>
      <point x="466" y="-171" type="curve" smooth="yes"/>
      <point x="676" y="-171"/>
      <point x="781" y="-58"/>
      <point x="781" y="107" type="curve" smooth="yes"/>
      <point x="781" y="176"/>
      <point x="759" y="235"/>
      <point x="723" y="278" type="curve"/>
      <point x="785" y="317"/>
      <point x="830" y="395"/>
      <point x="829" y="477" type="curve" smooth="yes"/>
      <point x="828" y="611"/>
      <point x="734" y="682"/>
      <point x="510" y="795" type="curve" smooth="yes"/>
      <point x="371" y="865"/>
      <point x="300" y="895"/>
      <point x="300" y="1006" type="curve" smooth="yes"/>
      <point x="300" y="1108"/>
      <point x="363" y="1169"/>
      <point x="470" y="1169" type="curve" smooth="yes"/>
      <point x="596" y="1169"/>
      <point x="633" y="1062"/>
      <point x="636" y="960" type="curve"/>
      <point x="715" y="960"/>
      <point x="757" y="1000"/>
      <point x="757" y="1056" type="curve" smooth="yes"/>
      <point x="757" y="1158"/>
      <point x="667" y="1243"/>
      <point x="476" y="1243" type="curve" smooth="yes"/>
      <point x="293" y="1243"/>
      <point x="168" y="1148"/>
      <point x="168" y="992" type="curve" smooth="yes"/>
      <point x="168" y="899"/>
      <point x="204" y="835"/>
      <point x="253" y="793" type="curve"/>
      <point x="183" y="764"/>
      <point x="132" y="701"/>
      <point x="132" y="621" type="curve" smooth="yes"/>
      <point x="132" y="494"/>
      <point x="200" y="417"/>
      <point x="387" y="325" type="curve" smooth="yes"/>
      <point x="629" y="204"/>
      <point x="668" y="168"/>
      <point x="668" y="71" type="curve" smooth="yes"/>
      <point x="668" y="-31"/>
      <point x="604" y="-98"/>
      <point x="482" y="-98" type="curve" smooth="yes"/>
      <point x="349" y="-98"/>
      <point x="277" y="-12"/>
      <point x="276" y="130" type="curve"/>
      <point x="208" y="130"/>
      <point x="160" y="97"/>
      <point x="160" y="25" type="curve" smooth="yes"/>
      <point x="160" y="-76"/>
      <point x="238" y="-171"/>
    </contour>
    <contour>
      <point x="662" y="330" type="curve"/>
      <point x="617" y="362"/>
      <point x="558" y="393"/>
      <point x="483" y="431" type="curve" smooth="yes"/>
      <point x="308" y="519"/>
      <point x="251" y="555"/>
      <point x="251" y="652" type="curve" smooth="yes"/>
      <point x="251" y="693"/>
      <point x="271" y="729"/>
      <point x="306" y="749" type="curve"/>
      <point x="345" y="722"/>
      <point x="426" y="682"/>
      <point x="480" y="655" type="curve" smooth="yes"/>
      <point x="654" y="567"/>
      <point x="700" y="511"/>
      <point x="700" y="433" type="curve" smooth="yes"/>
      <point x="700" y="391"/>
      <point x="688" y="356"/>
    </contour>
  </outline>
</glyph>
<glyph name="dieresis" format="1">
  <advance width="566"/>
  <unicode hex="00A8"/>
  <outline>
    <contour>
      <point x="284" y="804" type="move" name="_top"/>
    </contour>
    <contour>
      <point x="82" y="935" type="curve" smooth="yes"/>
      <point x="140" y="935"/>
      <point x="178" y="971"/>
      <point x="178" y="1027" type="curve"/>
      <point x="178" y="1081"/>
      <point x="140" y="1117"/>
      <point x="82" y="1117" type="curve" smooth="yes"/>
      <point x="25" y="1117"/>
      <point x="-12" y="1081"/>
      <point x="-12" y="1027" type="curve" smooth="yes"/>
      <point x="-12" y="971"/>
      <point x="25" y="935"/>
    </contour>
    <contour>
      <point x="481" y="935" type="curve" smooth="yes"/>
      <point x="539" y="935"/>
      <point x="577" y="971"/>
      <point x="577" y="1026" type="curve"/>
      <point x="577" y="1081"/>
      <point x="539" y="1117"/>
      <point x="481" y="1117" type="curve" smooth="yes"/>
      <point x="424" y="1117"/>
      <point x="387" y="1081"/>
      <point x="387" y="1026" type="curve" smooth="yes"/>
      <point x="387" y="971"/>
      <point x="424" y="935"/>
    </contour>
  </outline>
</glyph>
<glyph name="copyright" format="1">
  <advance width="1531"/>
  <unicode hex="00A9"/>
  <outline>
    <contour>
      <point x="776" y="244" type="curve" smooth="yes"/>
      <point x="896" y="244"/>
      <point x="1017" y="303"/>
      <point x="1077" y="392" type="curve"/>
      <point x="1004" y="451" type="line"/>
      <point x="952" y="382"/>
      <point x="868" y="338"/>
      <point x="779" y="338" type="curve" smooth="yes"/>
      <point x="648" y="338"/>
      <point x="546" y="444"/>
      <point x="546" y="598" type="curve" smooth="yes"/>
      <point x="546" y="760"/>
      <point x="658" y="853"/>
      <point x="781" y="853" type="curve" smooth="yes"/>
      <point x="880" y="853"/>
      <point x="955" y="793"/>
      <point x="972" y="701" type="curve"/>
      <point x="1067" y="701" type="line"/>
      <point x="1067" y="930" type="line"/>
      <point x="969" y="930" type="line"/>
      <point x="969" y="859" type="line"/>
      <point x="931" y="915"/>
      <point x="851" y="946"/>
      <point x="768" y="946" type="curve" smooth="yes"/>
      <point x="583" y="946"/>
      <point x="423" y="815"/>
      <point x="423" y="596" type="curve" smooth="yes"/>
      <point x="423" y="388"/>
      <point x="574" y="244"/>
    </contour>
    <contour>
      <point x="764" y="-29" type="curve" smooth="yes"/>
      <point x="1138" y="-29"/>
      <point x="1410" y="234"/>
      <point x="1410" y="596" type="curve" smooth="yes"/>
      <point x="1410" y="959"/>
      <point x="1138" y="1222"/>
      <point x="764" y="1222" type="curve" smooth="yes"/>
      <point x="392" y="1222"/>
      <point x="121" y="959"/>
      <point x="121" y="596" type="curve" smooth="yes"/>
      <point x="121" y="234"/>
      <point x="392" y="-29"/>
    </contour>
    <contour>
      <point x="764" y="73" type="curve" smooth="yes"/>
      <point x="467" y="73"/>
      <point x="250" y="292"/>
      <point x="250" y="594" type="curve" smooth="yes"/>
      <point x="250" y="900"/>
      <point x="467" y="1122"/>
      <point x="764" y="1122" type="curve" smooth="yes"/>
      <point x="1062" y="1122"/>
      <point x="1280" y="900"/>
      <point x="1280" y="594" type="curve" smooth="yes"/>
      <point x="1280" y="293"/>
      <point x="1062" y="73"/>
    </contour>
  </outline>
</glyph>
<glyph name="ordfeminine" format="1">
  <advance width="785"/>
  <unicode hex="00AA"/>
  <outline>
    <contour>
      <point x="307" y="495" type="curve" smooth="yes"/>
      <point x="398" y="495"/>
      <point x="468" y="522"/>
      <point x="524" y="569" type="curve"/>
      <point x="529" y="510" type="line"/>
      <point x="755" y="510" type="line"/>
      <point x="755" y="603" type="line"/>
      <point x="650" y="603" type="line"/>
      <point x="650" y="946" type="line" smooth="yes"/>
      <point x="650" y="1086"/>
      <point x="546" y="1174"/>
      <point x="374" y="1174" type="curve" smooth="yes"/>
      <point x="285" y="1174"/>
      <point x="176" y="1150"/>
      <point x="105" y="1096" type="curve"/>
      <point x="147" y="1010" type="line"/>
      <point x="216" y="1055"/>
      <point x="309" y="1074"/>
      <point x="369" y="1074" type="curve" smooth="yes"/>
      <point x="464" y="1074"/>
      <point x="518" y="1028"/>
      <point x="518" y="936" type="curve" smooth="yes"/>
      <point x="518" y="873" type="line"/>
      <point x="463" y="883"/>
      <point x="409" y="890"/>
      <point x="354" y="890" type="curve" smooth="yes"/>
      <point x="205" y="890"/>
      <point x="80" y="837"/>
      <point x="80" y="687" type="curve" smooth="yes"/>
      <point x="80" y="583"/>
      <point x="163" y="495"/>
    </contour>
    <contour>
      <point x="325" y="586" type="curve" smooth="yes"/>
      <point x="250" y="586"/>
      <point x="208" y="630"/>
      <point x="208" y="694" type="curve" smooth="yes"/>
      <point x="208" y="788"/>
      <point x="284" y="810"/>
      <point x="365" y="810" type="curve" smooth="yes"/>
      <point x="431" y="810"/>
      <point x="481" y="801"/>
      <point x="518" y="793" type="curve"/>
      <point x="518" y="657" type="line"/>
      <point x="464" y="611"/>
      <point x="392" y="586"/>
    </contour>
  </outline>
</glyph>
<glyph name="guillemotleft" format="1">
  <advance width="899"/>
  <unicode hex="00AB"/>
  <outline>
    <contour>
      <point x="337" y="186" type="line"/>
      <point x="451" y="186" type="line"/>
      <point x="242" y="588" type="line"/>
      <point x="451" y="988" type="line"/>
      <point x="337" y="988" type="line"/>
      <point x="36" y="587" type="line"/>
    </contour>
    <contour>
      <point x="725" y="186" type="line"/>
      <point x="839" y="186" type="line"/>
      <point x="630" y="588" type="line"/>
      <point x="839" y="988" type="line"/>
      <point x="725" y="988" type="line"/>
      <point x="425" y="587" type="line"/>
    </contour>
  </outline>
</glyph>
<glyph name="logicalnot" format="1">
  <advance width="1045"/>
  <unicode hex="00AC"/>
  <outline>
    <contour>
      <point x="796" y="323" type="line"/>
      <point x="893" y="323" type="line"/>
      <point x="893" y="805" type="line"/>
      <point x="34" y="805" type="line"/>
      <point x="34" y="691" type="line"/>
      <point x="796" y="691" type="line"/>
    </contour>
  </outline>
</glyph>
<glyph name="registered" format="1">
  <advance width="1531"/>
  <unicode hex="00AE"/>
  <outline>
    <contour>
      <point x="472" y="284" type="line"/>
      <point x="742" y="284" type="line"/>
      <point x="742" y="347" type="line"/>
      <point x="656" y="347" type="line"/>
      <point x="656" y="590" type="line"/>
      <point x="767" y="590" type="line"/>
      <point x="932" y="284" type="line"/>
      <point x="1089" y="284" type="line"/>
      <point x="1089" y="347" type="line"/>
      <point x="997" y="347" type="line"/>
      <point x="855" y="600" type="line"/>
      <point x="953" y="617"/>
      <point x="1014" y="682"/>
      <point x="1014" y="768" type="curve" smooth="yes"/>
      <point x="1014" y="876"/>
      <point x="930" y="943"/>
      <point x="797" y="943" type="curve" smooth="yes"/>
      <point x="470" y="943" type="line"/>
      <point x="470" y="880" type="line"/>
      <point x="562" y="880" type="line"/>
      <point x="562" y="347" type="line"/>
      <point x="472" y="347" type="line"/>
    </contour>
    <contour>
      <point x="656" y="656" type="line"/>
      <point x="656" y="880" type="line"/>
      <point x="798" y="880" type="line" smooth="yes"/>
      <point x="873" y="880"/>
      <point x="921" y="837"/>
      <point x="921" y="767" type="curve" smooth="yes"/>
      <point x="921" y="699"/>
      <point x="872" y="656"/>
      <point x="793" y="656" type="curve" smooth="yes"/>
    </contour>
    <contour>
      <point x="757" y="80" type="curve" smooth="yes"/>
      <point x="445" y="80"/>
      <point x="253" y="307"/>
      <point x="253" y="593" type="curve" smooth="yes"/>
      <point x="253" y="879"/>
      <point x="446" y="1114"/>
      <point x="757" y="1114" type="curve" smooth="yes"/>
      <point x="1068" y="1114"/>
      <point x="1263" y="879"/>
      <point x="1263" y="593" type="curve" smooth="yes"/>
      <point x="1263" y="309"/>
      <point x="1068" y="80"/>
    </contour>
    <contour>
      <point x="757" y="-22" type="curve" smooth="yes"/>
      <point x="1147" y="-22"/>
      <point x="1392" y="251"/>
      <point x="1392" y="595" type="curve" smooth="yes"/>
      <point x="1392" y="939"/>
      <point x="1146" y="1215"/>
      <point x="757" y="1215" type="curve" smooth="yes"/>
      <point x="370" y="1215"/>
      <point x="124" y="939"/>
      <point x="124" y="595" type="curve" smooth="yes"/>
      <point x="124" y="251"/>
      <point x="369" y="-22"/>
    </contour>
  </outline>
</glyph>
<glyph name="macron" format="1">
  <advance width="371"/>
  <unicode hex="00AF"/>
  <outline>
    <contour>
      <point x="196" y="804" type="move" name="_top"/>
    </contour>
    <contour>
      <point x="184" y="995" type="move" name="_mid"/>
    </contour>
    <contour>
      <point x="-30" y="944" type="line"/>
      <point x="403" y="944" type="line"/>
      <point x="403" y="1040" type="line"/>
      <point x="-30" y="1040" type="line"/>
    </contour>
  </outline>
</glyph>
<glyph name="degree" format="1">
  <advance width="723"/>
  <unicode hex="00B0"/>
  <outline>
    <contour>
      <point x="362" y="779" type="curve" smooth="yes"/>
      <point x="254" y="779"/>
      <point x="188" y="859"/>
      <point x="188" y="950" type="curve"/>
      <point x="188" y="1042"/>
      <point x="254" y="1122"/>
      <point x="362" y="1122" type="curve" smooth="yes"/>
      <point x="471" y="1122"/>
      <point x="536" y="1039"/>
      <point x="536" y="950" type="curve" smooth="yes"/>
      <point x="536" y="857"/>
      <point x="469" y="779"/>
    </contour>
    <contour>
      <point x="362" y="701" type="curve" smooth="yes"/>
      <point x="523" y="701"/>
      <point x="621" y="818"/>
      <point x="621" y="949" type="curve" smooth="yes"/>
      <point x="621" y="1081"/>
      <point x="522" y="1197"/>
      <point x="362" y="1197" type="curve" smooth="yes"/>
      <point x="202" y="1197"/>
      <point x="102" y="1081"/>
      <point x="102" y="949" type="curve" smooth="yes"/>
      <point x="102" y="818"/>
      <point x="201" y="701"/>
    </contour>
  </outline>
</glyph>
<glyph name="plusminus" format="1">
  <advance width="897"/>
  <unicode hex="00B1"/>
  <outline>
    <contour>
      <point x="389" y="237" type="line"/>
      <point x="508" y="237" type="line"/>
      <point x="508" y="612" type="line"/>
      <point x="869" y="612" type="line"/>
      <point x="869" y="731" type="line"/>
      <point x="508" y="731" type="line"/>
      <point x="508" y="1102" type="line"/>
      <point x="389" y="1102" type="line"/>
      <point x="389" y="731" type="line"/>
      <point x="29" y="731" type="line"/>
      <point x="29" y="612" type="line"/>
      <point x="389" y="612" type="line"/>
    </contour>
    <contour>
      <point x="28" y="0" type="line"/>
      <point x="869" y="0" type="line"/>
      <point x="869" y="117" type="line"/>
      <point x="28" y="117" type="line"/>
    </contour>
  </outline>
</glyph>
<glyph name="twosuperior" format="1">
  <advance width="955"/>
  <unicode hex="00B2"/>
  <outline>
    <contour>
      <point x="205" y="628" type="line"/>
      <point x="205" y="536" type="line"/>
      <point x="750" y="536" type="line"/>
      <point x="749" y="777" type="line"/>
      <point x="653" y="777" type="line"/>
      <point x="653" y="627" type="line"/>
      <point x="342" y="627" type="line"/>
      <point x="536" y="818" type="line" smooth="yes"/>
      <point x="631" y="911"/>
      <point x="739" y="1005"/>
      <point x="739" y="1125" type="curve" smooth="yes"/>
      <point x="739" y="1270"/>
      <point x="638" y="1360"/>
      <point x="468" y="1360" type="curve" smooth="yes"/>
      <point x="297" y="1360"/>
      <point x="198" y="1258"/>
      <point x="198" y="1116" type="curve" smooth="yes"/>
      <point x="198" y="1084"/>
      <point x="203" y="1051"/>
      <point x="213" y="1017" type="curve"/>
      <point x="315" y="1017" type="line"/>
      <point x="307" y="1048"/>
      <point x="303" y="1077"/>
      <point x="303" y="1103" type="curve" smooth="yes"/>
      <point x="303" y="1204"/>
      <point x="365" y="1264"/>
      <point x="469" y="1264" type="curve" smooth="yes"/>
      <point x="578" y="1264"/>
      <point x="621" y="1202"/>
      <point x="624" y="1125" type="curve" smooth="yes"/>
      <point x="626" y="1047"/>
      <point x="548" y="976"/>
      <point x="465" y="891" type="curve" smooth="yes"/>
    </contour>
  </outline>
</glyph>
<glyph name="threesuperior" format="1">
  <advance width="973"/>
  <unicode hex="00B3"/>
  <outline>
    <contour>
      <point x="496" y="522" type="curve" smooth="yes"/>
      <point x="677" y="522"/>
      <point x="797" y="617"/>
      <point x="797" y="760" type="curve" smooth="yes"/>
      <point x="797" y="849"/>
      <point x="753" y="931"/>
      <point x="610" y="961" type="curve"/>
      <point x="714" y="980"/>
      <point x="769" y="1058"/>
      <point x="769" y="1146" type="curve" smooth="yes"/>
      <point x="769" y="1278"/>
      <point x="658" y="1360"/>
      <point x="491" y="1360" type="curve" smooth="yes"/>
      <point x="358" y="1360"/>
      <point x="250" y="1298"/>
      <point x="202" y="1200" type="curve"/>
      <point x="293" y="1155" type="line"/>
      <point x="322" y="1226"/>
      <point x="394" y="1270"/>
      <point x="489" y="1270" type="curve" smooth="yes"/>
      <point x="588" y="1270"/>
      <point x="655" y="1217"/>
      <point x="655" y="1142" type="curve" smooth="yes"/>
      <point x="655" y="1053"/>
      <point x="595" y="1001"/>
      <point x="432" y="1001" type="curve" smooth="yes"/>
      <point x="432" y="911" type="line" smooth="yes"/>
      <point x="604" y="911"/>
      <point x="675" y="865"/>
      <point x="678" y="767" type="curve" smooth="yes"/>
      <point x="682" y="672"/>
      <point x="609" y="613"/>
      <point x="497" y="613" type="curve" smooth="yes"/>
      <point x="397" y="613"/>
      <point x="325" y="659"/>
      <point x="292" y="740" type="curve"/>
      <point x="201" y="689" type="line"/>
      <point x="236" y="588"/>
      <point x="350" y="522"/>
    </contour>
  </outline>
</glyph>
<glyph name="acute" format="1">
  <advance width="462"/>
  <unicode hex="00B4"/>
  <outline>
    <contour>
      <point x="185" y="804" type="move" name="_top"/>
    </contour>
    <contour>
      <point x="159" y="1038" type="line"/>
      <point x="232" y="975" type="line"/>
      <point x="398" y="1212" type="line"/>
      <point x="258" y="1276" type="line"/>
    </contour>
  </outline>
</glyph>
<glyph name="uni00B5" format="1">
  <advance width="1046"/>
  <unicode hex="00B5"/>
  <outline>
    <contour>
      <point x="156" y="-273" type="line"/>
      <point x="313" y="-273" type="line"/>
      <point x="313" y="449" type="line"/>
      <point x="156" y="449" type="line"/>
    </contour>
    <component base="u"/>
  </outline>
</glyph>
<glyph name="paragraph" format="1">
  <advance width="1097"/>
  <unicode hex="00B6"/>
  <outline>
    <contour>
      <point x="501" y="-5" type="line"/>
      <point x="1024" y="-5" type="line"/>
      <point x="1024" y="109" type="line"/>
      <point x="877" y="109" type="line"/>
      <point x="877" y="1043" type="line"/>
      <point x="1021" y="1043" type="line"/>
      <point x="1021" y="1152" type="line"/>
      <point x="493" y="1152" type="line"/>
      <point x="228" y="1152"/>
      <point x="121" y="998"/>
      <point x="121" y="828" type="curve" smooth="yes"/>
      <point x="121" y="657"/>
      <point x="244" y="500"/>
      <point x="469" y="501" type="curve" smooth="yes"/>
      <point x="723" y="501" type="line"/>
      <point x="723" y="109" type="line"/>
      <point x="501" y="109" type="line"/>
    </contour>
    <contour>
      <point x="528" y="619" type="line"/>
      <point x="528" y="1043" type="line"/>
      <point x="723" y="1043" type="line"/>
      <point x="723" y="619" type="line"/>
    </contour>
  </outline>
</glyph>
<glyph name="periodcentered" format="1">
  <advance width="543"/>
  <unicode hex="00B7"/>
  <outline>
    <contour>
      <point x="279" y="553" type="move" name="_mid"/>
    </contour>
    <contour>
      <point x="279" y="445" type="curve" smooth="yes"/>
      <point x="344" y="445"/>
      <point x="394" y="491"/>
      <point x="394" y="553" type="curve" smooth="yes"/>
      <point x="394" y="612"/>
      <point x="344" y="659"/>
      <point x="279" y="659" type="curve"/>
      <point x="216" y="659"/>
      <point x="166" y="612"/>
      <point x="166" y="553" type="curve" smooth="yes"/>
      <point x="166" y="491"/>
      <point x="216" y="445"/>
    </contour>
  </outline>
</glyph>
<glyph name="cedilla" format="1">
  <advance width="493"/>
  <unicode hex="00B8"/>
  <outline>
    <contour>
      <point x="276" y="0" type="move" name="_bot"/>
    </contour>
    <contour>
      <point x="278" y="-359" type="curve" smooth="yes"/>
      <point x="360" y="-359"/>
      <point x="426" y="-326"/>
      <point x="426" y="-239" type="curve" smooth="yes"/>
      <point x="426" y="-181"/>
      <point x="381" y="-125"/>
      <point x="278" y="-115" type="curve"/>
      <point x="309" y="5" type="line"/>
      <point x="239" y="5" type="line"/>
      <point x="176" y="-160" type="line"/>
      <point x="257" y="-165"/>
      <point x="293" y="-189"/>
      <point x="293" y="-225" type="curve" smooth="yes"/>
      <point x="293" y="-263"/>
      <point x="263" y="-279"/>
      <point x="216" y="-279" type="curve" smooth="yes"/>
      <point x="182" y="-279"/>
      <point x="140" y="-271"/>
      <point x="97" y="-257" type="curve"/>
      <point x="97" y="-318" type="line"/>
      <point x="155" y="-344"/>
      <point x="220" y="-359"/>
    </contour>
  </outline>
</glyph>
<glyph name="onesuperior" format="1">
  <advance width="860"/>
  <unicode hex="00B9"/>
  <outline>
    <contour>
      <point x="217" y="534" type="line"/>
      <point x="626" y="534" type="line"/>
      <point x="626" y="617" type="line"/>
      <point x="481" y="617" type="line"/>
      <point x="481" y="1337" type="line"/>
      <point x="224" y="1301" type="line"/>
      <point x="227" y="1219" type="line"/>
      <point x="366" y="1235" type="line"/>
      <point x="366" y="617" type="line"/>
      <point x="217" y="617" type="line"/>
    </contour>
  </outline>
</glyph>
<glyph name="ordmasculine" format="1">
  <advance width="907"/>
  <unicode hex="00BA"/>
  <outline>
    <contour>
      <point x="456" y="492" type="curve" smooth="yes"/>
      <point x="657" y="492"/>
      <point x="807" y="626"/>
      <point x="807" y="835" type="curve" smooth="yes"/>
      <point x="807" y="1041"/>
      <point x="658" y="1174"/>
      <point x="458" y="1174" type="curve" smooth="yes"/>
      <point x="258" y="1174"/>
      <point x="108" y="1041"/>
      <point x="108" y="835" type="curve" smooth="yes"/>
      <point x="108" y="626"/>
      <point x="257" y="492"/>
    </contour>
    <contour>
      <point x="457" y="598" type="curve" smooth="yes"/>
      <point x="339" y="598"/>
      <point x="246" y="687"/>
      <point x="246" y="834" type="curve" smooth="yes"/>
      <point x="246" y="980"/>
      <point x="339" y="1068"/>
      <point x="456" y="1068" type="curve" smooth="yes"/>
      <point x="575" y="1068"/>
      <point x="668" y="981"/>
      <point x="668" y="835" type="curve" smooth="yes"/>
      <point x="668" y="687"/>
      <point x="575" y="598"/>
    </contour>
  </outline>
</glyph>
<glyph name="guillemotright" format="1">
  <advance width="899"/>
  <unicode hex="00BB"/>
  <outline>
    <contour>
      <point x="60" y="186" type="line"/>
      <point x="174" y="186" type="line"/>
      <point x="475" y="587" type="line"/>
      <point x="174" y="988" type="line"/>
      <point x="60" y="988" type="line"/>
      <point x="269" y="588" type="line"/>
    </contour>
    <contour>
      <point x="448" y="186" type="line"/>
      <point x="563" y="186" type="line"/>
      <point x="863" y="587" type="line"/>
      <point x="563" y="988" type="line"/>
      <point x="448" y="988" type="line"/>
      <point x="657" y="588" type="line"/>
    </contour>
  </outline>
</glyph>
<glyph name="onequarter" format="1">
  <advance width="1911"/>
  <unicode hex="00BC"/>
  <outline>
    <contour>
      <point x="1394" y="0" type="line"/>
      <point x="1712" y="0" type="line"/>
      <point x="1712" y="83" type="line"/>
      <point x="1612" y="83" type="line"/>
      <point x="1612" y="244" type="line"/>
      <point x="1733" y="244" type="line"/>
      <point x="1733" y="324" type="line"/>
      <point x="1612" y="324" type="line"/>
      <point x="1612" y="814" type="line"/>
      <point x="1506" y="814" type="line"/>
      <point x="1154" y="336" type="line"/>
      <point x="1167" y="244" type="line"/>
      <point x="1507" y="244" type="line"/>
      <point x="1507" y="83" type="line"/>
      <point x="1394" y="83" type="line"/>
    </contour>
    <contour>
      <point x="200" y="342" type="line"/>
      <point x="552" y="342" type="line"/>
      <point x="552" y="425" type="line"/>
      <point x="436" y="425" type="line"/>
      <point x="436" y="1152" type="line"/>
      <point x="194" y="1125" type="line"/>
      <point x="194" y="1043" type="line"/>
      <point x="322" y="1054" type="line"/>
      <point x="322" y="425" type="line"/>
      <point x="200" y="425" type="line"/>
    </contour>
    <contour>
      <point x="513" y="-37" type="line"/>
      <point x="621" y="-37" type="line"/>
      <point x="1432" y="1226" type="line"/>
      <point x="1327" y="1226" type="line"/>
    </contour>
    <contour>
      <point x="1250" y="324" type="line"/>
      <point x="1507" y="678" type="line"/>
      <point x="1507" y="324" type="line"/>
    </contour>
  </outline>
</glyph>
<glyph name="onehalf" format="1">
  <advance width="2002"/>
  <unicode hex="00BD"/>
  <outline>
    <contour>
      <point x="1290" y="0" type="line"/>
      <point x="1855" y="0" type="line"/>
      <point x="1854" y="237" type="line"/>
      <point x="1765" y="237" type="line"/>
      <point x="1765" y="83" type="line"/>
      <point x="1424" y="83" type="line"/>
      <point x="1635" y="284" type="line" smooth="yes"/>
      <point x="1732" y="375"/>
      <point x="1833" y="471"/>
      <point x="1833" y="589" type="curve" smooth="yes"/>
      <point x="1833" y="735"/>
      <point x="1733" y="824"/>
      <point x="1565" y="824" type="curve" smooth="yes"/>
      <point x="1381" y="824"/>
      <point x="1278" y="714"/>
      <point x="1278" y="572" type="curve" smooth="yes"/>
      <point x="1278" y="541"/>
      <point x="1282" y="510"/>
      <point x="1292" y="477" type="curve"/>
      <point x="1393" y="477" type="line"/>
      <point x="1386" y="506"/>
      <point x="1382" y="534"/>
      <point x="1382" y="558" type="curve" smooth="yes"/>
      <point x="1382" y="666"/>
      <point x="1446" y="737"/>
      <point x="1566" y="737" type="curve" smooth="yes"/>
      <point x="1676" y="737"/>
      <point x="1722" y="671"/>
      <point x="1724" y="588" type="curve" smooth="yes"/>
      <point x="1727" y="508"/>
      <point x="1649" y="433"/>
      <point x="1565" y="352" type="curve" smooth="yes"/>
      <point x="1290" y="86" type="line"/>
    </contour>
    <contour>
      <point x="201" y="342" type="line"/>
      <point x="553" y="342" type="line"/>
      <point x="553" y="425" type="line"/>
      <point x="436" y="425" type="line"/>
      <point x="436" y="1152" type="line"/>
      <point x="194" y="1125" type="line"/>
      <point x="194" y="1043" type="line"/>
      <point x="322" y="1054" type="line"/>
      <point x="322" y="425" type="line"/>
      <point x="201" y="425" type="line"/>
    </contour>
    <contour>
      <point x="515" y="-37" type="line"/>
      <point x="623" y="-37" type="line"/>
      <point x="1434" y="1226" type="line"/>
      <point x="1329" y="1226" type="line"/>
    </contour>
  </outline>
</glyph>
<glyph name="threequarters" format="1">
  <advance width="2035"/>
  <unicode hex="00BE"/>
  <outline>
    <contour>
      <point x="449" y="336" type="curve" smooth="yes"/>
      <point x="635" y="336"/>
      <point x="751" y="433"/>
      <point x="751" y="583" type="curve" smooth="yes"/>
      <point x="751" y="687"/>
      <point x="679" y="751"/>
      <point x="564" y="775" type="curve"/>
      <point x="662" y="797"/>
      <point x="722" y="866"/>
      <point x="722" y="957" type="curve" smooth="yes"/>
      <point x="722" y="1086"/>
      <point x="612" y="1174"/>
      <point x="445" y="1174" type="curve" smooth="yes"/>
      <point x="312" y="1174"/>
      <point x="203" y="1111"/>
      <point x="156" y="1014" type="curve"/>
      <point x="247" y="969" type="line"/>
      <point x="276" y="1040"/>
      <point x="348" y="1084"/>
      <point x="443" y="1084" type="curve" smooth="yes"/>
      <point x="541" y="1084"/>
      <point x="608" y="1031"/>
      <point x="608" y="956" type="curve" smooth="yes"/>
      <point x="608" y="867"/>
      <point x="549" y="815"/>
      <point x="385" y="815" type="curve" smooth="yes"/>
      <point x="386" y="725" type="line" smooth="yes"/>
      <point x="553" y="725"/>
      <point x="628" y="679"/>
      <point x="632" y="580" type="curve" smooth="yes"/>
      <point x="636" y="486"/>
      <point x="562" y="426"/>
      <point x="450" y="426" type="curve" smooth="yes"/>
      <point x="351" y="426"/>
      <point x="278" y="473"/>
      <point x="245" y="554" type="curve"/>
      <point x="155" y="503" type="line"/>
      <point x="190" y="402"/>
      <point x="304" y="336"/>
    </contour>
    <contour>
      <point x="1486" y="0" type="line"/>
      <point x="1803" y="0" type="line"/>
      <point x="1803" y="83" type="line"/>
      <point x="1704" y="83" type="line"/>
      <point x="1704" y="244" type="line"/>
      <point x="1824" y="244" type="line"/>
      <point x="1824" y="324" type="line"/>
      <point x="1704" y="324" type="line"/>
      <point x="1704" y="814" type="line"/>
      <point x="1598" y="814" type="line"/>
      <point x="1242" y="336" type="line"/>
      <point x="1256" y="244" type="line"/>
      <point x="1599" y="244" type="line"/>
      <point x="1599" y="83" type="line"/>
      <point x="1486" y="83" type="line"/>
    </contour>
    <contour>
      <point x="625" y="-37" type="line"/>
      <point x="733" y="-37" type="line"/>
      <point x="1544" y="1226" type="line"/>
      <point x="1439" y="1226" type="line"/>
    </contour>
    <contour>
      <point x="1339" y="324" type="line"/>
      <point x="1599" y="678" type="line"/>
      <point x="1599" y="324" type="line"/>
    </contour>
  </outline>
</glyph>
<glyph name="AE" format="1">
  <advance width="1972"/>
  <unicode hex="00C6"/>
  <outline>
    <contour>
      <point x="1184" y="1152" type="move" name="top"/>
    </contour>
    <contour>
      <point x="37" y="0" type="line"/>
      <point x="515" y="0" type="line"/>
      <point x="515" y="113" type="line"/>
      <point x="374" y="113" type="line"/>
      <point x="552" y="419" type="line"/>
      <point x="966" y="419" type="line"/>
      <point x="983" y="113" type="line"/>
      <point x="826" y="113" type="line"/>
      <point x="826" y="0" type="line"/>
      <point x="1857" y="0" type="line"/>
      <point x="1840" y="365" type="line"/>
      <point x="1707" y="365" type="line"/>
      <point x="1722" y="113" type="line"/>
      <point x="1155" y="113" type="line"/>
      <point x="1134" y="530" type="line"/>
      <point x="1494" y="530" type="line"/>
      <point x="1505" y="393" type="line"/>
      <point x="1590" y="393" type="line"/>
      <point x="1570" y="781" type="line"/>
      <point x="1484" y="781" type="line"/>
      <point x="1493" y="649" type="line"/>
      <point x="1131" y="649" type="line"/>
      <point x="1109" y="1040" type="line"/>
      <point x="1660" y="1040" type="line"/>
      <point x="1675" y="791" type="line"/>
      <point x="1808" y="791" type="line"/>
      <point x="1792" y="1152" type="line"/>
      <point x="640" y="1152" type="line"/>
      <point x="640" y="1040" type="line"/>
      <point x="765" y="1040" type="line"/>
      <point x="192" y="113" type="line"/>
      <point x="37" y="113" type="line"/>
    </contour>
    <contour>
      <point x="606" y="525" type="line"/>
      <point x="918" y="1040" type="line"/>
      <point x="938" y="1040" type="line"/>
      <point x="965" y="525" type="line"/>
    </contour>
  </outline>
</glyph>
<glyph name="multiply" format="1">
  <advance width="872"/>
  <unicode hex="00D7"/>
  <outline>
    <contour>
      <point x="693" y="203" type="line"/>
      <point x="770" y="280" type="line"/>
      <point x="515" y="533" type="line"/>
      <point x="774" y="789" type="line"/>
      <point x="700" y="865" type="line"/>
      <point x="438" y="609" type="line"/>
      <point x="182" y="861" type="line"/>
      <point x="105" y="784" type="line"/>
      <point x="361" y="530" type="line"/>
      <point x="101" y="275" type="line"/>
      <point x="176" y="200" type="line"/>
      <point x="436" y="456" type="line"/>
    </contour>
  </outline>
</glyph>
<glyph name="Oslash" format="1">
  <advance width="1488"/>
  <unicode hex="00D8"/>
  <outline>
    <contour>
      <point x="292" y="-75" type="line"/>
      <point x="1264" y="1163" type="line"/>
      <point x="1185" y="1220" type="line"/>
      <point x="212" y="-18" type="line"/>
    </contour>
    <component base="O" xOffset="2" yOffset="-3"/>
  </outline>
</glyph>
<glyph name="Thorn" format="1">
  <advance width="1122"/>
  <unicode hex="00DE"/>
  <outline>
    <contour>
      <point x="494" y="326" type="line"/>
      <point x="678" y="326" type="line" smooth="yes"/>
      <point x="927" y="326"/>
      <point x="1065" y="431"/>
      <point x="1065" y="626" type="curve" smooth="yes"/>
      <point x="1065" y="806"/>
      <point x="926" y="913"/>
      <point x="675" y="913" type="curve" smooth="yes"/>
      <point x="327" y="913" type="line"/>
      <point x="327" y="802" type="line"/>
      <point x="675" y="802" type="line" smooth="yes"/>
      <point x="815" y="802"/>
      <point x="899" y="737"/>
      <point x="899" y="626" type="curve" smooth="yes"/>
      <point x="899" y="495"/>
      <point x="817" y="429"/>
      <point x="678" y="429" type="curve" smooth="yes"/>
      <point x="494" y="429" type="line"/>
    </contour>
    <component base="uc_main_stem" xOffset="-48"/>
  </outline>
</glyph>
<glyph name="germandbls" format="1">
  <advance width="1157"/>
  <unicode hex="00DF"/>
  <outline>
    <contour>
      <point x="60" y="0" type="line"/>
      <point x="501" y="0" type="line"/>
      <point x="501" y="115" type="line"/>
      <point x="383" y="115" type="line"/>
      <point x="383" y="842" type="line" smooth="yes"/>
      <point x="383" y="1012"/>
      <point x="465" y="1118"/>
      <point x="611" y="1118" type="curve" smooth="yes"/>
      <point x="740" y="1118"/>
      <point x="812" y="1049"/>
      <point x="812" y="937" type="curve" smooth="yes"/>
      <point x="812" y="805"/>
      <point x="728" y="721"/>
      <point x="584" y="718" type="curve"/>
      <point x="584" y="608" type="line"/>
      <point x="797" y="608"/>
      <point x="927" y="514"/>
      <point x="927" y="364" type="curve" smooth="yes"/>
      <point x="927" y="208"/>
      <point x="799" y="115"/>
      <point x="605" y="115" type="curve"/>
      <point x="605" y="0" type="line"/>
      <point x="908" y="0"/>
      <point x="1097" y="142"/>
      <point x="1097" y="364" type="curve" smooth="yes"/>
      <point x="1097" y="521"/>
      <point x="986" y="645"/>
      <point x="784" y="680" type="curve"/>
      <point x="900" y="720"/>
      <point x="972" y="821"/>
      <point x="972" y="945" type="curve"/>
      <point x="972" y="1131"/>
      <point x="836" y="1241"/>
      <point x="611" y="1241" type="curve" smooth="yes"/>
      <point x="363" y="1241"/>
      <point x="214" y="1089"/>
      <point x="214" y="838" type="curve" smooth="yes"/>
      <point x="214" y="115" type="line"/>
      <point x="60" y="115" type="line"/>
    </contour>
  </outline>
</glyph>
<glyph name="ae" format="1">
  <advance width="1511"/>
  <unicode hex="00E6"/>
  <outline>
    <contour>
      <point x="772" y="804" type="move" name="top"/>
    </contour>
    <contour>
      <point x="379" y="-22" type="curve" smooth="yes"/>
      <point x="487" y="-22"/>
      <point x="604" y="-1"/>
      <point x="744" y="98" type="curve"/>
      <point x="822" y="20"/>
      <point x="932" y="-20"/>
      <point x="1062" y="-20" type="curve" smooth="yes"/>
      <point x="1230" y="-20"/>
      <point x="1350" y="44"/>
      <point x="1427" y="132" type="curve"/>
      <point x="1369" y="226" type="line"/>
      <point x="1270" y="137"/>
      <point x="1169" y="101"/>
      <point x="1068" y="101" type="curve" smooth="yes"/>
      <point x="897" y="101"/>
      <point x="799" y="205"/>
      <point x="793" y="371" type="curve"/>
      <point x="1433" y="371" type="line"/>
      <point x="1433" y="647"/>
      <point x="1289" y="826"/>
      <point x="1053" y="826" type="curve" smooth="yes"/>
      <point x="914" y="826"/>
      <point x="784" y="766"/>
      <point x="732" y="657" type="curve"/>
      <point x="698" y="767"/>
      <point x="587" y="826"/>
      <point x="440" y="826" type="curve" smooth="yes"/>
      <point x="320" y="826"/>
      <point x="185" y="788"/>
      <point x="101" y="720" type="curve"/>
      <point x="151" y="622" type="line"/>
      <point x="232" y="678"/>
      <point x="347" y="708"/>
      <point x="434" y="708" type="curve" smooth="yes"/>
      <point x="557" y="708"/>
      <point x="631" y="654"/>
      <point x="631" y="525" type="curve"/>
      <point x="631" y="447" type="line"/>
      <point x="582" y="456"/>
      <point x="482" y="462"/>
      <point x="436" y="462" type="curve" smooth="yes"/>
      <point x="237" y="462"/>
      <point x="78" y="401"/>
      <point x="78" y="216" type="curve" smooth="yes"/>
      <point x="78" y="32"/>
      <point x="255" y="-22"/>
    </contour>
    <contour>
      <point x="401" y="80" type="curve" smooth="yes"/>
      <point x="310" y="80"/>
      <point x="226" y="112"/>
      <point x="226" y="222" type="curve" smooth="yes"/>
      <point x="226" y="340"/>
      <point x="321" y="367"/>
      <point x="444" y="367" type="curve" smooth="yes"/>
      <point x="484" y="367"/>
      <point x="593" y="360"/>
      <point x="632" y="356" type="curve"/>
      <point x="637" y="300"/>
      <point x="652" y="234"/>
      <point x="679" y="183" type="curve"/>
      <point x="613" y="125"/>
      <point x="527" y="80"/>
    </contour>
    <contour>
      <point x="1277" y="467" type="curve"/>
      <point x="795" y="467" type="line"/>
      <point x="810" y="602"/>
      <point x="899" y="710"/>
      <point x="1052" y="710" type="curve" smooth="yes"/>
      <point x="1191" y="710"/>
      <point x="1269" y="613"/>
    </contour>
  </outline>
</glyph>
<glyph name="eth" format="1">
  <advance width="987"/>
  <unicode hex="00F0"/>
  <outline>
    <contour>
      <point x="498" y="-20" type="curve" smooth="yes"/>
      <point x="736" y="-20"/>
      <point x="910" y="155"/>
      <point x="910" y="400" type="curve" smooth="yes"/>
      <point x="910" y="856"/>
      <point x="539" y="1134"/>
      <point x="239" y="1372" type="curve"/>
      <point x="161" y="1274" type="line"/>
      <point x="382" y="1108"/>
      <point x="608" y="915"/>
      <point x="701" y="718" type="curve"/>
      <point x="680" y="736"/>
      <point x="600" y="787"/>
      <point x="473" y="787" type="curve" smooth="yes"/>
      <point x="275" y="787"/>
      <point x="90" y="630"/>
      <point x="90" y="419" type="curve" smooth="yes"/>
      <point x="90" y="176"/>
      <point x="233" y="-20"/>
    </contour>
    <contour>
      <point x="500" y="105" type="curve" smooth="yes"/>
      <point x="333" y="105"/>
      <point x="240" y="246"/>
      <point x="240" y="404" type="curve" smooth="yes"/>
      <point x="240" y="573"/>
      <point x="346" y="673"/>
      <point x="490" y="673" type="curve" smooth="yes"/>
      <point x="633" y="673"/>
      <point x="764" y="581"/>
      <point x="764" y="399" type="curve" smooth="yes"/>
      <point x="764" y="251"/>
      <point x="687" y="105"/>
    </contour>
    <contour>
      <point x="232" y="882" type="line"/>
      <point x="837" y="1155" type="line"/>
      <point x="790" y="1248" type="line"/>
      <point x="185" y="979" type="line"/>
    </contour>
  </outline>
</glyph>
<glyph name="divide" format="1">
  <advance width="847"/>
  <unicode hex="00F7"/>
  <outline>
    <contour>
      <point x="354" y="186" type="line"/>
      <point x="494" y="186" type="line"/>
      <point x="494" y="338" type="line"/>
      <point x="354" y="338" type="line"/>
    </contour>
    <contour>
      <point x="53" y="494" type="line"/>
      <point x="795" y="494" type="line"/>
      <point x="795" y="591" type="line"/>
      <point x="53" y="591" type="line"/>
    </contour>
    <contour>
      <point x="354" y="741" type="line"/>
      <point x="494" y="741" type="line"/>
      <point x="494" y="893" type="line"/>
      <point x="354" y="893" type="line"/>
    </contour>
  </outline>
</glyph>
<glyph name="oslash" format="1">
  <advance width="985"/>
  <unicode hex="00F8"/>
  <outline>
    <contour>
      <point x="253" y="-139" type="line"/>
      <point x="818" y="912" type="line"/>
      <point x="743" y="948" type="line"/>
      <point x="178" y="-103" type="line"/>
    </contour>
    <component base="o"/>
  </outline>
</glyph>
<glyph name="thorn" format="1">
  <advance width="1102"/>
  <unicode hex="00FE"/>
  <outline>
    <contour>
      <point x="28" y="-344" type="line"/>
      <point x="337" y="-344" type="line"/>
      <point x="338" y="1152" type="line"/>
      <point x="31" y="1152" type="line"/>
      <point x="31" y="1039" type="line"/>
      <point x="179" y="1039" type="line"/>
      <point x="179" y="-228" type="line"/>
      <point x="28" y="-228" type="line"/>
    </contour>
    <component base="lc_bowl_right" xOffset="-5" yOffset="21"/>
  </outline>
</glyph>
<glyph name="kgreenlandic" format="1">
  <advance width="1076"/>
  <unicode hex="0138"/>
  <outline>
    <contour>
      <point x="826" y="0" type="line"/>
      <point x="1042" y="0" type="line"/>
      <point x="1042" y="113" type="line"/>
      <point x="896" y="113" type="line"/>
      <point x="549" y="404" type="line"/>
      <point x="893" y="692" type="line"/>
      <point x="1032" y="692" type="line"/>
      <point x="1032" y="804" type="line"/>
      <point x="580" y="804" type="line"/>
      <point x="580" y="692" type="line"/>
      <point x="718" y="692" type="line"/>
      <point x="366" y="395" type="line"/>
    </contour>
    <contour>
      <point x="79" y="0" type="line"/>
      <point x="500" y="0" type="line"/>
      <point x="500" y="113" type="line"/>
      <point x="383" y="113" type="line"/>
      <point x="383" y="804" type="line"/>
      <point x="80" y="804" type="line"/>
      <point x="80" y="692" type="line"/>
      <point x="227" y="692" type="line"/>
      <point x="227" y="113" type="line"/>
      <point x="79" y="113" type="line"/>
    </contour>
  </outline>
</glyph>
<glyph name="Eng" format="1">
  <advance width="1442"/>
  <unicode hex="014A"/>
  <outline>
    <contour>
      <point x="799" y="-383" type="line"/>
      <point x="1037" y="-383"/>
      <point x="1227" y="-291"/>
      <point x="1227" y="-27" type="curve" smooth="yes"/>
      <point x="1227" y="184" type="line"/>
      <point x="1094" y="184" type="line"/>
      <point x="1095" y="-38" type="line" smooth="yes"/>
      <point x="1096" y="-199"/>
      <point x="990" y="-269"/>
      <point x="800" y="-269" type="curve"/>
    </contour>
    <component base="N"/>
  </outline>
</glyph>
<glyph name="eng" format="1">
  <advance width="1058"/>
  <unicode hex="014B"/>
  <outline>
    <contour>
      <point x="481" y="-324" type="line"/>
      <point x="719" y="-324"/>
      <point x="909" y="-232"/>
      <point x="909" y="32" type="curve" smooth="yes"/>
      <point x="909" y="555" type="line" smooth="yes"/>
      <point x="909" y="731"/>
      <point x="789" y="826"/>
      <point x="644" y="826" type="curve" smooth="yes"/>
      <point x="516" y="826"/>
      <point x="387" y="751"/>
      <point x="272" y="660" type="curve"/>
      <point x="272" y="548" type="line"/>
      <point x="362" y="628"/>
      <point x="492" y="702"/>
      <point x="603" y="702" type="curve" smooth="yes"/>
      <point x="696" y="702"/>
      <point x="753" y="638"/>
      <point x="753" y="524" type="curve" smooth="yes"/>
      <point x="753" y="22" type="line" smooth="yes"/>
      <point x="753" y="-139"/>
      <point x="672" y="-210"/>
      <point x="482" y="-210" type="curve"/>
    </contour>
    <component base="lc_xheight_stem" xOffset="-78"/>
  </outline>
</glyph>
<glyph name="OE" format="1">
  <advance width="2022"/>
  <unicode hex="0152"/>
  <outline>
    <contour>
      <point x="796" y="0" type="curve" smooth="yes"/>
      <point x="1910" y="0" type="line"/>
      <point x="1910" y="355" type="line"/>
      <point x="1776" y="355" type="line"/>
      <point x="1776" y="111" type="line"/>
      <point x="1231" y="111" type="line"/>
      <point x="1231" y="530" type="line"/>
      <point x="1586" y="530" type="line"/>
      <point x="1586" y="398" type="line"/>
      <point x="1672" y="398" type="line"/>
      <point x="1672" y="775" type="line"/>
      <point x="1587" y="775" type="line"/>
      <point x="1587" y="646" type="line"/>
      <point x="1231" y="646" type="line"/>
      <point x="1231" y="1041" type="line"/>
      <point x="1767" y="1041" type="line"/>
      <point x="1767" y="808" type="line"/>
      <point x="1900" y="808" type="line"/>
      <point x="1900" y="1152" type="line"/>
      <point x="796" y="1152" type="line"/>
      <point x="400" y="1152"/>
      <point x="155" y="934"/>
      <point x="155" y="580" type="curve" smooth="yes"/>
      <point x="155" y="222"/>
      <point x="401" y="0"/>
    </contour>
    <contour>
      <point x="809" y="111" type="line"/>
      <point x="521" y="111"/>
      <point x="342" y="290"/>
      <point x="342" y="579" type="curve"/>
      <point x="342" y="866"/>
      <point x="522" y="1041"/>
      <point x="807" y="1041" type="curve" smooth="yes"/>
      <point x="1059" y="1041" type="line"/>
      <point x="1059" y="111" type="line"/>
    </contour>
  </outline>
</glyph>
<glyph name="oe" format="1">
  <advance width="1720"/>
  <unicode hex="0153"/>
  <outline>
    <contour>
      <point x="512" y="-22" type="curve" smooth="yes"/>
      <point x="671" y="-22"/>
      <point x="797" y="53"/>
      <point x="866" y="171" type="curve"/>
      <point x="939" y="50"/>
      <point x="1072" y="-22"/>
      <point x="1231" y="-22" type="curve" smooth="yes"/>
      <point x="1384" y="-22"/>
      <point x="1512" y="31"/>
      <point x="1592" y="127" type="curve"/>
      <point x="1513" y="210" type="line"/>
      <point x="1446" y="139"/>
      <point x="1337" y="93"/>
      <point x="1237" y="93" type="curve" smooth="yes"/>
      <point x="1066" y="93"/>
      <point x="954" y="201"/>
      <point x="944" y="368" type="curve"/>
      <point x="1608" y="368" type="line"/>
      <point x="1606" y="645"/>
      <point x="1464" y="826"/>
      <point x="1220" y="826" type="curve" smooth="yes"/>
      <point x="1074" y="826"/>
      <point x="942" y="756"/>
      <point x="869" y="629" type="curve"/>
      <point x="798" y="752"/>
      <point x="671" y="826"/>
      <point x="514" y="826" type="curve" smooth="yes"/>
      <point x="262" y="826"/>
      <point x="84" y="648"/>
      <point x="84" y="401" type="curve" smooth="yes"/>
      <point x="84" y="156"/>
      <point x="257" y="-22"/>
    </contour>
    <contour>
      <point x="513" y="96" type="curve" smooth="yes"/>
      <point x="347" y="96"/>
      <point x="240" y="222"/>
      <point x="240" y="401" type="curve" smooth="yes"/>
      <point x="240" y="579"/>
      <point x="346" y="704"/>
      <point x="512" y="704" type="curve" smooth="yes"/>
      <point x="680" y="704"/>
      <point x="788" y="579"/>
      <point x="788" y="401" type="curve" smooth="yes"/>
      <point x="788" y="222"/>
      <point x="679" y="96"/>
    </contour>
    <contour>
      <point x="946" y="460" type="line"/>
      <point x="964" y="612"/>
      <point x="1063" y="711"/>
      <point x="1219" y="711" type="curve" smooth="yes"/>
      <point x="1361" y="711"/>
      <point x="1445" y="616"/>
      <point x="1463" y="460" type="curve"/>
    </contour>
  </outline>
</glyph>
<glyph name="florin" format="1">
  <advance width="1029"/>
  <unicode hex="0192"/>
  <outline>
    <contour>
      <point x="490" y="947" type="curve" smooth="yes"/>
      <point x="463" y="788" type="line"/>
      <point x="298" y="788" type="line"/>
      <point x="288" y="696" type="line"/>
      <point x="452" y="696" type="line"/>
      <point x="361" y="43" type="line" smooth="yes"/>
      <point x="328" y="-213"/>
      <point x="220" y="-202"/>
      <point x="132" y="-179" type="curve"/>
      <point x="119" y="-263" type="line"/>
      <point x="280" y="-307"/>
      <point x="465" y="-270"/>
      <point x="506" y="42" type="curve" smooth="yes"/>
      <point x="600" y="696" type="line"/>
      <point x="812" y="696" type="line"/>
      <point x="823" y="788" type="line"/>
      <point x="614" y="788" type="line"/>
      <point x="638" y="952" type="line" smooth="yes"/>
      <point x="659" y="1106"/>
      <point x="696" y="1151"/>
      <point x="750" y="1150" type="curve" smooth="yes"/>
      <point x="798" y="1149"/>
      <point x="821" y="1099"/>
      <point x="814" y="1010" type="curve"/>
      <point x="921" y="1010"/>
      <point x="957" y="1059"/>
      <point x="962" y="1109" type="curve" smooth="yes"/>
      <point x="968" y="1176"/>
      <point x="903" y="1222"/>
      <point x="785" y="1223" type="curve" smooth="yes"/>
      <point x="577" y="1224"/>
      <point x="512" y="1080"/>
    </contour>
  </outline>
</glyph>
<glyph name="dotlessj" format="1">
  <advance width="516"/>
  <unicode hex="0237"/>
  <outline>
    <contour>
      <point x="276" y="804" type="move" name="top"/>
    </contour>
    <contour>
      <point x="9" y="-315" type="line"/>
      <point x="99" y="-315" type="line" smooth="yes"/>
      <point x="375" y="-315"/>
      <point x="389" y="-162"/>
      <point x="389" y="26" type="curve" smooth="yes"/>
      <point x="389" y="804" type="line"/>
      <point x="65" y="804" type="line"/>
      <point x="65" y="693" type="line"/>
      <point x="230" y="693" type="line"/>
      <point x="230" y="-20" type="line" smooth="yes"/>
      <point x="230" y="-139"/>
      <point x="210" y="-192"/>
      <point x="96" y="-192" type="curve" smooth="yes"/>
      <point x="9" y="-192" type="line"/>
    </contour>
  </outline>
</glyph>
<glyph name="apostrophemod" format="1">
  <advance width="600"/>
  <unicode hex="02BC"/>
  <outline>
    <contour>
      <point x="124" y="804" type="move" name="_top"/>
    </contour>
    <contour>
      <point x="75" y="906" type="line"/>
      <point x="214" y="906"/>
      <point x="280" y="981"/>
      <point x="279" y="1104" type="curve"/>
      <point x="279" y="1293" type="line"/>
      <point x="77" y="1293" type="line"/>
      <point x="77" y="1106" type="line"/>
      <point x="192" y="1106" type="line"/>
      <point x="192" y="1020"/>
      <point x="152" y="990"/>
      <point x="75" y="976" type="curve"/>
    </contour>
  </outline>
</glyph>
<glyph name="circumflex" format="1">
  <advance width="548"/>
  <unicode hex="02C6"/>
  <outline>
    <contour>
      <point x="277" y="804" type="move" name="_top"/>
    </contour>
    <contour>
      <point x="136" y="918" type="line"/>
      <point x="272" y="1174" type="line"/>
      <point x="407" y="918" type="line"/>
      <point x="527" y="918" type="line"/>
      <point x="357" y="1241" type="line"/>
      <point x="186" y="1241" type="line"/>
      <point x="19" y="918" type="line"/>
    </contour>
  </outline>
</glyph>
<glyph name="caron" format="1">
  <advance width="525"/>
  <unicode hex="02C7"/>
  <outline>
    <contour>
      <point x="260" y="804" type="move" name="_top"/>
    </contour>
    <contour>
      <point x="186" y="917" type="line"/>
      <point x="337" y="917" type="line"/>
      <point x="500" y="1225" type="line"/>
      <point x="389" y="1225" type="line"/>
      <point x="263" y="1005" type="line"/>
      <point x="132" y="1225" type="line"/>
      <point x="21" y="1225" type="line"/>
    </contour>
  </outline>
</glyph>
<glyph name="breve" format="1">
  <advance width="486"/>
  <unicode hex="02D8"/>
  <outline>
    <contour>
      <point x="246" y="804" type="move" name="_top"/>
    </contour>
    <contour>
      <point x="244" y="920" type="curve" smooth="yes"/>
      <point x="372" y="920"/>
      <point x="460" y="1001"/>
      <point x="474" y="1129" type="curve"/>
      <point x="368" y="1129" type="line"/>
      <point x="356" y="1057"/>
      <point x="310" y="1017"/>
      <point x="244" y="1017" type="curve" smooth="yes"/>
      <point x="174" y="1017"/>
      <point x="131" y="1057"/>
      <point x="117" y="1129" type="curve"/>
      <point x="14" y="1129" type="line"/>
      <point x="27" y="1001"/>
      <point x="118" y="920"/>
    </contour>
  </outline>
</glyph>
<glyph name="dotaccent" format="1">
  <advance width="367"/>
  <unicode hex="02D9"/>
  <outline>
    <contour>
      <point x="188" y="804" type="move" name="_top"/>
    </contour>
    <contour>
      <point x="188" y="980" type="curve" smooth="yes"/>
      <point x="253" y="980"/>
      <point x="303" y="1026"/>
      <point x="303" y="1088" type="curve" smooth="yes"/>
      <point x="303" y="1147"/>
      <point x="253" y="1195"/>
      <point x="188" y="1195" type="curve"/>
      <point x="125" y="1195"/>
      <point x="75" y="1147"/>
      <point x="75" y="1088" type="curve" smooth="yes"/>
      <point x="75" y="1026"/>
      <point x="125" y="980"/>
    </contour>
  </outline>
</glyph>
<glyph name="ring" format="1">
  <advance width="452"/>
  <unicode hex="02DA"/>
  <outline>
    <contour>
      <point x="225" y="804" type="move" name="_top"/>
    </contour>
    <contour>
      <point x="225" y="877" type="curve" smooth="yes"/>
      <point x="328" y="877"/>
      <point x="389" y="948"/>
      <point x="389" y="1033" type="curve" smooth="yes"/>
      <point x="389" y="1116"/>
      <point x="330" y="1184"/>
      <point x="225" y="1184" type="curve" smooth="yes"/>
      <point x="120" y="1184"/>
      <point x="61" y="1116"/>
      <point x="60" y="1033" type="curve" smooth="yes"/>
      <point x="61" y="948"/>
      <point x="122" y="877"/>
    </contour>
    <contour>
      <point x="225" y="942" type="curve"/>
      <point x="166" y="942"/>
      <point x="133" y="982"/>
      <point x="133" y="1032" type="curve" smooth="yes"/>
      <point x="133" y="1080"/>
      <point x="166" y="1120"/>
      <point x="225" y="1120" type="curve" smooth="yes"/>
      <point x="283" y="1120"/>
      <point x="317" y="1080"/>
      <point x="317" y="1032" type="curve" smooth="yes"/>
      <point x="317" y="982"/>
      <point x="283" y="942"/>
    </contour>
  </outline>
</glyph>
<glyph name="ogonek" format="1">
  <advance width="462"/>
  <unicode hex="02DB"/>
  <outline>
    <contour>
      <point x="236" y="0" type="move" name="_ogonek"/>
    </contour>
    <contour>
      <point x="286" y="-341" type="curve" smooth="yes"/>
      <point x="330" y="-341"/>
      <point x="365" y="-331"/>
      <point x="414" y="-304" type="curve"/>
      <point x="414" y="-219" type="line"/>
      <point x="382" y="-236"/>
      <point x="355" y="-243"/>
      <point x="324" y="-243" type="curve" smooth="yes"/>
      <point x="263" y="-243"/>
      <point x="228" y="-208"/>
      <point x="228" y="-139" type="curve" smooth="yes"/>
      <point x="228" y="-94"/>
      <point x="245" y="-45"/>
      <point x="289" y="7" type="curve"/>
      <point x="196" y="7" type="line"/>
      <point x="140" y="-66"/>
      <point x="120" y="-127"/>
      <point x="120" y="-181" type="curve" smooth="yes"/>
      <point x="120" y="-278"/>
      <point x="191" y="-341"/>
    </contour>
  </outline>
</glyph>
<glyph name="tilde" format="1">
  <advance width="581"/>
  <unicode hex="02DC"/>
  <outline>
    <contour>
      <point x="298" y="800" type="move" name="_top"/>
    </contour>
    <contour>
      <point x="425" y="917" type="curve" smooth="yes"/>
      <point x="523" y="916"/>
      <point x="564" y="1001"/>
      <point x="572" y="1104" type="curve"/>
      <point x="509" y="1104" type="line"/>
      <point x="497" y="1052"/>
      <point x="474" y="1034"/>
      <point x="435" y="1034" type="curve" smooth="yes"/>
      <point x="372" y="1034"/>
      <point x="251" y="1109"/>
      <point x="174" y="1109" type="curve" smooth="yes"/>
      <point x="90" y="1109"/>
      <point x="31" y="1053"/>
      <point x="19" y="924" type="curve"/>
      <point x="85" y="924" type="line"/>
      <point x="95" y="972"/>
      <point x="115" y="991"/>
      <point x="151" y="991" type="curve" smooth="yes"/>
      <point x="220" y="991"/>
      <point x="333" y="917"/>
    </contour>
  </outline>
</glyph>
<glyph name="hungarumlaut" format="1">
  <advance width="653"/>
  <unicode hex="02DD"/>
  <outline>
    <contour>
      <point x="249" y="804" type="move" name="_top"/>
    </contour>
    <contour>
      <point x="482" y="1289" type="line"/>
      <point x="366" y="975" type="line"/>
      <point x="467" y="975" type="line"/>
      <point x="661" y="1289" type="line"/>
    </contour>
    <contour>
      <point x="198" y="1289" type="line"/>
      <point x="83" y="975" type="line"/>
      <point x="183" y="975" type="line"/>
      <point x="377" y="1289" type="line"/>
    </contour>
  </outline>
</glyph>
<glyph name="uni0307" format="1">
  <advance width="485"/>
  <unicode hex="0307"/>
  <outline>
    <contour>
      <point x="245" y="805" type="move" name="_top"/>
    </contour>
    <contour>
      <point x="243" y="940" type="curve" smooth="yes"/>
      <point x="306" y="940"/>
      <point x="343" y="987"/>
      <point x="342" y="1035" type="curve"/>
      <point x="342" y="1093"/>
      <point x="299" y="1130"/>
      <point x="243" y="1130" type="curve" smooth="yes"/>
      <point x="186" y="1130"/>
      <point x="143" y="1088"/>
      <point x="143" y="1035" type="curve" smooth="yes"/>
      <point x="143" y="985"/>
      <point x="187" y="940"/>
    </contour>
  </outline>
</glyph>
<glyph name="breveinvertedcomb" format="1">
  <advance width="682"/>
  <unicode hex="0311"/>
  <outline>
    <contour>
      <point x="339" y="837" type="move" name="_top"/>
    </contour>
    <contour>
      <point x="92" y="953" type="curve"/>
      <point x="218" y="953" type="line"/>
      <point x="231" y="1021"/>
      <point x="271" y="1058"/>
      <point x="337" y="1058" type="curve" smooth="yes"/>
      <point x="399" y="1058"/>
      <point x="443" y="1021"/>
      <point x="454" y="953" type="curve"/>
      <point x="582" y="953" type="line"/>
      <point x="567" y="1089"/>
      <point x="474" y="1178"/>
      <point x="337" y="1177" type="curve" smooth="yes"/>
      <point x="203" y="1178"/>
      <point x="106" y="1090"/>
    </contour>
  </outline>
</glyph>
<glyph name="commaturnedabovecomb" format="1">
  <advance width="600"/>
  <unicode hex="0312"/>
  <outline>
    <contour>
      <point x="185" y="804" type="move" name="_top"/>
    </contour>
    <contour>
      <point x="329" y="909" type="line"/>
      <point x="329" y="1096" type="line"/>
      <point x="214" y="1096" type="line"/>
      <point x="214" y="1182"/>
      <point x="254" y="1212"/>
      <point x="332" y="1226" type="curve"/>
      <point x="332" y="1296" type="line"/>
      <point x="193" y="1296"/>
      <point x="127" y="1221"/>
      <point x="127" y="1098" type="curve"/>
      <point x="127" y="909" type="line"/>
    </contour>
  </outline>
</glyph>
<glyph name="commaaccent" format="1">
  <advance width="369"/>
  <unicode hex="0326"/>
  <outline>
    <contour>
      <point x="211" y="0" type="move" name="_bot"/>
    </contour>
    <contour>
      <point x="112" y="-493" type="line"/>
      <point x="253" y="-493"/>
      <point x="318" y="-416"/>
      <point x="318" y="-292" type="curve" smooth="yes"/>
      <point x="318" y="-105" type="line"/>
      <point x="116" y="-105" type="line"/>
      <point x="116" y="-288" type="line"/>
      <point x="230" y="-288" type="line"/>
      <point x="230" y="-367"/>
      <point x="193" y="-409"/>
      <point x="112" y="-423" type="curve"/>
    </contour>
  </outline>
</glyph>
<glyph name="Delta" format="1">
  <advance width="1167"/>
  <unicode hex="0394"/>
  <outline>
    <contour>
      <point x="84" y="0" type="line"/>
      <point x="1083" y="0" type="line"/>
      <point x="1083" y="69" type="line"/>
      <point x="652" y="1152" type="line"/>
      <point x="506" y="1152" type="line"/>
      <point x="84" y="69" type="line"/>
    </contour>
    <contour>
      <point x="233" y="116" type="line"/>
      <point x="558" y="984" type="line"/>
      <point x="885" y="116" type="line"/>
    </contour>
  </outline>
</glyph>
<glyph name="Sigma" format="1">
  <advance width="936"/>
  <unicode hex="03A3"/>
  <outline>
    <contour>
      <point x="83" y="0" type="line"/>
      <point x="887" y="0" type="line"/>
      <point x="887" y="127" type="line"/>
      <point x="306" y="127" type="line"/>
      <point x="720" y="569" type="line"/>
      <point x="320" y="1029" type="line"/>
      <point x="853" y="1029" type="line"/>
      <point x="853" y="1152" type="line"/>
      <point x="100" y="1152" type="line"/>
      <point x="100" y="1072" type="line"/>
      <point x="510" y="569" type="line"/>
      <point x="83" y="83" type="line"/>
    </contour>
  </outline>
</glyph>
<glyph name="Omega" format="1">
  <advance width="1426"/>
  <unicode hex="03A9"/>
  <outline>
    <contour>
      <point x="125" y="0" type="line"/>
      <point x="614" y="0" type="line"/>
      <point x="614" y="109" type="line"/>
      <point x="397" y="213"/>
      <point x="297" y="424"/>
      <point x="297" y="618" type="curve" smooth="yes"/>
      <point x="297" y="841"/>
      <point x="437" y="1043"/>
      <point x="713" y="1043" type="curve" smooth="yes"/>
      <point x="988" y="1043"/>
      <point x="1129" y="840"/>
      <point x="1129" y="618" type="curve" smooth="yes"/>
      <point x="1129" y="424"/>
      <point x="1029" y="213"/>
      <point x="812" y="109" type="curve"/>
      <point x="812" y="0" type="line"/>
      <point x="1301" y="0" type="line"/>
      <point x="1301" y="113" type="line"/>
      <point x="1005" y="113" type="line"/>
      <point x="1211" y="238"/>
      <point x="1306" y="434"/>
      <point x="1306" y="622" type="curve" smooth="yes"/>
      <point x="1306" y="905"/>
      <point x="1089" y="1174"/>
      <point x="713" y="1174" type="curve" smooth="yes"/>
      <point x="338" y="1174"/>
      <point x="120" y="904"/>
      <point x="120" y="621" type="curve" smooth="yes"/>
      <point x="120" y="433"/>
      <point x="216" y="238"/>
      <point x="421" y="113" type="curve"/>
      <point x="125" y="113" type="line"/>
    </contour>
  </outline>
</glyph>
<glyph name="mu" format="1">
  <advance width="1045"/>
  <unicode hex="03BC"/>
  <outline>
    <contour>
      <point x="158" y="-277" type="line"/>
      <point x="310" y="-277" type="line"/>
      <point x="310" y="406" type="line"/>
      <point x="158" y="406" type="line"/>
    </contour>
    <component base="u"/>
  </outline>
</glyph>
<glyph name="pi" format="1">
  <advance width="1167"/>
  <unicode hex="03C0"/>
  <outline>
    <contour>
      <point x="898" y="-16" type="curve" smooth="yes"/>
      <point x="947" y="-16"/>
      <point x="1002" y="-2"/>
      <point x="1047" y="25" type="curve"/>
      <point x="1047" y="105" type="line"/>
      <point x="1013" y="95"/>
      <point x="980" y="89"/>
      <point x="952" y="89" type="curve" smooth="yes"/>
      <point x="878" y="89"/>
      <point x="830" y="131"/>
      <point x="830" y="231" type="curve" smooth="yes"/>
      <point x="830" y="320"/>
      <point x="846" y="487"/>
      <point x="866" y="644" type="curve"/>
      <point x="1063" y="644" type="line"/>
      <point x="1063" y="804" type="line"/>
      <point x="362" y="804" type="line" smooth="yes"/>
      <point x="202" y="804"/>
      <point x="140" y="680"/>
      <point x="140" y="535" type="curve"/>
      <point x="217" y="535" type="line"/>
      <point x="224" y="605"/>
      <point x="256" y="644"/>
      <point x="314" y="644" type="curve" smooth="yes"/>
      <point x="394" y="644" type="line"/>
      <point x="338" y="278" type="line" smooth="yes"/>
      <point x="313" y="122"/>
      <point x="238" y="68"/>
      <point x="148" y="68" type="curve"/>
      <point x="148" y="-1" type="line"/>
      <point x="393" y="-1"/>
      <point x="462" y="72"/>
      <point x="474" y="242" type="curve" smooth="yes"/>
      <point x="505" y="644" type="line"/>
      <point x="777" y="644" type="line"/>
      <point x="733" y="493"/>
      <point x="687" y="322"/>
      <point x="687" y="206" type="curve" smooth="yes"/>
      <point x="687" y="67"/>
      <point x="745" y="-16"/>
    </contour>
  </outline>
</glyph>
<glyph name="quoteleft" format="1">
  <advance width="482"/>
  <unicode hex="2018"/>
  <outline>
    <contour>
      <point x="135" y="856" type="line"/>
      <point x="308" y="856" type="line"/>
      <point x="308" y="1038" type="line"/>
      <point x="229" y="1038" type="line"/>
      <point x="229" y="1124"/>
      <point x="248" y="1152"/>
      <point x="315" y="1170" type="curve"/>
      <point x="315" y="1248" type="line"/>
      <point x="180" y="1247"/>
      <point x="135" y="1165"/>
      <point x="135" y="1036" type="curve" smooth="yes"/>
    </contour>
  </outline>
</glyph>
<glyph name="quoteright" format="1">
  <advance width="484"/>
  <unicode hex="2019"/>
  <outline>
    <contour>
      <point x="175" y="836" type="line"/>
      <point x="310" y="838"/>
      <point x="354" y="920"/>
      <point x="354" y="1049" type="curve" smooth="yes"/>
      <point x="354" y="1228" type="line"/>
      <point x="181" y="1228" type="line"/>
      <point x="181" y="1048" type="line"/>
      <point x="262" y="1048" type="line"/>
      <point x="259" y="961"/>
      <point x="243" y="931"/>
      <point x="175" y="915" type="curve"/>
    </contour>
  </outline>
</glyph>
<glyph name="quotesinglbase" format="1">
  <advance width="481"/>
  <unicode hex="201A"/>
  <outline>
    <contour>
      <point x="174" y="-221" type="line"/>
      <point x="309" y="-220"/>
      <point x="353" y="-137"/>
      <point x="353" y="-9" type="curve" smooth="yes"/>
      <point x="353" y="171" type="line"/>
      <point x="180" y="171" type="line"/>
      <point x="180" y="-10" type="line"/>
      <point x="261" y="-10" type="line"/>
      <point x="259" y="-97"/>
      <point x="242" y="-126"/>
      <point x="174" y="-143" type="curve"/>
    </contour>
  </outline>
</glyph>
<glyph name="quotedblleft" format="1">
  <advance width="791"/>
  <unicode hex="201C"/>
  <outline>
    <contour>
      <point x="163" y="856" type="line"/>
      <point x="336" y="856" type="line"/>
      <point x="336" y="1038" type="line"/>
      <point x="257" y="1038" type="line"/>
      <point x="258" y="1124"/>
      <point x="275" y="1152"/>
      <point x="343" y="1170" type="curve"/>
      <point x="343" y="1248" type="line"/>
      <point x="208" y="1247"/>
      <point x="163" y="1165"/>
      <point x="163" y="1036" type="curve" smooth="yes"/>
    </contour>
    <contour>
      <point x="437" y="856" type="line"/>
      <point x="610" y="856" type="line"/>
      <point x="610" y="1038" type="line"/>
      <point x="531" y="1038" type="line"/>
      <point x="532" y="1124"/>
      <point x="550" y="1152"/>
      <point x="617" y="1170" type="curve"/>
      <point x="617" y="1248" type="line"/>
      <point x="482" y="1246"/>
      <point x="437" y="1165"/>
      <point x="437" y="1036" type="curve" smooth="yes"/>
    </contour>
  </outline>
</glyph>
<glyph name="quotedblright" format="1">
  <advance width="787"/>
  <unicode hex="201D"/>
  <outline>
    <contour>
      <point x="179" y="836" type="line"/>
      <point x="314" y="838"/>
      <point x="358" y="920"/>
      <point x="358" y="1049" type="curve" smooth="yes"/>
      <point x="358" y="1228" type="line"/>
      <point x="185" y="1228" type="line"/>
      <point x="185" y="1048" type="line"/>
      <point x="266" y="1048" type="line"/>
      <point x="263" y="961"/>
      <point x="247" y="931"/>
      <point x="179" y="915" type="curve"/>
    </contour>
    <contour>
      <point x="448" y="836" type="line"/>
      <point x="583" y="838"/>
      <point x="627" y="920"/>
      <point x="627" y="1049" type="curve" smooth="yes"/>
      <point x="627" y="1228" type="line"/>
      <point x="454" y="1228" type="line"/>
      <point x="454" y="1048" type="line"/>
      <point x="535" y="1048" type="line"/>
      <point x="532" y="961"/>
      <point x="516" y="931"/>
      <point x="448" y="915" type="curve"/>
    </contour>
  </outline>
</glyph>
<glyph name="quotedblbase" format="1">
  <advance width="834"/>
  <unicode hex="201E"/>
  <outline>
    <contour>
      <point x="178" y="-221" type="line"/>
      <point x="313" y="-220"/>
      <point x="357" y="-137"/>
      <point x="357" y="-9" type="curve" smooth="yes"/>
      <point x="357" y="171" type="line"/>
      <point x="184" y="171" type="line"/>
      <point x="184" y="-10" type="line"/>
      <point x="264" y="-10" type="line"/>
      <point x="263" y="-97"/>
      <point x="246" y="-126"/>
      <point x="178" y="-143" type="curve"/>
    </contour>
    <contour>
      <point x="494" y="-221" type="line"/>
      <point x="629" y="-220"/>
      <point x="673" y="-137"/>
      <point x="673" y="-9" type="curve" smooth="yes"/>
      <point x="673" y="171" type="line"/>
      <point x="500" y="171" type="line"/>
      <point x="500" y="-10" type="line"/>
      <point x="580" y="-10" type="line"/>
      <point x="579" y="-97"/>
      <point x="562" y="-126"/>
      <point x="494" y="-143" type="curve"/>
    </contour>
  </outline>
</glyph>
<glyph name="dagger" format="1">
  <advance width="711"/>
  <unicode hex="2020"/>
  <outline>
    <contour>
      <point x="319" y="-144" type="curve"/>
      <point x="389" y="-144" type="line"/>
      <point x="389" y="186"/>
      <point x="426" y="395"/>
      <point x="451" y="562" type="curve"/>
      <point x="451" y="596"/>
      <point x="397" y="746"/>
      <point x="389" y="785" type="curve"/>
      <point x="657" y="747" type="line"/>
      <point x="657" y="902" type="line"/>
      <point x="389" y="868" type="line"/>
      <point x="443" y="1193" type="line"/>
      <point x="268" y="1193" type="line"/>
      <point x="319" y="868" type="line"/>
      <point x="50" y="902" type="line"/>
      <point x="50" y="747" type="line"/>
      <point x="319" y="785" type="line"/>
      <point x="311" y="746"/>
      <point x="260" y="595"/>
      <point x="260" y="561" type="curve"/>
      <point x="282" y="393"/>
      <point x="319" y="184"/>
    </contour>
  </outline>
</glyph>
<glyph name="daggerdbl" format="1">
  <advance width="707"/>
  <unicode hex="2021"/>
  <outline>
    <contour>
      <point x="265" y="-164" type="line"/>
      <point x="444" y="-164" type="line"/>
      <point x="390" y="107" type="line"/>
      <point x="666" y="72" type="line"/>
      <point x="666" y="231" type="line"/>
      <point x="404" y="190" type="line"/>
      <point x="407" y="206"/>
      <point x="399" y="494"/>
      <point x="399" y="531" type="curve" smooth="yes"/>
      <point x="399" y="569"/>
      <point x="407" y="855"/>
      <point x="404" y="872" type="curve"/>
      <point x="666" y="832" type="line"/>
      <point x="666" y="990" type="line"/>
      <point x="390" y="955" type="line"/>
      <point x="444" y="1226" type="line"/>
      <point x="265" y="1226" type="line"/>
      <point x="317" y="955" type="line"/>
      <point x="40" y="990" type="line"/>
      <point x="40" y="832" type="line"/>
      <point x="303" y="872" type="line"/>
      <point x="300" y="856"/>
      <point x="307" y="572"/>
      <point x="307" y="535" type="curve" smooth="yes"/>
      <point x="307" y="497"/>
      <point x="300" y="206"/>
      <point x="303" y="190" type="curve"/>
      <point x="40" y="231" type="line"/>
      <point x="40" y="72" type="line"/>
      <point x="317" y="107" type="line"/>
    </contour>
  </outline>
</glyph>
<glyph name="bullet" format="1">
  <advance width="613"/>
  <unicode hex="2022"/>
  <outline>
    <contour>
      <point x="307" y="395" type="curve" smooth="yes"/>
      <point x="426" y="395"/>
      <point x="523" y="488"/>
      <point x="523" y="603" type="curve" smooth="yes"/>
      <point x="523" y="719"/>
      <point x="426" y="809"/>
      <point x="307" y="809" type="curve" smooth="yes"/>
      <point x="187" y="809"/>
      <point x="92" y="719"/>
      <point x="92" y="603" type="curve" smooth="yes"/>
      <point x="92" y="489"/>
      <point x="187" y="395"/>
    </contour>
  </outline>
</glyph>
<glyph name="perthousand" format="1">
  <advance width="2422"/>
  <unicode hex="2030"/>
  <outline>
    <contour>
      <point x="2023" y="-22" type="curve" smooth="yes"/>
      <point x="2199" y="-22"/>
      <point x="2328" y="103"/>
      <point x="2328" y="271" type="curve" smooth="yes"/>
      <point x="2328" y="438"/>
      <point x="2199" y="560"/>
      <point x="2023" y="560" type="curve" smooth="yes"/>
      <point x="1849" y="560"/>
      <point x="1720" y="438"/>
      <point x="1720" y="271" type="curve" smooth="yes"/>
      <point x="1720" y="103"/>
      <point x="1849" y="-22"/>
    </contour>
    <contour>
      <point x="2023" y="72" type="curve" smooth="yes"/>
      <point x="1913" y="73"/>
      <point x="1831" y="157"/>
      <point x="1831" y="271" type="curve" smooth="yes"/>
      <point x="1831" y="385"/>
      <point x="1913" y="467"/>
      <point x="2023" y="468" type="curve" smooth="yes"/>
      <point x="2135" y="467"/>
      <point x="2217" y="385"/>
      <point x="2217" y="271" type="curve" smooth="yes"/>
      <point x="2217" y="157"/>
      <point x="2135" y="73"/>
    </contour>
    <component base="percent"/>
  </outline>
</glyph>
<glyph name="guilsinglright" format="1">
  <advance width="563"/>
  <unicode hex="203A"/>
  <outline>
    <contour>
      <point x="127" y="186" type="line"/>
      <point x="242" y="186" type="line"/>
      <point x="542" y="588" type="line"/>
      <point x="242" y="988" type="line"/>
      <point x="127" y="988" type="line"/>
      <point x="336" y="588" type="line"/>
    </contour>
  </outline>
</glyph>
<glyph name="fraction" format="1">
  <advance width="612"/>
  <unicode hex="2044"/>
  <outline>
    <contour>
      <point x="-105" y="-44" type="line"/>
      <point x="6" y="-44" type="line"/>
      <point x="705" y="1262" type="line"/>
      <point x="598" y="1262" type="line"/>
    </contour>
  </outline>
</glyph>
<glyph name="foursuperior" format="1">
  <advance width="907"/>
  <unicode hex="2074"/>
  <outline>
    <contour>
      <point x="373" y="534" type="line"/>
      <point x="695" y="534" type="line"/>
      <point x="695" y="617" type="line"/>
      <point x="591" y="617" type="line"/>
      <point x="591" y="770" type="line"/>
      <point x="735" y="770" type="line"/>
      <point x="735" y="852" type="line"/>
      <point x="591" y="852" type="line"/>
      <point x="591" y="1340" type="line"/>
      <point x="485" y="1340" type="line"/>
      <point x="129" y="865" type="line"/>
      <point x="142" y="770" type="line"/>
      <point x="486" y="770" type="line"/>
      <point x="486" y="617" type="line"/>
      <point x="373" y="617" type="line"/>
    </contour>
    <contour>
      <point x="236" y="852" type="line"/>
      <point x="486" y="1203" type="line"/>
      <point x="486" y="852" type="line"/>
    </contour>
  </outline>
</glyph>
<glyph name="Euro" format="1">
  <advance width="1358"/>
  <unicode hex="20AC"/>
  <outline>
    <contour>
      <point x="-25" y="408" type="line"/>
      <point x="602" y="408" type="line"/>
      <point x="638" y="506" type="line"/>
      <point x="11" y="506" type="line"/>
    </contour>
    <contour>
      <point x="-25" y="635" type="line"/>
      <point x="602" y="635" type="line"/>
      <point x="638" y="733" type="line"/>
      <point x="11" y="733" type="line"/>
    </contour>
    <component base="C"/>
  </outline>
</glyph>
<glyph name="uni2113" format="1">
  <advance width="653"/>
  <unicode hex="2113"/>
  <outline>
    <contour>
      <point x="519" y="-9" type="curve"/>
      <point x="538" y="102" type="line"/>
      <point x="367" y="102"/>
      <point x="331" y="132"/>
      <point x="358" y="312" type="curve" smooth="yes"/>
      <point x="499" y="1215" type="line"/>
      <point x="184" y="1215" type="line"/>
      <point x="168" y="1102" type="line"/>
      <point x="327" y="1102" type="line"/>
      <point x="194" y="267" type="line" smooth="yes"/>
      <point x="159" y="46"/>
      <point x="282" y="-11"/>
    </contour>
  </outline>
</glyph>
<glyph name="trademark" format="1">
  <advance width="1765"/>
  <unicode hex="2122"/>
  <outline>
    <contour>
      <point x="799" y="511" type="line"/>
      <point x="1040" y="511" type="line"/>
      <point x="1040" y="591" type="line"/>
      <point x="962" y="591" type="line"/>
      <point x="962" y="1021" type="line"/>
      <point x="1179" y="526" type="line"/>
      <point x="1216" y="526" type="line"/>
      <point x="1425" y="1021" type="line"/>
      <point x="1425" y="591" type="line"/>
      <point x="1348" y="591" type="line"/>
      <point x="1348" y="511" type="line"/>
      <point x="1606" y="511" type="line"/>
      <point x="1606" y="591" type="line"/>
      <point x="1525" y="591" type="line"/>
      <point x="1525" y="1072" type="line"/>
      <point x="1606" y="1072" type="line"/>
      <point x="1606" y="1152" type="line"/>
      <point x="1385" y="1152" type="line"/>
      <point x="1199" y="698" type="line"/>
      <point x="1012" y="1152" type="line"/>
      <point x="799" y="1152" type="line"/>
      <point x="799" y="1072" type="line"/>
      <point x="880" y="1072" type="line"/>
      <point x="880" y="591" type="line"/>
      <point x="799" y="591" type="line"/>
    </contour>
    <contour>
      <point x="285" y="511" type="line"/>
      <point x="569" y="511" type="line"/>
      <point x="569" y="591" type="line"/>
      <point x="480" y="591" type="line"/>
      <point x="480" y="1071" type="line"/>
      <point x="623" y="1071" type="line"/>
      <point x="623" y="910" type="line"/>
      <point x="706" y="910" type="line"/>
      <point x="706" y="1152" type="line"/>
      <point x="149" y="1152" type="line"/>
      <point x="149" y="910" type="line"/>
      <point x="232" y="910" type="line"/>
      <point x="232" y="1071" type="line"/>
      <point x="375" y="1071" type="line"/>
      <point x="375" y="591" type="line"/>
      <point x="285" y="591" type="line"/>
    </contour>
  </outline>
</glyph>
<glyph name="estimated" format="1">
  <advance width="984"/>
  <unicode hex="212E"/>
  <outline>
    <contour>
      <point x="575" y="-18" type="curve" smooth="yes"/>
      <point x="713" y="-18"/>
      <point x="845" y="34"/>
      <point x="948" y="123" type="curve"/>
      <point x="922" y="154" type="line"/>
      <point x="818" y="75"/>
      <point x="710" y="35"/>
      <point x="606" y="38" type="curve" smooth="yes"/>
      <point x="434" y="43"/>
      <point x="315" y="180"/>
      <point x="301" y="399" type="curve"/>
      <point x="942" y="399" type="line"/>
      <point x="942" y="665"/>
      <point x="821" y="824"/>
      <point x="558" y="824" type="curve" smooth="yes"/>
      <point x="300" y="824"/>
      <point x="127" y="670"/>
      <point x="127" y="416" type="curve" smooth="yes"/>
      <point x="127" y="133"/>
      <point x="336" y="-19"/>
    </contour>
    <contour>
      <point x="303" y="453" type="line"/>
      <point x="308" y="670"/>
      <point x="439" y="795"/>
      <point x="582" y="794" type="curve" smooth="yes"/>
      <point x="718" y="794"/>
      <point x="844" y="674"/>
      <point x="847" y="453" type="curve"/>
    </contour>
  </outline>
</glyph>
<glyph name="partialdiff" format="1">
  <advance width="1009"/>
  <unicode hex="2202"/>
  <outline>
    <contour>
      <point x="401" y="-20" type="curve" smooth="yes"/>
      <point x="752" y="-20"/>
      <point x="876" y="399"/>
      <point x="876" y="696" type="curve" smooth="yes"/>
      <point x="876" y="1019"/>
      <point x="749" y="1216"/>
      <point x="496" y="1216" type="curve" smooth="yes"/>
      <point x="338" y="1216"/>
      <point x="245" y="1145"/>
      <point x="245" y="1046" type="curve" smooth="yes"/>
      <point x="245" y="988"/>
      <point x="285" y="943"/>
      <point x="388" y="943" type="curve"/>
      <point x="388" y="1039"/>
      <point x="454" y="1127"/>
      <point x="565" y="1127" type="curve" smooth="yes"/>
      <point x="726" y="1127"/>
      <point x="808" y="818"/>
      <point x="789" y="584" type="curve"/>
      <point x="807" y="589" type="line"/>
      <point x="781" y="670"/>
      <point x="703" y="744"/>
      <point x="561" y="744" type="curve" smooth="yes"/>
      <point x="242" y="744"/>
      <point x="119" y="444"/>
      <point x="119" y="266" type="curve" smooth="yes"/>
      <point x="119" y="117"/>
      <point x="189" y="-20"/>
    </contour>
    <contour>
      <point x="472" y="70" type="curve" smooth="yes"/>
      <point x="367" y="70"/>
      <point x="319" y="148"/>
      <point x="319" y="257" type="curve" smooth="yes"/>
      <point x="319" y="401"/>
      <point x="399" y="659"/>
      <point x="604" y="659" type="curve" smooth="yes"/>
      <point x="692" y="659"/>
      <point x="756" y="614"/>
      <point x="779" y="523" type="curve"/>
      <point x="749" y="297"/>
      <point x="628" y="70"/>
    </contour>
  </outline>
</glyph>
<glyph name="emptyset" format="1">
  <advance width="1348"/>
  <unicode hex="2205"/>
  <outline>
    <contour>
      <point x="238" y="-58" type="line"/>
      <point x="352" y="76" type="line"/>
      <point x="443" y="13"/>
      <point x="554" y="-22"/>
      <point x="674" y="-22" type="curve" smooth="yes"/>
      <point x="977" y="-22"/>
      <point x="1225" y="222"/>
      <point x="1225" y="525" type="curve" smooth="yes"/>
      <point x="1225" y="677"/>
      <point x="1162" y="814"/>
      <point x="1062" y="913" type="curve"/>
      <point x="1179" y="1051" type="line"/>
      <point x="1122" y="1101" type="line"/>
      <point x="1005" y="963" type="line"/>
      <point x="912" y="1031"/>
      <point x="798" y="1073"/>
      <point x="674" y="1073" type="curve" smooth="yes"/>
      <point x="372" y="1073"/>
      <point x="124" y="846"/>
      <point x="124" y="525" type="curve" smooth="yes"/>
      <point x="124" y="358"/>
      <point x="189" y="217"/>
      <point x="295" y="121" type="curve"/>
      <point x="185" y="-10" type="line"/>
    </contour>
    <contour>
      <point x="353" y="190" type="line"/>
      <point x="268" y="271"/>
      <point x="218" y="389"/>
      <point x="218" y="524" type="curve"/>
      <point x="218" y="789"/>
      <point x="417" y="987"/>
      <point x="674" y="987" type="curve" smooth="yes"/>
      <point x="777" y="987"/>
      <point x="873" y="952"/>
      <point x="948" y="895" type="curve"/>
    </contour>
    <contour>
      <point x="673" y="64" type="curve" smooth="yes"/>
      <point x="574" y="64"/>
      <point x="483" y="92"/>
      <point x="409" y="144" type="curve"/>
      <point x="1004" y="844" type="line"/>
      <point x="1083" y="760"/>
      <point x="1132" y="647"/>
      <point x="1132" y="524" type="curve" smooth="yes"/>
      <point x="1132" y="276"/>
      <point x="931" y="64"/>
    </contour>
  </outline>
</glyph>
<glyph name="uni2206" format="1">
  <advance width="1033"/>
  <unicode hex="2206"/>
  <outline>
    <contour>
      <point x="77" y="0" type="line"/>
      <point x="960" y="0" type="line"/>
      <point x="960" y="99" type="line"/>
      <point x="612" y="1123" type="line"/>
      <point x="436" y="1123" type="line"/>
      <point x="77" y="91" type="line"/>
    </contour>
    <contour>
      <point x="192" y="108" type="line"/>
      <point x="192" y="108"/>
      <point x="467" y="931"/>
      <point x="480" y="989" type="curve"/>
      <point x="493" y="930"/>
      <point x="764" y="108"/>
      <point x="764" y="108" type="curve"/>
    </contour>
  </outline>
</glyph>
<glyph name="product" format="1">
  <advance width="1432"/>
  <unicode hex="220F"/>
  <outline>
    <contour>
      <point x="119" y="0" type="line"/>
      <point x="597" y="0" type="line"/>
      <point x="597" y="114" type="line"/>
      <point x="444" y="114" type="line"/>
      <point x="444" y="1039" type="line"/>
      <point x="988" y="1039" type="line"/>
      <point x="988" y="114" type="line"/>
      <point x="835" y="114" type="line"/>
      <point x="835" y="0" type="line"/>
      <point x="1313" y="0" type="line"/>
      <point x="1313" y="114" type="line"/>
      <point x="1161" y="114" type="line"/>
      <point x="1161" y="1039" type="line"/>
      <point x="1313" y="1039" type="line"/>
      <point x="1313" y="1152" type="line"/>
      <point x="119" y="1152" type="line"/>
      <point x="119" y="1039" type="line"/>
      <point x="271" y="1039" type="line"/>
      <point x="271" y="114" type="line"/>
      <point x="119" y="114" type="line"/>
    </contour>
  </outline>
</glyph>
<glyph name="summation" format="1">
  <advance width="1287"/>
  <unicode hex="2211"/>
  <outline>
    <contour>
      <point x="126" y="0" type="line"/>
      <point x="1124" y="0" type="line"/>
      <point x="1124" y="357" type="line"/>
      <point x="991" y="357" type="line"/>
      <point x="991" y="113" type="line"/>
      <point x="400" y="113" type="line"/>
      <point x="774" y="564" type="line"/>
      <point x="774" y="622" type="line"/>
      <point x="445" y="1040" type="line"/>
      <point x="983" y="1040" type="line"/>
      <point x="983" y="802" type="line"/>
      <point x="1115" y="802" type="line"/>
      <point x="1115" y="1152" type="line"/>
      <point x="126" y="1152" type="line"/>
      <point x="126" y="1040" type="line"/>
      <point x="280" y="1040" type="line"/>
      <point x="647" y="569" type="line"/>
      <point x="278" y="113" type="line"/>
      <point x="126" y="113" type="line"/>
    </contour>
  </outline>
</glyph>
<glyph name="radical" format="1">
  <advance width="1158"/>
  <unicode hex="221A"/>
  <outline>
    <contour>
      <point x="458" y="-14" type="line"/>
      <point x="581" y="-14" type="line"/>
      <point x="1041" y="1363" type="line"/>
      <point x="938" y="1363" type="line"/>
      <point x="535" y="163" type="line"/>
      <point x="316" y="673" type="line"/>
      <point x="18" y="673" type="line"/>
      <point x="18" y="573" type="line"/>
      <point x="190" y="573" type="line"/>
    </contour>
  </outline>
</glyph>
<glyph name="infinity" format="1">
  <advance width="1507"/>
  <unicode hex="221E"/>
  <outline>
    <contour>
      <point x="1066" y="221" type="curve" smooth="yes"/>
      <point x="1234" y="221"/>
      <point x="1362" y="375"/>
      <point x="1362" y="578" type="curve" smooth="yes"/>
      <point x="1362" y="800"/>
      <point x="1235" y="936"/>
      <point x="1068" y="936" type="curve" smooth="yes"/>
      <point x="938" y="936"/>
      <point x="840" y="860"/>
      <point x="762" y="714" type="curve"/>
      <point x="678" y="877"/>
      <point x="555" y="941"/>
      <point x="444" y="941" type="curve" smooth="yes"/>
      <point x="262" y="941"/>
      <point x="144" y="781"/>
      <point x="144" y="584" type="curve" smooth="yes"/>
      <point x="144" y="370"/>
      <point x="262" y="227"/>
      <point x="444" y="227" type="curve" smooth="yes"/>
      <point x="557" y="227"/>
      <point x="664" y="301"/>
      <point x="745" y="454" type="curve"/>
      <point x="836" y="286"/>
      <point x="949" y="221"/>
    </contour>
    <contour>
      <point x="445" y="336" type="curve" smooth="yes"/>
      <point x="318" y="336"/>
      <point x="257" y="449"/>
      <point x="257" y="582" type="curve" smooth="yes"/>
      <point x="257" y="713"/>
      <point x="325" y="831"/>
      <point x="441" y="831" type="curve" smooth="yes"/>
      <point x="544" y="831"/>
      <point x="621" y="746"/>
      <point x="690" y="584" type="curve"/>
      <point x="615" y="414"/>
      <point x="536" y="336"/>
    </contour>
    <contour>
      <point x="1063" y="331" type="curve" smooth="yes"/>
      <point x="959" y="331"/>
      <point x="887" y="410"/>
      <point x="815" y="578" type="curve"/>
      <point x="892" y="745"/>
      <point x="964" y="825"/>
      <point x="1061" y="825" type="curve" smooth="yes"/>
      <point x="1174" y="825"/>
      <point x="1250" y="718"/>
      <point x="1250" y="580" type="curve" smooth="yes"/>
      <point x="1250" y="439"/>
      <point x="1176" y="331"/>
    </contour>
  </outline>
</glyph>
<glyph name="integral" format="1">
  <advance width="861"/>
  <unicode hex="222B"/>
  <outline>
    <contour>
      <point x="154" y="-279" type="curve" smooth="yes"/>
      <point x="378" y="-279"/>
      <point x="428" y="-113"/>
      <point x="445" y="32" type="curve" smooth="yes"/>
      <point x="563" y="952" type="line" smooth="yes"/>
      <point x="580" y="1105"/>
      <point x="621" y="1151"/>
      <point x="674" y="1150" type="curve" smooth="yes"/>
      <point x="723" y="1149"/>
      <point x="746" y="1099"/>
      <point x="739" y="1010" type="curve"/>
      <point x="845" y="1010"/>
      <point x="881" y="1059"/>
      <point x="886" y="1109" type="curve" smooth="yes"/>
      <point x="892" y="1176"/>
      <point x="827" y="1222"/>
      <point x="710" y="1223" type="curve" smooth="yes"/>
      <point x="502" y="1224"/>
      <point x="431" y="1081"/>
      <point x="415" y="947" type="curve" smooth="yes"/>
      <point x="294" y="-8" type="line" smooth="yes"/>
      <point x="276" y="-158"/>
      <point x="240" y="-206"/>
      <point x="191" y="-206" type="curve" smooth="yes"/>
      <point x="142" y="-206"/>
      <point x="113" y="-166"/>
      <point x="122" y="-61" type="curve"/>
      <point x="15" y="-61"/>
      <point x="-21" y="-109"/>
      <point x="-26" y="-157" type="curve" smooth="yes"/>
      <point x="-32" y="-225"/>
      <point x="27" y="-279"/>
    </contour>
  </outline>
</glyph>
<glyph name="approxequal" format="1">
  <advance width="1077"/>
  <unicode hex="2248"/>
  <outline>
    <contour>
      <point x="947" y="947" type="line"/>
      <point x="885" y="890"/>
      <point x="811" y="846"/>
      <point x="745" y="846" type="curve" smooth="yes"/>
      <point x="694" y="846"/>
      <point x="652" y="859"/>
      <point x="566" y="896" type="curve" smooth="yes"/>
      <point x="458" y="941"/>
      <point x="411" y="953"/>
      <point x="341" y="953" type="curve" smooth="yes"/>
      <point x="258" y="953"/>
      <point x="187" y="923"/>
      <point x="128" y="862" type="curve"/>
      <point x="128" y="731" type="line"/>
      <point x="185" y="789"/>
      <point x="260" y="831"/>
      <point x="324" y="831" type="curve" smooth="yes"/>
      <point x="379" y="831"/>
      <point x="422" y="818"/>
      <point x="510" y="781" type="curve" smooth="yes"/>
      <point x="616" y="736"/>
      <point x="661" y="725"/>
      <point x="728" y="725" type="curve" smooth="yes"/>
      <point x="813" y="725"/>
      <point x="886" y="755"/>
      <point x="947" y="817" type="curve"/>
    </contour>
    <contour>
      <point x="947" y="642" type="line"/>
      <point x="885" y="585"/>
      <point x="811" y="541"/>
      <point x="745" y="541" type="curve" smooth="yes"/>
      <point x="694" y="541"/>
      <point x="652" y="554"/>
      <point x="566" y="591" type="curve" smooth="yes"/>
      <point x="458" y="636"/>
      <point x="411" y="648"/>
      <point x="341" y="648" type="curve" smooth="yes"/>
      <point x="258" y="648"/>
      <point x="187" y="618"/>
      <point x="128" y="557" type="curve"/>
      <point x="128" y="426" type="line"/>
      <point x="185" y="484"/>
      <point x="260" y="526"/>
      <point x="324" y="526" type="curve" smooth="yes"/>
      <point x="379" y="526"/>
      <point x="422" y="513"/>
      <point x="510" y="476" type="curve" smooth="yes"/>
      <point x="616" y="431"/>
      <point x="661" y="419"/>
      <point x="728" y="419" type="curve" smooth="yes"/>
      <point x="813" y="419"/>
      <point x="886" y="450"/>
      <point x="947" y="512" type="curve"/>
    </contour>
  </outline>
</glyph>
<glyph name="notequal" format="1">
  <advance width="1053"/>
  <unicode hex="2260"/>
  <outline>
    <contour>
      <point x="355" y="23" type="line"/>
      <point x="471" y="23" type="line"/>
      <point x="522" y="226" type="line"/>
      <point x="940" y="226" type="line"/>
      <point x="940" y="339" type="line"/>
      <point x="552" y="339" type="line"/>
      <point x="609" y="550" type="line"/>
      <point x="930" y="550" type="line"/>
      <point x="930" y="665" type="line"/>
      <point x="640" y="665" type="line"/>
      <point x="696" y="867" type="line"/>
      <point x="583" y="867" type="line"/>
      <point x="526" y="665" type="line"/>
      <point x="109" y="665" type="line"/>
      <point x="109" y="550" type="line"/>
      <point x="494" y="550" type="line"/>
      <point x="436" y="339" type="line"/>
      <point x="119" y="339" type="line"/>
      <point x="119" y="226" type="line"/>
      <point x="407" y="226" type="line"/>
    </contour>
  </outline>
</glyph>
<glyph name="lessequal" format="1">
  <advance width="919"/>
  <unicode hex="2264"/>
  <outline>
    <contour>
      <point x="829" y="205" type="line"/>
      <point x="829" y="335" type="line"/>
      <point x="200" y="673" type="line"/>
      <point x="829" y="1014" type="line"/>
      <point x="829" y="1145" type="line"/>
      <point x="20" y="708" type="line"/>
      <point x="20" y="640" type="line"/>
    </contour>
    <contour>
      <point x="20" y="0" type="line"/>
      <point x="829" y="0" type="line"/>
      <point x="829" y="116" type="line"/>
      <point x="20" y="116" type="line"/>
    </contour>
  </outline>
</glyph>
<glyph name="greaterequal" format="1">
  <advance width="921"/>
  <unicode hex="2265"/>
  <outline>
    <contour>
      <point x="94" y="205" type="line"/>
      <point x="904" y="640" type="line"/>
      <point x="904" y="708" type="line"/>
      <point x="94" y="1145" type="line"/>
      <point x="94" y="1014" type="line"/>
      <point x="723" y="673" type="line"/>
      <point x="94" y="335" type="line"/>
    </contour>
    <contour>
      <point x="94" y="0" type="line"/>
      <point x="904" y="0" type="line"/>
      <point x="904" y="116" type="line"/>
      <point x="94" y="116" type="line"/>
    </contour>
  </outline>
</glyph>
<glyph name="lozenge" format="1">
  <advance width="1087"/>
  <unicode hex="25CA"/>
  <outline>
    <contour>
      <point x="504" y="-8" type="line"/>
      <point x="584" y="-8" type="line"/>
      <point x="1046" y="599" type="line"/>
      <point x="584" y="1197" type="line"/>
      <point x="504" y="1197" type="line"/>
      <point x="41" y="598" type="line"/>
    </contour>
    <contour>
      <point x="546" y="120" type="line"/>
      <point x="201" y="599" type="line"/>
      <point x="546" y="1064" type="line"/>
      <point x="887" y="599" type="line"/>
    </contour>
  </outline>
</glyph>
<glyph name="fi" format="1">
  <advance width="1176"/>
  <unicode hex="FB01"/>
  <outline>
    <contour>
      <point x="104" y="0" type="line"/>
      <point x="575" y="0" type="line"/>
      <point x="575" y="112" type="line"/>
      <point x="399" y="112" type="line"/>
      <point x="399" y="692" type="line"/>
      <point x="846" y="692" type="line"/>
      <point x="846" y="112" type="line"/>
      <point x="699" y="112" type="line"/>
      <point x="699" y="0" type="line"/>
      <point x="1140" y="0" type="line"/>
      <point x="1140" y="112" type="line"/>
      <point x="1003" y="112" type="line"/>
      <point x="1003" y="804" type="line"/>
      <point x="399" y="804" type="line"/>
      <point x="399" y="912" type="line" smooth="yes"/>
      <point x="399" y="1104"/>
      <point x="499" y="1177"/>
      <point x="650" y="1177" type="curve" smooth="yes"/>
      <point x="725" y="1177"/>
      <point x="808" y="1156"/>
      <point x="845" y="1118" type="curve"/>
      <point x="830" y="1105"/>
      <point x="823" y="1085"/>
      <point x="823" y="1065" type="curve" smooth="yes"/>
      <point x="823" y="1013"/>
      <point x="866" y="973"/>
      <point x="922" y="973" type="curve" smooth="yes"/>
      <point x="978" y="973"/>
      <point x="1020" y="1014"/>
      <point x="1020" y="1068" type="curve" smooth="yes"/>
      <point x="1020" y="1190"/>
      <point x="846" y="1270"/>
      <point x="650" y="1270" type="curve" smooth="yes"/>
      <point x="420" y="1270"/>
      <point x="241" y="1163"/>
      <point x="241" y="914" type="curve" smooth="yes"/>
      <point x="241" y="804" type="line"/>
      <point x="99" y="804" type="line"/>
      <point x="99" y="692" type="line"/>
      <point x="241" y="692" type="line"/>
      <point x="241" y="112" type="line"/>
      <point x="104" y="112" type="line"/>
    </contour>
  </outline>
</glyph>
<glyph name="fl" format="1">
  <advance width="1240"/>
  <unicode hex="FB02"/>
  <outline>
    <contour>
      <point x="104" y="0" type="line"/>
      <point x="575" y="0" type="line"/>
      <point x="575" y="112" type="line"/>
      <point x="399" y="112" type="line"/>
      <point x="399" y="692" type="line"/>
      <point x="578" y="692" type="line"/>
      <point x="578" y="804" type="line"/>
      <point x="399" y="804" type="line"/>
      <point x="399" y="953" type="line" smooth="yes"/>
      <point x="399" y="1072"/>
      <point x="543" y="1129"/>
      <point x="686" y="1129" type="curve" smooth="yes"/>
      <point x="785" y="1129"/>
      <point x="860" y="1105"/>
      <point x="860" y="1066" type="curve" smooth="yes"/>
      <point x="860" y="112" type="line"/>
      <point x="860" y="64"/>
      <point x="902" y="0"/>
      <point x="960" y="0" type="curve"/>
      <point x="1183" y="0" type="line"/>
      <point x="1183" y="112" type="line"/>
      <point x="1018" y="112" type="line"/>
      <point x="1018" y="1108" type="line" smooth="yes"/>
      <point x="1018" y="1202"/>
      <point x="872" y="1258"/>
      <point x="695" y="1258" type="curve" smooth="yes"/>
      <point x="468" y="1258"/>
      <point x="241" y="1159"/>
      <point x="241" y="946" type="curve" smooth="yes"/>
      <point x="241" y="804" type="line"/>
      <point x="99" y="804" type="line"/>
      <point x="99" y="692" type="line"/>
      <point x="241" y="692" type="line"/>
      <point x="241" y="112" type="line"/>
      <point x="104" y="112" type="line"/>
    </contour>
  </outline>
</glyph>
<glyph name="caron.alt" format="1">
  <advance width="600"/>
  <outline>
    <contour>
      <point x="160" y="804" type="move" name="_caron.alt"/>
    </contour>
    <contour>
      <point x="148" y="786" type="line"/>
      <point x="290" y="786"/>
      <point x="355" y="862"/>
      <point x="354" y="986" type="curve" smooth="yes"/>
      <point x="354" y="1174" type="line"/>
      <point x="152" y="1174" type="line"/>
      <point x="152" y="990" type="line"/>
      <point x="267" y="990" type="line"/>
      <point x="267" y="911"/>
      <point x="230" y="869"/>
      <point x="148" y="855" type="curve"/>
    </contour>
  </outline>
</glyph>
<glyph name="ff" format="1">
  <advance width="1319"/>
  <outline>
    <contour>
      <point x="694" y="0" type="line"/>
      <point x="1160" y="0" type="line"/>
      <point x="1160" y="112" type="line"/>
      <point x="985" y="112" type="line"/>
      <point x="985" y="692" type="line"/>
      <point x="1169" y="692" type="line"/>
      <point x="1169" y="804" type="line"/>
      <point x="985" y="804" type="line"/>
      <point x="985" y="972" type="line" smooth="yes"/>
      <point x="985" y="1069"/>
      <point x="1022" y="1111"/>
      <point x="1077" y="1111" type="curve" smooth="yes"/>
      <point x="1138" y="1111"/>
      <point x="1165" y="1072"/>
      <point x="1176" y="997" type="curve"/>
      <point x="1298" y="1030" type="line"/>
      <point x="1287" y="1181"/>
      <point x="1177" y="1222"/>
      <point x="1072" y="1222" type="curve" smooth="yes"/>
      <point x="911" y="1222"/>
      <point x="827" y="1124"/>
      <point x="827" y="972" type="curve" smooth="yes"/>
      <point x="827" y="804" type="line"/>
      <point x="504" y="804" type="line"/>
      <point x="504" y="692" type="line"/>
      <point x="827" y="692" type="line"/>
      <point x="827" y="112" type="line"/>
      <point x="694" y="112" type="line"/>
    </contour>
    <component base="f"/>
  </outline>
</glyph>
<glyph name="ffi" format="1">
  <advance width="1737"/>
  <outline>
    <contour>
      <point x="101" y="0" type="line"/>
      <point x="537" y="0" type="line"/>
      <point x="537" y="112" type="line"/>
      <point x="392" y="112" type="line"/>
      <point x="392" y="692" type="line"/>
      <point x="751" y="692" type="line"/>
      <point x="751" y="804" type="line"/>
      <point x="392" y="804" type="line"/>
      <point x="392" y="956" type="line" smooth="yes"/>
      <point x="392" y="1070"/>
      <point x="490" y="1121"/>
      <point x="612" y="1121" type="curve" smooth="yes"/>
      <point x="708" y="1121"/>
      <point x="819" y="1084"/>
      <point x="889" y="1024" type="curve"/>
      <point x="936" y="1111" type="line"/>
      <point x="850" y="1189"/>
      <point x="717" y="1232"/>
      <point x="593" y="1232" type="curve" smooth="yes"/>
      <point x="403" y="1232"/>
      <point x="234" y="1143"/>
      <point x="234" y="965" type="curve" smooth="yes"/>
      <point x="234" y="804" type="line"/>
      <point x="97" y="804" type="line"/>
      <point x="97" y="692" type="line"/>
      <point x="234" y="692" type="line"/>
      <point x="234" y="112" type="line"/>
      <point x="101" y="112" type="line"/>
    </contour>
    <component base="fi" xOffset="566"/>
  </outline>
</glyph>
<glyph name="ffl" format="1">
  <advance width="1779"/>
  <outline>
    <contour>
      <point x="100" y="0" type="line"/>
      <point x="536" y="0" type="line"/>
      <point x="536" y="112" type="line"/>
      <point x="391" y="112" type="line"/>
      <point x="391" y="692" type="line"/>
      <point x="750" y="692" type="line"/>
      <point x="750" y="804" type="line"/>
      <point x="391" y="804" type="line"/>
      <point x="391" y="956" type="line" smooth="yes"/>
      <point x="391" y="1070"/>
      <point x="489" y="1121"/>
      <point x="611" y="1121" type="curve" smooth="yes"/>
      <point x="707" y="1121"/>
      <point x="818" y="1084"/>
      <point x="888" y="1024" type="curve"/>
      <point x="935" y="1111" type="line"/>
      <point x="848" y="1189"/>
      <point x="716" y="1232"/>
      <point x="592" y="1232" type="curve" smooth="yes"/>
      <point x="402" y="1232"/>
      <point x="233" y="1143"/>
      <point x="233" y="965" type="curve" smooth="yes"/>
      <point x="233" y="804" type="line"/>
      <point x="96" y="804" type="line"/>
      <point x="96" y="692" type="line"/>
      <point x="233" y="692" type="line"/>
      <point x="233" y="112" type="line"/>
      <point x="100" y="112" type="line"/>
    </contour>
    <component base="fl" xOffset="518"/>
  </outline>
</glyph>
<glyph name="fj" format="1">
  <advance width="1162"/>
  <outline>
    <contour>
      <point x="647" y="-315" type="line"/>
      <point x="736" y="-315" type="line" smooth="yes"/>
      <point x="1013" y="-315"/>
      <point x="1026" y="-162"/>
      <point x="1026" y="26" type="curve" smooth="yes"/>
      <point x="1026" y="804" type="line"/>
      <point x="399" y="804" type="line"/>
      <point x="399" y="912" type="line" smooth="yes"/>
      <point x="399" y="1104"/>
      <point x="499" y="1177"/>
      <point x="650" y="1177" type="curve" smooth="yes"/>
      <point x="725" y="1177"/>
      <point x="808" y="1156"/>
      <point x="845" y="1118" type="curve"/>
      <point x="830" y="1105"/>
      <point x="823" y="1085"/>
      <point x="823" y="1065" type="curve" smooth="yes"/>
      <point x="823" y="1013"/>
      <point x="866" y="973"/>
      <point x="922" y="973" type="curve" smooth="yes"/>
      <point x="978" y="973"/>
      <point x="1020" y="1014"/>
      <point x="1020" y="1068" type="curve" smooth="yes"/>
      <point x="1020" y="1190"/>
      <point x="846" y="1270"/>
      <point x="650" y="1270" type="curve" smooth="yes"/>
      <point x="420" y="1270"/>
      <point x="241" y="1163"/>
      <point x="241" y="914" type="curve" smooth="yes"/>
      <point x="241" y="804" type="line"/>
      <point x="99" y="804" type="line"/>
      <point x="99" y="692" type="line"/>
      <point x="241" y="692" type="line"/>
      <point x="241" y="112" type="line"/>
      <point x="104" y="112" type="line"/>
      <point x="104" y="0" type="line"/>
      <point x="575" y="0" type="line"/>
      <point x="575" y="112" type="line"/>
      <point x="399" y="112" type="line"/>
      <point x="399" y="692" type="line"/>
      <point x="868" y="692" type="line"/>
      <point x="868" y="-20" type="line" smooth="yes"/>
      <point x="868" y="-139"/>
      <point x="848" y="-192"/>
      <point x="734" y="-192" type="curve" smooth="yes"/>
      <point x="647" y="-192" type="line"/>
    </contour>
  </outline>
</glyph>
<glyph name="lc_ascender_stem" format="1">
  <advance width="1207"/>
  <outline>
    <contour>
      <point x="107" y="0" type="line"/>
      <point x="546" y="0" type="line"/>
      <point x="546" y="112" type="line"/>
      <point x="416" y="112" type="line"/>
      <point x="416" y="1174" type="line"/>
      <point x="111" y="1174" type="line"/>
      <point x="111" y="1062" type="line"/>
      <point x="258" y="1062" type="line"/>
      <point x="258" y="112" type="line"/>
      <point x="107" y="112" type="line"/>
    </contour>
  </outline>
</glyph>
<glyph name="lc_ascender_stem_1" format="1">
  <advance width="802"/>
  <outline>
    <contour>
      <point x="110" y="0" type="line"/>
      <point x="416" y="0" type="line"/>
      <point x="416" y="1174" type="line"/>
      <point x="114" y="1174" type="line"/>
      <point x="114" y="1062" type="line"/>
      <point x="258" y="1062" type="line"/>
      <point x="258" y="112" type="line"/>
      <point x="110" y="112" type="line"/>
    </contour>
  </outline>
</glyph>
<glyph name="lc_bowl_right" format="1">
  <advance width="1235"/>
  <outline>
    <contour>
      <point x="623" y="-21" type="curve" smooth="yes"/>
      <point x="843" y="-21"/>
      <point x="1038" y="135"/>
      <point x="1039" y="411" type="curve" smooth="yes"/>
      <point x="1041" y="678"/>
      <point x="865" y="825"/>
      <point x="648" y="825" type="curve" smooth="yes"/>
      <point x="528" y="825"/>
      <point x="397" y="772"/>
      <point x="300" y="670" type="curve"/>
      <point x="314" y="562" type="line"/>
      <point x="401" y="659"/>
      <point x="511" y="709"/>
      <point x="606" y="709" type="curve" smooth="yes"/>
      <point x="764" y="709"/>
      <point x="882" y="598"/>
      <point x="882" y="401" type="curve" smooth="yes"/>
      <point x="882" y="199"/>
      <point x="758" y="92"/>
      <point x="596" y="92" type="curve" smooth="yes"/>
      <point x="497" y="92"/>
      <point x="389" y="142"/>
      <point x="312" y="233" type="curve"/>
      <point x="304" y="139" type="line"/>
      <point x="382" y="33"/>
      <point x="503" y="-21"/>
    </contour>
  </outline>
</glyph>
<glyph name="lc_descender_stem" format="1">
  <advance width="1202"/>
  <outline>
    <contour>
      <point x="76" y="-319" type="line"/>
      <point x="537" y="-319" type="line"/>
      <point x="537" y="-207" type="line"/>
      <point x="378" y="-207" type="line"/>
      <point x="378" y="615" type="line"/>
      <point x="369" y="804" type="line"/>
      <point x="81" y="804" type="line"/>
      <point x="81" y="692" type="line"/>
      <point x="222" y="692" type="line"/>
      <point x="222" y="-207" type="line"/>
      <point x="76" y="-207" type="line"/>
    </contour>
  </outline>
</glyph>
